<svg width="68" height="53" viewBox="0 0 68 53" fill="none" xmlns="http://www.w3.org/2000/svg">
<mask id="path-1-outside-1_23_259" maskUnits="userSpaceOnUse" x="0" y="0" width="68" height="53" fill="black">
<rect fill="white" width="68" height="53"/>
<path d="M19.53 1.72C22.19 1.72 24.64 2.28 26.74 3.33C28.84 4.31 30.59 5.64 31.85 7.32C33.18 8.93 34.3 10.89 35.14 13.13C35.98 15.37 36.61 17.61 36.89 19.85C37.24 22.09 37.38 24.4 37.38 26.92C37.38 34.69 35.84 40.78 32.62 45.19C29.47 49.67 25.13 51.84 19.53 51.84C13.86 51.84 9.45 49.67 6.23 45.26C3.01 40.85 1.4 34.69 1.4 26.85C1.4 23.77 1.75 20.83 2.31 18.03C2.94 15.23 3.92 12.57 5.25 10.05C6.51 7.53 8.4 5.5 10.85 3.96C13.3 2.49 16.17 1.72 19.53 1.72ZM19.39 9.98C18.13 9.98 16.94 10.26 15.96 10.82C14.98 11.38 14.21 12.15 13.65 13.27C13.09 14.39 12.6 15.44 12.25 16.42C11.9 17.4 11.62 18.73 11.48 20.34C11.34 21.95 11.27 23.21 11.27 24.05C11.27 24.89 11.2 26.01 11.2 27.41C11.2 38.33 14 43.86 19.46 43.86C24.92 43.86 27.58 38.19 27.58 26.92C27.58 21.04 26.95 16.77 25.62 14.04C24.36 11.31 22.26 9.98 19.39 9.98ZM66.6165 2V51H56.0465V19.15H44.1465V11.8H45.4065C52.8265 11.8 57.1665 8.58 58.4265 2H66.6165Z"/>
</mask>
<path d="M26.74 3.33L26.2928 4.22442L26.3049 4.23047L26.3171 4.23618L26.74 3.33ZM31.85 7.32L31.05 7.92L31.0641 7.93878L31.079 7.95688L31.85 7.32ZM35.14 13.13L36.0763 12.7789V12.7789L35.14 13.13ZM36.89 19.85L35.8977 19.974L35.8996 19.9892L35.902 20.0044L36.89 19.85ZM32.62 45.19L31.8124 44.6003L31.8071 44.6075L31.802 44.6148L32.62 45.19ZM6.23 45.26L5.42237 45.8497L6.23 45.26ZM2.31 18.03L1.33439 17.8105L1.33176 17.8222L1.32942 17.8339L2.31 18.03ZM5.25 10.05L6.13439 10.5168L6.13951 10.507L6.14443 10.4972L5.25 10.05ZM10.85 3.96L10.3355 3.1025L10.3266 3.10784L10.3178 3.11336L10.85 3.96ZM15.96 10.82L16.4561 11.6882L16.4561 11.6882L15.96 10.82ZM13.65 13.27L12.7556 12.8228V12.8228L13.65 13.27ZM12.25 16.42L13.1917 16.7563V16.7563L12.25 16.42ZM25.62 14.04L24.712 14.4591L24.7164 14.4686L24.721 14.478L25.62 14.04ZM19.53 2.72C22.05 2.72 24.3446 3.25035 26.2928 4.22442L27.1872 2.43557C24.9354 1.30965 22.33 0.719996 19.53 0.719996V2.72ZM26.3171 4.23618C28.2972 5.16022 29.9062 6.39496 31.05 7.92L32.65 6.72C31.2738 4.88504 29.3828 3.45977 27.1629 2.42381L26.3171 4.23618ZM31.079 7.95688C32.3314 9.47293 33.3985 11.334 34.2037 13.4811L36.0763 12.7789C35.2015 10.446 34.0286 8.38706 32.621 6.68312L31.079 7.95688ZM34.2037 13.4811C35.0254 15.6723 35.6302 17.8339 35.8977 19.974L37.8823 19.726C37.5898 17.3861 36.9346 15.0677 36.0763 12.7789L34.2037 13.4811ZM35.902 20.0044C36.242 22.1804 36.38 24.4368 36.38 26.92H38.38C38.38 24.3632 38.238 21.9996 37.878 19.6956L35.902 20.0044ZM36.38 26.92C36.38 34.5736 34.8608 40.4253 31.8124 44.6003L33.4276 45.7797C36.8192 41.1347 38.38 34.8064 38.38 26.92H36.38ZM31.802 44.6148C28.8482 48.8157 24.8204 50.84 19.53 50.84V52.84C25.4396 52.84 30.0918 50.5243 33.438 45.7652L31.802 44.6148ZM19.53 50.84C14.1624 50.84 10.0596 48.8091 7.03763 44.6703L5.42237 45.8497C8.84039 50.5309 13.5576 52.84 19.53 52.84V50.84ZM7.03763 44.6703C3.98699 40.4923 2.4 34.5682 2.4 26.85H0.4C0.4 34.8118 2.03301 41.2077 5.42237 45.8497L7.03763 44.6703ZM2.4 26.85C2.4 23.8462 2.7413 20.9725 3.29058 18.2261L1.32942 17.8339C0.758703 20.6875 0.4 23.6938 0.4 26.85H2.4ZM3.28561 18.2495C3.89638 15.535 4.84587 12.9582 6.13439 10.5168L4.36562 9.58324C2.99413 12.1818 1.98362 14.925 1.33439 17.8105L3.28561 18.2495ZM6.14443 10.4972C7.31739 8.15128 9.0772 6.25547 11.3822 4.80663L10.3178 3.11336C7.7228 4.74452 5.70261 6.90871 4.35557 9.60278L6.14443 10.4972ZM11.3645 4.81749C13.6415 3.45131 16.3295 2.72 19.53 2.72V0.719996C16.0105 0.719996 12.9585 1.52868 10.3355 3.1025L11.3645 4.81749ZM19.39 8.98C17.9872 8.98 16.6199 9.29115 15.4639 9.95176L16.4561 11.6882C17.2601 11.2289 18.2728 10.98 19.39 10.98V8.98ZM15.4639 9.95176C14.3192 10.6058 13.4073 11.5194 12.7556 12.8228L14.5444 13.7172C15.0127 12.7806 15.6408 12.1541 16.4561 11.6882L15.4639 9.95176ZM12.7556 12.8228C12.1911 13.9517 11.6791 15.0452 11.3083 16.0837L13.1917 16.7563C13.5209 15.8348 13.9889 14.8283 14.5444 13.7172L12.7556 12.8228ZM11.3083 16.0837C10.9221 17.1649 10.629 18.5832 10.4838 20.2534L12.4762 20.4266C12.611 18.8768 12.8779 17.6351 13.1917 16.7563L11.3083 16.0837ZM10.4838 20.2534C10.343 21.8725 10.27 23.1664 10.27 24.05H12.27C12.27 23.2536 12.337 22.0275 12.4762 20.4266L10.4838 20.2534ZM10.27 24.05C10.27 24.45 10.2533 24.919 10.2355 25.4888C10.2179 26.0511 10.2 26.6938 10.2 27.41H12.2C12.2 26.7262 12.2171 26.1089 12.2345 25.5512C12.2517 25.001 12.27 24.49 12.27 24.05H10.27ZM10.2 27.41C10.2 32.9243 10.9019 37.2236 12.3892 40.1795C13.1396 41.6708 14.1056 42.851 15.31 43.6565C16.5211 44.4665 17.9175 44.86 19.46 44.86V42.86C18.2725 42.86 17.2714 42.5623 16.4219 41.9941C15.5657 41.4215 14.8079 40.5367 14.1758 39.2805C12.8981 36.7414 12.2 32.8157 12.2 27.41H10.2ZM19.46 44.86C21.008 44.86 22.4019 44.4547 23.6033 43.6189C24.7963 42.7888 25.7413 41.5753 26.4702 40.0466C27.9147 37.0168 28.58 32.6013 28.58 26.92H26.58C26.58 32.5087 25.9153 36.5632 24.6648 39.1859C24.0462 40.4835 23.3024 41.3918 22.4611 41.9771C21.6281 42.5566 20.642 42.86 19.46 42.86V44.86ZM28.58 26.92C28.58 21.0107 27.9538 16.5471 26.519 13.602L24.721 14.478C25.9462 16.9929 26.58 21.0693 26.58 26.92H28.58ZM26.528 13.6209C25.8341 12.1176 24.8805 10.9416 23.652 10.1467C22.4225 9.35111 20.9837 8.98 19.39 8.98V10.98C20.6663 10.98 21.7125 11.2739 22.5655 11.8258C23.4195 12.3784 24.1459 13.2324 24.712 14.4591L26.528 13.6209ZM66.6165 2H67.6165V0.999997H66.6165V2ZM66.6165 51V52H67.6165V51H66.6165ZM56.0465 51H55.0465V52H56.0465V51ZM56.0465 19.15H57.0465V18.15H56.0465V19.15ZM44.1465 19.15H43.1465V20.15H44.1465V19.15ZM44.1465 11.8V10.8H43.1465V11.8H44.1465ZM58.4265 2V0.999997H57.5998L57.4443 1.81192L58.4265 2ZM65.6165 2V51H67.6165V2H65.6165ZM66.6165 50H56.0465V52H66.6165V50ZM57.0465 51V19.15H55.0465V51H57.0465ZM56.0465 18.15H44.1465V20.15H56.0465V18.15ZM45.1465 19.15V11.8H43.1465V19.15H45.1465ZM44.1465 12.8H45.4065V10.8H44.1465V12.8ZM45.4065 12.8C49.2523 12.8 52.4285 11.966 54.8265 10.1675C57.2388 8.35825 58.7431 5.66364 59.4086 2.18807L57.4443 1.81192C56.8499 4.91635 55.5542 7.12174 53.6265 8.5675C51.6845 10.024 48.9807 10.8 45.4065 10.8V12.8ZM58.4265 3H66.6165V0.999997H58.4265V3Z" fill="url(#paint0_linear_23_259)" mask="url(#path-1-outside-1_23_259)"/>
<defs>
<linearGradient id="paint0_linear_23_259" x1="42.7185" y1="0" x2="42.7185" y2="78.7286" gradientUnits="userSpaceOnUse">
<stop stop-color="#C400B9"/>
<stop offset="1" stop-color="#5D0058"/>
</linearGradient>
</defs>
</svg>
