<svg width="78" height="53" viewBox="0 0 78 53" fill="none" xmlns="http://www.w3.org/2000/svg">
<mask id="path-1-outside-1_23_269" maskUnits="userSpaceOnUse" x="0" y="0" width="78" height="53" fill="black">
<rect fill="white" width="78" height="53"/>
<path d="M19.53 1.72C22.19 1.72 24.64 2.28 26.74 3.33C28.84 4.31 30.59 5.64 31.85 7.32C33.18 8.93 34.3 10.89 35.14 13.13C35.98 15.37 36.61 17.61 36.89 19.85C37.24 22.09 37.38 24.4 37.38 26.92C37.38 34.69 35.84 40.78 32.62 45.19C29.47 49.67 25.13 51.84 19.53 51.84C13.86 51.84 9.45 49.67 6.23 45.26C3.01 40.85 1.4 34.69 1.4 26.85C1.4 23.77 1.75 20.83 2.31 18.03C2.94 15.23 3.92 12.57 5.25 10.05C6.51 7.53 8.4 5.5 10.85 3.96C13.3 2.49 16.17 1.72 19.53 1.72ZM19.39 9.98C18.13 9.98 16.94 10.26 15.96 10.82C14.98 11.38 14.21 12.15 13.65 13.27C13.09 14.39 12.6 15.44 12.25 16.42C11.9 17.4 11.62 18.73 11.48 20.34C11.34 21.95 11.27 23.21 11.27 24.05C11.27 24.89 11.2 26.01 11.2 27.41C11.2 38.33 14 43.86 19.46 43.86C24.92 43.86 27.58 38.19 27.58 26.92C27.58 21.04 26.95 16.77 25.62 14.04C24.36 11.31 22.26 9.98 19.39 9.98ZM41.1365 18.03C41.2765 12.99 42.8865 9 45.8265 6.06C48.8365 3.12 52.8965 1.65 58.0065 1.65C62.9065 1.65 66.8265 2.91 69.8365 5.43C72.8465 7.95 74.3165 11.17 74.3165 15.16C74.3165 17.54 73.7565 19.57 72.4965 21.32C71.2365 23.07 69.5565 24.26 67.4565 24.82C70.1865 25.45 72.2865 26.78 73.8265 28.74C75.3665 30.7 76.1365 33.15 76.1365 36.02C76.1365 40.71 74.4565 44.56 71.0965 47.5C67.7365 50.44 63.3265 51.91 57.9365 51.91C52.4065 51.91 47.9965 50.37 44.7065 47.29C41.4865 44.21 39.8065 40.08 39.8065 34.83V34.13H49.3965C49.4665 37.21 50.2365 39.52 51.6365 41.13C53.0365 42.74 55.0665 43.51 57.7265 43.51C60.1765 43.51 62.1365 42.88 63.6065 41.48C65.1465 40.08 65.8465 38.33 65.8465 36.09C65.8465 33.57 65.0765 31.68 63.3965 30.56C61.7165 29.44 59.6165 28.81 56.9565 28.81C55.9765 28.81 55.2065 28.88 54.5065 28.88V21.88C55.0665 21.95 55.6265 21.95 56.1865 21.95C61.9265 21.95 64.7265 19.92 64.7265 15.79C64.7265 13.97 64.1665 12.43 62.9065 11.31C61.6465 10.19 60.0365 9.63 57.9365 9.63C55.6265 9.63 53.8065 10.4 52.5465 11.8C51.2865 13.27 50.5865 15.37 50.5865 18.03H41.1365Z"/>
</mask>
<path d="M26.74 3.33L26.2928 4.22442L26.3049 4.23047L26.3171 4.23618L26.74 3.33ZM31.85 7.32L31.05 7.92L31.0641 7.93878L31.079 7.95688L31.85 7.32ZM35.14 13.13L36.0763 12.7789V12.7789L35.14 13.13ZM36.89 19.85L35.8977 19.974L35.8996 19.9892L35.902 20.0044L36.89 19.85ZM32.62 45.19L31.8124 44.6003L31.8071 44.6075L31.802 44.6148L32.62 45.19ZM6.23 45.26L5.42237 45.8497L6.23 45.26ZM2.31 18.03L1.33439 17.8105L1.33176 17.8222L1.32942 17.8339L2.31 18.03ZM5.25 10.05L6.13439 10.5168L6.13951 10.507L6.14443 10.4972L5.25 10.05ZM10.85 3.96L10.3355 3.1025L10.3266 3.10784L10.3178 3.11336L10.85 3.96ZM15.96 10.82L16.4561 11.6882L16.4561 11.6882L15.96 10.82ZM13.65 13.27L12.7556 12.8228V12.8228L13.65 13.27ZM12.25 16.42L13.1917 16.7563V16.7563L12.25 16.42ZM25.62 14.04L24.712 14.4591L24.7164 14.4686L24.721 14.478L25.62 14.04ZM19.53 2.72C22.05 2.72 24.3446 3.25035 26.2928 4.22442L27.1872 2.43557C24.9354 1.30965 22.33 0.719996 19.53 0.719996V2.72ZM26.3171 4.23618C28.2972 5.16022 29.9062 6.39496 31.05 7.92L32.65 6.72C31.2738 4.88504 29.3828 3.45977 27.1629 2.42381L26.3171 4.23618ZM31.079 7.95688C32.3314 9.47293 33.3985 11.334 34.2037 13.4811L36.0763 12.7789C35.2015 10.446 34.0286 8.38706 32.621 6.68312L31.079 7.95688ZM34.2037 13.4811C35.0254 15.6723 35.6302 17.8339 35.8977 19.974L37.8823 19.726C37.5898 17.3861 36.9346 15.0677 36.0763 12.7789L34.2037 13.4811ZM35.902 20.0044C36.242 22.1804 36.38 24.4368 36.38 26.92H38.38C38.38 24.3632 38.238 21.9996 37.878 19.6956L35.902 20.0044ZM36.38 26.92C36.38 34.5736 34.8608 40.4253 31.8124 44.6003L33.4276 45.7797C36.8192 41.1347 38.38 34.8064 38.38 26.92H36.38ZM31.802 44.6148C28.8482 48.8157 24.8204 50.84 19.53 50.84V52.84C25.4396 52.84 30.0918 50.5243 33.438 45.7652L31.802 44.6148ZM19.53 50.84C14.1624 50.84 10.0596 48.8091 7.03763 44.6703L5.42237 45.8497C8.84039 50.5309 13.5576 52.84 19.53 52.84V50.84ZM7.03763 44.6703C3.98699 40.4923 2.4 34.5682 2.4 26.85H0.4C0.4 34.8118 2.03301 41.2077 5.42237 45.8497L7.03763 44.6703ZM2.4 26.85C2.4 23.8462 2.7413 20.9725 3.29058 18.2261L1.32942 17.8339C0.758703 20.6875 0.4 23.6938 0.4 26.85H2.4ZM3.28561 18.2495C3.89638 15.535 4.84587 12.9582 6.13439 10.5168L4.36562 9.58324C2.99413 12.1818 1.98362 14.925 1.33439 17.8105L3.28561 18.2495ZM6.14443 10.4972C7.31739 8.15128 9.0772 6.25547 11.3822 4.80663L10.3178 3.11336C7.7228 4.74452 5.70261 6.90871 4.35557 9.60278L6.14443 10.4972ZM11.3645 4.81749C13.6415 3.45131 16.3295 2.72 19.53 2.72V0.719996C16.0105 0.719996 12.9585 1.52868 10.3355 3.1025L11.3645 4.81749ZM19.39 8.98C17.9872 8.98 16.6199 9.29115 15.4639 9.95176L16.4561 11.6882C17.2601 11.2289 18.2728 10.98 19.39 10.98V8.98ZM15.4639 9.95176C14.3192 10.6058 13.4073 11.5194 12.7556 12.8228L14.5444 13.7172C15.0127 12.7806 15.6408 12.1541 16.4561 11.6882L15.4639 9.95176ZM12.7556 12.8228C12.1911 13.9517 11.6791 15.0452 11.3083 16.0837L13.1917 16.7563C13.5209 15.8348 13.9889 14.8283 14.5444 13.7172L12.7556 12.8228ZM11.3083 16.0837C10.9221 17.1649 10.629 18.5832 10.4838 20.2534L12.4762 20.4266C12.611 18.8768 12.8779 17.6351 13.1917 16.7563L11.3083 16.0837ZM10.4838 20.2534C10.343 21.8725 10.27 23.1664 10.27 24.05H12.27C12.27 23.2536 12.337 22.0275 12.4762 20.4266L10.4838 20.2534ZM10.27 24.05C10.27 24.45 10.2533 24.919 10.2355 25.4888C10.2179 26.0511 10.2 26.6938 10.2 27.41H12.2C12.2 26.7262 12.2171 26.1089 12.2345 25.5512C12.2517 25.001 12.27 24.49 12.27 24.05H10.27ZM10.2 27.41C10.2 32.9243 10.9019 37.2236 12.3892 40.1795C13.1396 41.6708 14.1056 42.851 15.31 43.6565C16.5211 44.4665 17.9175 44.86 19.46 44.86V42.86C18.2725 42.86 17.2714 42.5623 16.4219 41.9941C15.5657 41.4215 14.8079 40.5367 14.1758 39.2805C12.8981 36.7414 12.2 32.8157 12.2 27.41H10.2ZM19.46 44.86C21.008 44.86 22.4019 44.4547 23.6033 43.6189C24.7963 42.7888 25.7413 41.5753 26.4702 40.0466C27.9147 37.0168 28.58 32.6013 28.58 26.92H26.58C26.58 32.5087 25.9153 36.5632 24.6648 39.1859C24.0462 40.4835 23.3024 41.3918 22.4611 41.9771C21.6281 42.5566 20.642 42.86 19.46 42.86V44.86ZM28.58 26.92C28.58 21.0107 27.9538 16.5471 26.519 13.602L24.721 14.478C25.9462 16.9929 26.58 21.0693 26.58 26.92H28.58ZM26.528 13.6209C25.8341 12.1176 24.8805 10.9416 23.652 10.1467C22.4225 9.35111 20.9837 8.98 19.39 8.98V10.98C20.6663 10.98 21.7125 11.2739 22.5655 11.8258C23.4195 12.3784 24.1459 13.2324 24.712 14.4591L26.528 13.6209ZM41.1365 18.03L40.1369 18.0022L40.1083 19.03H41.1365V18.03ZM45.8265 6.06L45.1277 5.34457L45.1194 5.35289L45.8265 6.06ZM69.8365 5.43L70.4784 4.66324L69.8365 5.43ZM67.4565 24.82L67.1988 23.8538L67.2316 25.7944L67.4565 24.82ZM73.8265 28.74L73.0402 29.3578L73.8265 28.74ZM71.0965 47.5L70.438 46.7474L71.0965 47.5ZM44.7065 47.29L44.0152 48.0127L44.0231 48.02L44.7065 47.29ZM39.8065 34.13V33.13H38.8065V34.13H39.8065ZM49.3965 34.13L50.3962 34.1073L50.374 33.13H49.3965V34.13ZM51.6365 41.13L52.3911 40.4738L51.6365 41.13ZM63.6065 41.48L62.9338 40.7401L62.9252 40.7479L62.9168 40.7559L63.6065 41.48ZM63.3965 30.56L63.9512 29.7279L63.3965 30.56ZM54.5065 28.88H53.5065V29.88H54.5065V28.88ZM54.5065 21.88L54.6305 20.8877L53.5065 20.7472V21.88H54.5065ZM62.9065 11.31L63.5709 10.5626V10.5626L62.9065 11.31ZM52.5465 11.8L51.8032 11.131L51.7951 11.14L51.7872 11.1492L52.5465 11.8ZM50.5865 18.03V19.03H51.5865V18.03H50.5865ZM42.1361 18.0578C42.2703 13.2277 43.8042 9.49649 46.5336 6.76711L45.1194 5.35289C41.9688 8.50351 40.2827 12.7523 40.1369 18.0022L42.1361 18.0578ZM46.5252 6.77537C49.3098 4.05558 53.0981 2.65 58.0065 2.65V0.649997C52.6948 0.649997 48.3632 2.18442 45.1277 5.34462L46.5252 6.77537ZM58.0065 2.65C62.7297 2.65 66.4045 3.86088 69.1945 6.19676L70.4784 4.66324C67.2485 1.95912 63.0832 0.649997 58.0065 0.649997V2.65ZM69.1945 6.19676C71.9707 8.52094 73.3165 11.4568 73.3165 15.16H75.3165C75.3165 10.8832 73.7223 7.37906 70.4784 4.66324L69.1945 6.19676ZM73.3165 15.16C73.3165 17.373 72.7996 19.1876 71.685 20.7357L73.308 21.9043C74.7134 19.9524 75.3165 17.707 75.3165 15.16H73.3165ZM71.685 20.7357C70.5552 22.3048 69.068 23.3553 67.1988 23.8538L67.7141 25.7862C70.045 25.1647 71.9177 23.8352 73.308 21.9043L71.685 20.7357ZM67.2316 25.7944C69.7546 26.3766 71.6506 27.5892 73.0402 29.3578L74.6128 28.1222C72.9224 25.9708 70.6184 24.5234 67.6813 23.8456L67.2316 25.7944ZM73.0402 29.3578C74.4196 31.1135 75.1365 33.3354 75.1365 36.02H77.1365C77.1365 32.9646 76.3134 30.2865 74.6128 28.1222L73.0402 29.3578ZM75.1365 36.02C75.1365 40.4407 73.567 44.0095 70.438 46.7474L71.755 48.2526C75.346 45.1105 77.1365 40.9793 77.1365 36.02H75.1365ZM70.438 46.7474C67.2975 49.4954 63.1387 50.91 57.9365 50.91V52.91C63.5143 52.91 68.1755 51.3846 71.755 48.2526L70.438 46.7474ZM57.9365 50.91C52.5997 50.91 48.4546 49.4291 45.3899 46.56L44.0231 48.02C47.5383 51.3109 52.2133 52.91 57.9365 52.91V50.91ZM45.3977 46.5674C42.4016 43.7015 40.8065 39.8462 40.8065 34.83H38.8065C38.8065 40.3138 40.5714 44.7185 44.0153 48.0126L45.3977 46.5674ZM40.8065 34.83V34.13H38.8065V34.83H40.8065ZM39.8065 35.13H49.3965V33.13H39.8065V35.13ZM48.3967 34.1527C48.4701 37.3797 49.2803 39.9444 50.8819 41.7862L52.3911 40.4738C51.1926 39.0956 50.4629 37.0403 50.3962 34.1073L48.3967 34.1527ZM50.8819 41.7862C52.5235 43.6741 54.8665 44.51 57.7265 44.51V42.51C55.2665 42.51 53.5494 41.8059 52.3911 40.4738L50.8819 41.7862ZM57.7265 44.51C60.3515 44.51 62.5884 43.8306 64.2961 42.2041L62.9168 40.7559C61.6846 41.9294 60.0015 42.51 57.7265 42.51V44.51ZM64.2792 42.2199C66.0547 40.6058 66.8465 38.5729 66.8465 36.09H64.8465C64.8465 38.0871 64.2382 39.5542 62.9338 40.7401L64.2792 42.2199ZM66.8465 36.09C66.8465 33.3689 66.0045 31.0968 63.9512 29.7279L62.8418 31.392C64.1485 32.2632 64.8465 33.7711 64.8465 36.09H66.8465ZM63.9512 29.7279C62.0821 28.4819 59.7818 27.81 56.9565 27.81V29.81C59.4511 29.81 61.3508 30.3981 62.8418 31.392L63.9512 29.7279ZM56.9565 27.81C56.4433 27.81 55.9875 27.8284 55.583 27.8459C55.1713 27.8638 54.8296 27.88 54.5065 27.88V29.88C54.8834 29.88 55.2766 29.8612 55.6699 29.8441C56.0705 29.8266 56.4896 29.81 56.9565 29.81V27.81ZM55.5065 28.88V21.88H53.5065V28.88H55.5065ZM54.3825 22.8723C55.0144 22.9513 55.6366 22.95 56.1865 22.95V20.95C55.6164 20.95 55.1186 20.9487 54.6305 20.8877L54.3825 22.8723ZM56.1865 22.95C59.1428 22.95 61.528 22.433 63.1945 21.2294C64.9236 19.9806 65.7265 18.1071 65.7265 15.79H63.7265C63.7265 17.6029 63.1293 18.8094 62.0235 19.6081C60.855 20.452 58.9701 20.95 56.1865 20.95V22.95ZM65.7265 15.79C65.7265 13.7543 65.0916 11.9144 63.5709 10.5626L62.2421 12.0574C63.2414 12.9456 63.7265 14.1856 63.7265 15.79H65.7265ZM63.5709 10.5626C62.092 9.24807 60.2289 8.63 57.9365 8.63V10.63C59.8441 10.63 61.201 11.1319 62.2421 12.0574L63.5709 10.5626ZM57.9365 8.63C55.3911 8.63 53.2828 9.48705 51.8032 11.131L53.2898 12.469C54.3302 11.3129 55.8619 10.63 57.9365 10.63V8.63ZM51.7872 11.1492C50.3326 12.8463 49.5865 15.1995 49.5865 18.03H51.5865C51.5865 15.5405 52.2404 13.6937 53.3057 12.4508L51.7872 11.1492ZM50.5865 17.03H41.1365V19.03H50.5865V17.03Z" fill="url(#paint0_linear_23_269)" mask="url(#path-1-outside-1_23_269)"/>
<defs>
<linearGradient id="paint0_linear_23_269" x1="42.7185" y1="0" x2="42.7185" y2="78.7286" gradientUnits="userSpaceOnUse">
<stop stop-color="#C400B9"/>
<stop offset="1" stop-color="#5D0058"/>
</linearGradient>
</defs>
</svg>
