<svg width="194" height="54" viewBox="0 0 194 54" fill="none" xmlns="http://www.w3.org/2000/svg">
<g opacity="0.3" clip-path="url(#clip0_139_893)">
<path fill-rule="evenodd" clip-rule="evenodd" d="M57.2324 39.5287V15.8375H60.2784L74.7563 34.9033V15.8375H77.6519V39.5287H74.6059L60.128 20.2749V39.5287H57.2324ZM101.23 38.5885C99.3124 39.303 97.2441 39.6791 95.063 39.6791C86.4891 39.6791 82.2021 35.5801 82.2021 27.3447C82.2021 19.5604 86.3387 15.6495 94.6118 15.6495C96.9809 15.6495 99.1996 15.9879 101.23 16.6272V19.2596C99.1996 18.4699 97.0937 18.0938 94.9502 18.0938C88.4822 18.0938 85.2481 21.1774 85.2481 27.2694C85.2481 33.8503 88.4446 37.122 94.7998 37.122C95.8151 37.122 96.9433 36.9715 98.1843 36.7083V28.7736H101.23V38.5885ZM106.119 30.3907V15.8375H109.165V30.3907C109.165 34.9409 111.421 37.2348 115.971 37.2348C120.484 37.2348 122.778 34.9409 122.778 30.3907V15.8375H125.824V30.3907C125.824 36.5955 122.552 39.7167 115.971 39.7167C109.391 39.7167 106.119 36.5955 106.119 30.3907ZM134.323 15.8375V37.0467H146.732V39.5287H131.277V15.8375H134.323ZM151.132 39.5287H147.936L159.706 12.7163L171.476 39.5287H168.092L165.046 32.0829H157.224L158.051 29.601H164.031L159.593 18.8835L151.132 39.5287ZM174.748 39.5287V15.8375H184.864C189.376 15.8375 191.633 17.7178 191.633 21.5159C191.633 24.5995 189.414 26.8934 185.014 28.36L193.137 39.5287H189.113L181.592 28.8865V26.8934C186.105 26.1789 188.399 24.4491 188.399 21.6663C188.399 19.4852 187.158 18.3947 184.638 18.3947H177.869V39.5287H174.748Z" fill="white"/>
<path fill-rule="evenodd" clip-rule="evenodd" d="M0.601562 9.52L24.8568 0.87085L49.7513 9.36958L45.7276 41.4466L24.8568 52.9914L4.32446 41.5971L0.601562 9.52Z" fill="white"/>
<path fill-rule="evenodd" clip-rule="evenodd" d="M49.7519 9.36946L24.8574 0.870728V52.9912L45.7282 41.4465L49.7519 9.36946Z" fill="white"/>
<path fill-rule="evenodd" clip-rule="evenodd" d="M24.8946 6.96265L9.77734 40.5815L15.4181 40.4687L18.4641 32.8725H31.9643L35.2735 40.5439L40.651 40.6567L24.8946 6.96265ZM24.9322 17.7553L30.0464 28.4351H20.4572L24.9322 17.7553Z" fill="black"/>
</g>
<defs>
<clipPath id="clip0_139_893">
<rect width="192.538" height="52.2932" fill="white" transform="translate(0.601562 0.859497)"/>
</clipPath>
</defs>
</svg>
