<svg width="155" height="51" viewBox="0 0 155 51" fill="none" xmlns="http://www.w3.org/2000/svg">
<g opacity="0.3">
<path d="M50.6572 25.6041C50.6568 32.3132 47.9914 38.7475 43.2472 43.4914C38.5029 48.2354 32.0686 50.9005 25.3594 50.9005C11.3891 50.9005 0.0644531 39.5758 0.0644531 25.6055C0.0644531 11.6352 11.3905 0.310547 25.3594 0.310547C39.3283 0.310547 50.6544 11.6366 50.6544 25.6083" fill="white"/>
<path d="M25.7849 15.7619L32.3312 31.9185L22.4439 24.1314L25.7849 15.7619ZM37.4134 35.6397L27.3437 11.4075C27.0568 10.7094 26.4958 10.3391 25.7835 10.3391C25.0712 10.3391 24.4691 10.7094 24.1808 11.4075L13.1289 37.9872H16.9094L21.2836 27.0286L34.3395 37.5759C34.8652 37.9999 35.244 38.1921 35.7358 38.1921C36.7223 38.1921 37.5844 37.453 37.5844 36.3859C37.5844 36.2121 37.5236 35.9365 37.4134 35.6397Z" fill="black"/>
<path d="M85.3262 33.1709C85.0647 33.1709 84.7835 33.1044 84.587 32.8401L76.202 21.8137V33.0606H74.2898V19.2104C74.2898 18.6451 74.7463 18.2183 75.2678 18.2183C75.5717 18.2183 75.8331 18.3073 76.0282 18.5716L84.3906 29.5755V18.3724H86.3028V32.1999C86.3041 32.3284 86.2797 32.4558 86.2309 32.5747C86.1821 32.6936 86.11 32.8015 86.0189 32.892C85.9277 32.9825 85.8193 33.0538 85.7001 33.1017C85.5808 33.1496 85.4546 33.1731 85.3262 33.1709ZM96.388 33.3037C94.4772 33.3037 92.4774 32.908 90.6104 32.2013L91.0669 30.6142C92.7827 31.1795 94.651 31.5611 96.388 31.5611C98.799 31.5611 100.06 30.7019 100.06 29.4893C100.06 28.3869 99.0817 27.8357 95.7152 26.2472C92.3488 24.6586 91.0231 23.6467 91.0231 21.6611C91.0231 19.1695 92.9339 18.1561 96.5406 18.1561C98.0387 18.1561 100.356 18.467 101.668 18.8628L101.364 20.4937C99.7977 20.1197 98.1947 19.9207 96.5844 19.9001C94.0433 19.9001 93.0003 20.3849 93.0003 21.5989C93.0003 22.7889 93.7607 23.2948 97.3221 24.9512C101.081 26.6938 102.035 27.5757 102.035 29.3847C102.035 32.0091 99.558 33.3108 96.388 33.3108M106.343 18.3483H108.319V33.0352H106.343V18.3483ZM121.522 26.2133H116.612V31.1979H121.522C123.194 31.1979 124.216 30.1379 124.216 28.6611C124.216 27.2718 123.151 26.2133 121.522 26.2133ZM120.565 19.862H116.612V24.5597H120.565C122.151 24.5597 123.303 23.545 123.303 22.1331C123.303 20.7438 122.303 19.862 120.565 19.862ZM121.543 32.8727H115.635C115.07 32.8727 114.636 32.4317 114.636 31.8805V19.1779C114.639 18.9145 114.746 18.6628 114.933 18.4772C115.12 18.2916 115.372 18.1869 115.635 18.1858H120.523C123.519 18.1858 125.3 19.6627 125.3 21.9791C125.3 23.251 124.56 24.4043 123.431 25.0883C125.104 25.5971 126.234 26.9849 126.234 28.6611C126.234 30.9986 124.303 32.8727 121.543 32.8727ZM132 32.7101C131.457 32.7101 131.011 32.2466 131.011 31.718V18.0091H132.989V30.9096H140.88V32.696L132 32.7101ZM150.086 32.7907C146.044 32.7907 143.613 31.2926 143.613 28.2682C143.613 26.8351 144.418 25.467 145.982 24.8282C144.71 24.034 144.069 22.909 144.069 21.6738C144.069 18.9391 146.178 17.6375 150.146 17.6375C151.745 17.6441 153.339 17.8141 154.904 18.1448L154.686 19.7772C153.035 19.5129 151.492 19.3588 149.994 19.3588C147.43 19.3588 146.062 20.0655 146.062 21.7614C146.062 23.1069 147.323 24.164 148.996 24.164H152.385C152.496 24.1623 152.606 24.1828 152.709 24.2242C152.812 24.2656 152.906 24.3271 152.984 24.4052C153.063 24.4832 153.126 24.5762 153.168 24.6787C153.211 24.7812 153.232 24.8911 153.232 25.0021C153.232 25.4868 152.864 25.8614 152.384 25.8614H148.735C146.822 25.8614 145.607 26.8082 145.607 28.2639C145.607 30.4022 147.583 31.0425 150.059 31.0425C151.406 31.0425 153.23 30.8672 154.723 30.5139L155.005 32.1222C153.411 32.5521 151.768 32.7748 150.117 32.785M63.4782 21.2555L66.9408 29.9302L61.7116 25.7469L63.4782 21.2555ZM69.6288 31.9286L64.3036 18.9179C64.1509 18.5434 63.8471 18.3441 63.4782 18.3441C63.295 18.3409 63.1153 18.3942 62.9635 18.4969C62.8117 18.5996 62.6954 18.7466 62.6302 18.9179L56.8047 33.5779L58.7833 33.1878L61.0968 27.3043L68.0007 32.9673C68.2791 33.1935 68.4784 33.2981 68.7399 33.2981C68.8682 33.3001 68.9957 33.2765 69.1147 33.2285C69.2338 33.1805 69.342 33.1092 69.433 33.0187C69.5241 32.9282 69.5961 32.8204 69.6447 32.7016C69.6934 32.5828 69.7178 32.4555 69.7165 32.3271C69.7074 32.1899 69.6769 32.0549 69.626 31.9272L69.6288 31.9286Z" fill="white"/>
</g>
</svg>
