<svg width="55" height="55" viewBox="0 0 55 55" fill="none" xmlns="http://www.w3.org/2000/svg">
<g opacity="0.3" clip-path="url(#clip0_139_1077)">
<path d="M42.1928 30.5249C40.701 23.0174 47.8269 18.6143 47.8269 18.6143C47.8269 18.6143 45.0506 14.5976 40.3846 13.5642C35.7208 12.5286 33.3867 13.8225 31.0571 14.793C28.7253 15.7658 27.5617 15.7658 27.5617 15.7658C24.1966 15.7658 21.7367 12.2028 15.3253 13.8249C10.9083 14.9396 6.25851 20.0385 5.4184 26.1242C4.57828 32.2121 6.39121 39.9803 9.88663 46.0008C13.3821 52.0259 16.9427 54.2903 19.47 54.3554C21.9973 54.4182 24.5201 52.5449 27.5617 52.0887C30.6057 51.6372 32.4791 53.1919 35.4648 54.032C38.4389 54.8698 39.4816 54.0925 42.9072 51.1788C46.3421 48.2651 49.4513 39.9082 49.4513 39.9082C49.4513 39.9082 43.6845 38.037 42.1928 30.5249Z" fill="white"/>
<path d="M35.5871 8.70729C38.8917 5.33993 37.7724 0.126953 37.7724 0.126953C37.7724 0.126953 33.132 0.941498 30.0228 4.17626C26.916 7.4134 27.4303 12.5263 27.4303 12.5263C27.4303 12.5263 32.2825 12.0725 35.5871 8.70729Z" fill="white"/>
</g>
<defs>
<clipPath id="clip0_139_1077">
<rect width="54.23" height="54.23" fill="white" transform="translate(0.216797 0.126831)"/>
</clipPath>
</defs>
</svg>
