<svg width="168" height="53" viewBox="0 0 168 53" fill="none" xmlns="http://www.w3.org/2000/svg">
<g opacity="0.3">
<path fill-rule="evenodd" clip-rule="evenodd" d="M36.6387 25.6735C36.6387 35.8617 28.5641 44.1208 18.6034 44.1208C8.64301 44.1208 0.568359 35.8617 0.568359 25.6735C0.568359 15.4852 8.64301 7.22586 18.6034 7.22586C28.5641 7.22586 36.6387 15.4852 36.6387 25.6735Z" fill="black"/>
<path d="M1.30183 30.2422C1.30183 30.2422 -0.00379106 11.0047 17.7224 10.4549L16.4857 8.39378L6.867 11.623L4.11871 14.7834L1.71407 19.3868L0.339844 24.7459L0.752078 28.3185" fill="black"/>
<path d="M6.25075 13.0888C3.08644 16.3265 1.12833 20.7968 1.12833 25.7421C1.12833 30.6865 3.08644 35.1573 6.25075 38.3944C9.41658 41.6315 13.7796 43.629 18.603 43.629C23.4266 43.629 27.7899 41.6315 30.9555 38.3944C34.1196 35.1573 36.0781 30.6865 36.0781 25.7421C36.0781 20.7968 34.1196 16.3265 30.9555 13.0888C27.7899 9.85235 23.4266 7.85487 18.603 7.85445C13.7796 7.85487 9.41658 9.85235 6.25075 13.0888ZM5.44978 39.1775C2.08685 35.7382 0.0078125 30.9851 0.0078125 25.7421C0.0078125 20.4983 2.08685 15.7456 5.44978 12.3062C8.81192 8.86608 13.466 6.7338 18.603 6.73442C23.7401 6.7338 28.3947 8.86608 31.7562 12.3062C35.1194 15.7456 37.1988 20.4987 37.1983 25.7421C37.1988 30.9851 35.1194 35.7382 31.7562 39.1775C28.3947 42.6174 23.7401 44.7494 18.603 44.7494C13.466 44.7494 8.81192 42.6174 5.44978 39.1775Z" fill="white"/>
<path fill-rule="evenodd" clip-rule="evenodd" d="M26.1956 25.7758L23.4472 26.1881L19.7371 26.6003L17.3323 26.6689L14.9964 26.6003L13.2099 26.0506L11.6297 24.333L10.393 20.829L10.1182 20.0732L8.46925 19.5237L7.50734 17.9434L6.82031 15.6761L7.57619 13.6836L9.3624 13.0652L10.8052 13.7524L11.4924 15.2639L12.3169 15.1264L12.5916 14.783L12.3169 13.2027L12.248 11.2102L12.6603 8.46201L12.6442 6.89222L13.897 4.88938L16.0956 3.30908L19.9432 1.66014L24.2029 2.27849L27.913 4.95802L29.6307 7.70617L30.73 9.69871L31.0047 14.6455L30.1803 18.9053L28.6688 22.6841L27.226 24.6766" fill="#060606"/>
<path fill-rule="evenodd" clip-rule="evenodd" d="M23.8594 37.6617L14.0344 38.0739V39.7229L14.8588 45.4941L14.4466 45.9752L7.57613 43.6391L7.09505 42.8146L6.40802 35.051L4.82801 30.379L4.48438 29.2797L9.98069 25.501L11.6985 24.8138L13.2099 26.6689L14.5153 27.8369L16.0269 28.3178L16.7139 28.5239L17.5383 32.0965L18.1567 32.8523L19.737 32.3027L18.6376 34.4327L24.615 37.2495L23.8594 37.6617Z" fill="white"/>
<path fill-rule="evenodd" clip-rule="evenodd" d="M7.57574 13.6835L9.36195 13.0651L10.8048 13.7523L11.492 15.2638L12.3164 15.1263L12.5226 14.3018L12.1103 12.7218L12.5226 8.9428L12.1789 6.88163L13.4156 5.43881L16.0951 3.309L15.3393 2.27842L11.5606 4.13347L9.9803 5.37018L9.08716 7.29387L7.71302 9.14892L7.30078 11.3476L7.57574 13.6835Z" fill="black"/>
<path fill-rule="evenodd" clip-rule="evenodd" d="M10.3926 7.22507C10.3926 7.22507 11.4232 4.68303 15.5455 3.44632C19.6679 2.20962 15.7516 2.55301 15.7516 2.55301L11.2859 4.27079L9.56813 5.98836L8.8125 7.36255L10.3926 7.22507Z" fill="black"/>
<path fill-rule="evenodd" clip-rule="evenodd" d="M8.33137 13.2027C8.33137 13.2027 6.88855 8.39319 12.385 7.7062L12.1789 6.88173L8.40021 7.77504L7.30078 11.3477L7.57574 13.6836L8.33137 13.2027Z" fill="black"/>
<path fill-rule="evenodd" clip-rule="evenodd" d="M10.5293 19.5921L11.4289 18.7204C11.4289 18.7204 11.8349 18.7676 11.9035 19.2485C11.9721 19.7296 12.1782 24.058 15.1325 26.3942C15.402 26.6073 12.9341 26.0504 12.9341 26.0504L10.7354 22.6152" fill="black"/>
<path fill-rule="evenodd" clip-rule="evenodd" d="M23.1714 18.287C23.1714 18.287 23.3315 16.2044 23.8924 16.3645C24.4532 16.5247 24.4532 17.0855 24.4532 17.0855C24.4532 17.0855 23.0912 17.9667 23.1714 18.287Z" fill="black"/>
<path d="M28.8733 10.6606C28.8733 10.6606 27.7409 10.8997 27.6366 11.8973C27.5323 12.8951 28.8733 12.1034 29.0795 12.0348" fill="black"/>
<path d="M20.5605 10.7294C20.5605 10.7294 19.0488 10.9355 19.0488 11.8973C19.0488 12.8592 20.7667 12.7906 21.2475 12.3783" fill="black"/>
<path fill-rule="evenodd" clip-rule="evenodd" d="M11.2157 15.195C11.2157 15.195 8.60481 13.6147 8.33009 15.1264C8.0553 16.6379 7.43678 17.7373 8.74233 19.3174L7.84918 19.0426L7.02471 16.9128L6.75 14.8517L8.33009 13.2025L10.1165 13.34L11.1471 14.1645L11.2157 15.195Z" fill="black"/>
<path fill-rule="evenodd" clip-rule="evenodd" d="M12.4526 10.8667C12.4526 10.8667 13.6207 4.82067 19.5295 3.6526C24.3941 2.69107 26.9495 3.85872 27.9115 4.95794C27.9115 4.95794 23.583 -0.194778 19.4606 1.38531C15.3383 2.96561 12.3154 5.85125 12.384 7.7061C12.5009 10.8655 12.4526 10.8667 12.4526 10.8667Z" fill="black"/>
<path fill-rule="evenodd" clip-rule="evenodd" d="M28.3932 5.64482C28.3932 5.64482 26.4009 5.57619 26.332 7.3626C26.332 7.3626 26.3318 7.63736 26.4693 7.91211C26.4693 7.91211 28.0498 6.12569 29.0116 7.08764" fill="black"/>
<path fill-rule="evenodd" clip-rule="evenodd" d="M19.6701 8.09821C19.6701 8.09821 19.3271 5.35623 16.9893 6.95034C15.4778 7.98093 15.6153 9.42374 15.8901 9.6985C16.1649 9.97346 16.0901 10.5269 16.2993 10.147C16.5084 9.76714 16.4396 8.53043 17.1954 8.18704C17.9512 7.84345 19.1902 7.45966 19.6701 8.09821Z" fill="black"/>
<path fill-rule="evenodd" clip-rule="evenodd" d="M13.2099 26.669L6.75166 29.5546C6.75166 29.5546 9.43118 40.2041 8.05696 43.502L7.09505 43.1586L7.02637 39.1048L5.24025 31.4099L4.48438 29.2799L11.2174 24.7455L13.2099 26.669Z" fill="black"/>
<path fill-rule="evenodd" clip-rule="evenodd" d="M13.8751 32.559L14.7914 33.677V37.7993H13.692C13.692 37.7993 13.5547 34.9137 13.5547 34.57C13.5547 34.2265 13.692 32.9898 13.692 32.9898" fill="black"/>
<path fill-rule="evenodd" clip-rule="evenodd" d="M13.8984 38.4177L10.8066 38.5549L11.7 39.1733L13.8984 39.5168" fill="black"/>
<path fill-rule="evenodd" clip-rule="evenodd" d="M24.4766 37.7304L27.0186 37.6617L27.637 43.9828L25.0261 44.3262L24.4766 37.7304Z" fill="white"/>
<path fill-rule="evenodd" clip-rule="evenodd" d="M25.166 37.7305L29.0136 37.5244C29.0136 37.5244 30.5937 33.5394 30.5937 33.3333C30.5937 33.1272 31.9679 27.5621 31.9679 27.5621L28.8761 24.3331L28.2578 23.7833L26.6088 25.4323V31.8219L25.166 37.7305Z" fill="white"/>
<path fill-rule="evenodd" clip-rule="evenodd" d="M26.8811 37.2497L24.4766 37.7306L24.82 39.6545C25.7131 40.0667 27.2247 38.9673 27.2247 38.9673" fill="black"/>
<path fill-rule="evenodd" clip-rule="evenodd" d="M26.9512 25.2262L31.7605 28.7988L31.898 27.1499L28.2565 23.7834L26.9512 25.2262Z" fill="black"/>
<path fill-rule="evenodd" clip-rule="evenodd" d="M16.2821 51.2661L14.8596 45.494L14.1521 41.235L14.0352 38.0738L20.4732 37.7311L24.4786 37.7304L24.1144 44.9452L24.7327 50.5103L24.6641 51.5409L19.4426 51.9531L16.2821 51.2661Z" fill="white"/>
<path fill-rule="evenodd" clip-rule="evenodd" d="M23.5847 37.6618C23.5847 37.6618 23.2413 44.8073 24.2719 49.8913C24.2719 49.8913 22.2107 51.1969 19.1875 51.5403L24.9589 51.3342L25.6458 50.9219L24.8214 39.6543L24.6153 37.2494" fill="black"/>
<path fill-rule="evenodd" clip-rule="evenodd" d="M27.755 43.4338L30.4345 42.678L35.5186 42.4033L36.2744 40.0673L34.9002 36.0136L33.3201 35.8075L31.1215 36.4945L29.0121 37.5245L27.8922 37.319L27.0195 37.6619" fill="white"/>
<path fill-rule="evenodd" clip-rule="evenodd" d="M27.707 42.0591C27.707 42.0591 29.4932 41.2348 29.7682 41.3035L29.0126 37.5246L29.9057 37.1812C29.9057 37.1812 30.524 40.7538 30.524 41.166C30.524 41.166 34.3714 41.3721 34.715 41.3721C34.715 41.3721 35.5395 39.7918 35.3334 38.1429L36.0892 40.3415L36.1578 41.5782L35.0586 43.2272L33.8219 43.502L31.7607 43.4333L31.0737 42.5402L28.669 42.8836L27.9131 43.1586" fill="black"/>
<path d="M25.0058 37.1816L23.4944 33.334L21.9141 31.0667C21.9141 31.0667 22.2575 30.1048 22.7385 30.1048C23.2196 30.1048 24.3188 30.1048 24.3188 30.1048L25.8303 30.6545L25.693 33.1966L25.0058 37.1816Z" fill="white"/>
<path fill-rule="evenodd" clip-rule="evenodd" d="M25.3028 35.8753C25.3028 35.8753 23.3789 32.1654 23.3789 31.6157C23.3789 31.6157 23.7223 30.7912 24.2034 30.9973C24.6845 31.2035 25.7151 31.753 25.7151 31.753V30.4476L23.3789 29.9665L21.7988 30.1727L24.4783 36.4937L25.0279 36.5625" fill="black"/>
<path d="M16.8988 26.8072L14.9954 26.6003L13.209 26.0505V26.6689L14.0818 27.6315L16.83 28.8682" fill="white"/>
<path fill-rule="evenodd" clip-rule="evenodd" d="M13.8272 27.013C13.8272 27.013 15.9572 27.9063 16.6443 27.7002L16.7126 28.5238L14.7892 28.1124L13.6211 27.2879L13.8272 27.013Z" fill="black"/>
<path fill-rule="evenodd" clip-rule="evenodd" d="M27.7491 30.3389C26.5833 30.3047 25.5301 30.1661 24.6079 29.906C24.6706 29.528 24.5533 29.157 24.6475 28.8847C24.9045 28.6996 25.3353 28.7025 25.7238 28.659C25.3879 28.4939 24.9159 28.4286 24.5282 28.524C24.5191 28.2616 24.4014 28.099 24.3301 27.8937C24.9855 27.6598 26.5329 26.126 27.4033 26.6339C27.818 26.8755 27.9942 28.2552 28.0264 28.9261C28.0532 29.4827 27.9759 30.0441 27.7491 30.3389Z" fill="black"/>
<path d="M27.7491 30.3389C26.5833 30.3047 25.5301 30.1661 24.6079 29.906C24.6706 29.528 24.5533 29.157 24.6475 28.8847C24.9045 28.6996 25.3353 28.7025 25.7238 28.659C25.3879 28.4939 24.9159 28.4286 24.5282 28.524C24.5191 28.2616 24.4014 28.099 24.3301 27.8937C24.9855 27.6598 26.5329 26.126 27.4033 26.6339C27.818 26.8755 27.9942 28.2552 28.0264 28.9261C28.0532 29.4827 27.9759 30.0441 27.7491 30.3389Z" stroke="black" stroke-width="0.412234"/>
<path fill-rule="evenodd" clip-rule="evenodd" d="M22.1735 28.433C22.1704 28.5212 22.1667 28.61 22.1632 28.6991C21.7992 28.9382 21.2115 28.9353 20.8121 29.1363C21.401 29.162 21.8645 29.3038 22.2656 29.5038C22.2568 29.726 22.2483 29.9479 22.2396 30.1701C21.5724 30.6269 20.963 31.3071 20.1774 31.7354C19.806 31.938 18.5025 32.4592 18.1073 32.3671C17.8837 32.3152 17.8636 32.0377 17.7742 31.7762C17.5838 31.2162 17.1454 30.3247 17.1071 29.4817C17.0584 28.4169 16.951 26.6323 18.0984 26.8517C19.0242 27.0283 20.1009 27.4548 20.8176 27.8464C21.2556 28.0859 21.509 28.3819 22.1735 28.433Z" fill="black"/>
<path d="M22.1735 28.433C22.1704 28.5212 22.1667 28.61 22.1632 28.6991C21.7992 28.9382 21.2115 28.9353 20.8121 29.1363C21.401 29.162 21.8645 29.3038 22.2656 29.5038C22.2568 29.726 22.2483 29.9479 22.2396 30.1701C21.5724 30.6269 20.963 31.3071 20.1774 31.7354C19.806 31.938 18.5025 32.4592 18.1073 32.3671C17.8837 32.3152 17.8636 32.0377 17.7742 31.7762C17.5838 31.2162 17.1454 30.3247 17.1071 29.4817C17.0584 28.4169 16.951 26.6323 18.0984 26.8517C19.0242 27.0283 20.1009 27.4548 20.8176 27.8464C21.2556 28.0859 21.509 28.3819 22.1735 28.433Z" stroke="black" stroke-width="0.412234"/>
<path fill-rule="evenodd" clip-rule="evenodd" d="M22.8364 29.7036C22.7346 29.1236 22.6169 28.958 22.6624 28.452C24.2093 27.4206 24.4998 30.2236 22.8364 29.7036Z" fill="black"/>
<path d="M22.8364 29.7036C22.7346 29.1236 22.6169 28.958 22.6624 28.452C24.2093 27.4206 24.4998 30.2236 22.8364 29.7036Z" stroke="black" stroke-width="0.412234"/>
<path fill-rule="evenodd" clip-rule="evenodd" d="M25.0752 30.1737C25.0752 30.1737 24.5942 29.4865 24.9377 29.2804C25.2813 29.0743 25.6249 29.2806 25.8311 28.937C26.0372 28.5934 25.8311 28.3873 25.8997 27.9751C25.9683 27.5628 26.3121 27.494 26.6555 27.4253C26.9989 27.3567 27.9611 27.2192 28.0983 27.5628L27.6861 26.3261L26.8616 26.0514L24.2508 27.5628L24.1133 28.3187V29.8301" fill="black"/>
<path fill-rule="evenodd" clip-rule="evenodd" d="M17.8606 32.4409C17.778 31.3687 17.6907 30.2979 17.5935 29.2267C17.4481 27.6272 17.9777 27.9063 19.3642 27.9063C19.5759 27.9063 20.668 28.1588 20.7462 28.3186C21.1209 29.0839 20.1196 28.9138 21.1778 29.491C22.0711 29.978 23.6491 29.1952 23.2882 28.1124C23.0862 27.8717 22.2358 28.0374 21.9309 27.8793C21.3942 27.6011 20.8575 27.3228 20.3207 27.0445C19.6378 26.6902 18.0594 26.1737 17.3313 26.6688C15.4865 27.9234 17.4478 31.0583 18.1059 32.3671" fill="black"/>
<path fill-rule="evenodd" clip-rule="evenodd" d="M19.6682 8.09829C17.7956 7.66215 16.8651 8.88195 16.2974 10.1471C15.7906 10.0242 15.9923 9.33499 16.1203 8.98377C16.4555 8.06202 17.8063 6.835 18.91 7.00133C19.3849 7.07286 20.0277 7.50715 19.6682 8.09829Z" fill="white"/>
<path fill-rule="evenodd" clip-rule="evenodd" d="M28.7932 10.2308C28.8227 10.2321 28.8526 10.2331 28.882 10.2343C29.3052 11.1134 29.6715 12.0447 30.2053 12.8207C29.8477 13.6536 27.4973 14.3907 27.5336 12.8951C28.0419 12.6729 28.9193 12.8498 29.3699 12.5659C29.1094 11.8509 28.7334 11.2423 28.7932 10.2308Z" fill="white"/>
<path fill-rule="evenodd" clip-rule="evenodd" d="M20.6271 10.2535C21.0286 10.9896 21.1593 11.7629 21.73 12.3192C21.9871 12.5697 22.4869 12.8749 22.2391 13.5714C22.1812 13.7357 21.7581 14.1019 21.5138 14.1739C20.6215 14.4373 18.5424 14.2283 19.2465 13.1159C19.9844 13.1503 20.9763 13.5951 21.5278 13.0594C21.1043 12.3823 20.3491 11.0427 20.6271 10.2535Z" fill="white"/>
<path fill-rule="evenodd" clip-rule="evenodd" d="M28.4577 17.7346C27.1142 18.5976 25.6161 19.536 23.4148 19.3184C22.9444 18.9094 22.7651 17.9994 23.2221 17.3984C23.4599 17.8073 23.3105 18.5595 23.9734 18.6726C25.2224 18.8864 26.6762 17.9085 27.5747 17.5668C28.1318 16.6275 27.5266 16.2821 27.0247 15.6775C25.9972 14.439 24.6189 12.9038 24.669 11.0496C25.0843 10.7484 25.1202 11.5092 25.1798 11.6477C25.7163 12.9034 27.0666 14.5092 28.052 15.5839C28.294 15.8486 28.6924 16.1025 28.7367 16.2775C28.8645 16.7864 28.4043 17.3961 28.4577 17.7346Z" fill="white"/>
<path fill-rule="evenodd" clip-rule="evenodd" d="M10.7469 16.8257C10.3258 16.5854 10.2256 15.5268 9.7312 15.4967C9.0247 15.4538 9.15352 16.8701 9.15634 17.6982C8.67003 17.2567 8.58451 15.8974 8.94178 15.1993C8.53461 14.9993 8.3528 15.4198 8.12695 15.568C8.41721 13.4594 11.2115 14.59 10.7469 16.8257Z" fill="white"/>
<path fill-rule="evenodd" clip-rule="evenodd" d="M29.3138 18.6125C28.6885 19.8028 27.8038 21.1137 25.9688 21.1519C25.9315 20.7674 25.9028 20.1825 25.9708 19.951C27.3737 19.8162 28.2398 19.1022 29.3138 18.6125Z" fill="white"/>
<path fill-rule="evenodd" clip-rule="evenodd" d="M20.5215 19.3841C21.6919 19.9996 23.8429 20.0658 25.4337 20.0192C25.5191 20.3677 25.517 20.7983 25.5203 21.2233C23.4754 21.3253 21.0577 20.8193 20.5215 19.3841Z" fill="white"/>
<path fill-rule="evenodd" clip-rule="evenodd" d="M20.2997 20.5318C21.1091 22.564 23.8908 22.33 26.2367 22.2739C26.1334 22.5378 25.9095 22.8494 25.6313 22.9622C24.8796 23.2681 22.8062 23.5001 21.7627 22.9459C21.1008 22.5941 20.6756 21.7991 20.313 21.333C20.1379 21.1079 19.2659 20.5331 20.2997 20.5318Z" fill="white"/>
<path fill-rule="evenodd" clip-rule="evenodd" d="M28.3604 31.7409C27.4106 33.3677 26.5018 35.0384 25.375 36.4733C25.8474 35.0842 26.0496 32.7594 26.1209 30.987C27.1093 30.5245 27.9556 31.0911 28.3604 31.7409Z" fill="black"/>
<path fill-rule="evenodd" clip-rule="evenodd" d="M33.471 37.5876C32.4076 37.8004 31.6604 38.8339 30.623 38.7676C31.1932 37.9639 32.1922 37.6251 33.471 37.5876Z" fill="white"/>
<path fill-rule="evenodd" clip-rule="evenodd" d="M33.9396 39.2518C33.0729 39.3434 32.0549 39.4837 31.1758 39.4114C31.5919 38.7757 33.1953 38.9951 33.9396 39.2518Z" fill="white"/>
<path fill-rule="evenodd" clip-rule="evenodd" d="M34.2416 40.6866C33.2675 40.7077 32.0567 40.6883 31.1309 40.6106C31.6785 40.0224 33.6098 40.3924 34.2416 40.6866Z" fill="white"/>
<path fill-rule="evenodd" clip-rule="evenodd" d="M26.5272 44.613C26.6669 45.8363 27.1519 47.0758 27.0911 48.4156C26.5525 48.5972 26.2432 48.7561 25.5215 48.7551C25.4706 47.6165 25.3183 45.8759 25.3639 44.7904C25.7188 44.8139 26.2421 44.5369 26.5272 44.613Z" fill="black"/>
<path fill-rule="evenodd" clip-rule="evenodd" d="M24.9579 26.5836C24.4688 26.9028 24.0523 27.3015 23.5825 27.6424C22.5408 27.6939 21.9723 27.5703 21.207 26.9721C21.2196 26.9241 21.2965 26.9455 21.2994 26.8866C22.4145 27.3835 23.8319 26.6842 24.9579 26.5836Z" fill="#060606"/>
<path fill-rule="evenodd" clip-rule="evenodd" d="M19.1035 34.1847C19.4099 32.8571 20.6104 32.1695 21.7005 31.4384C22.8257 32.8664 23.51 34.7029 24.2636 36.4751C22.4831 35.9384 20.6639 35.0675 19.1035 34.1847Z" fill="black"/>
<path fill-rule="evenodd" clip-rule="evenodd" d="M25.3628 44.7905C25.3172 45.8759 25.4695 47.6166 25.5204 48.7552C26.2421 48.7562 26.5514 48.5973 27.09 48.4157C27.1508 47.0759 26.6658 45.8364 26.5261 44.6131C26.241 44.537 25.7177 44.814 25.3628 44.7905ZM14.1265 38.6176C14.6023 42.992 15.2915 46.6692 16.5556 50.5429C19.3611 51.3947 22.7432 51.469 25.223 50.7003C24.7677 48.514 24.9666 45.8523 24.7005 43.5192C24.5 41.7656 24.6022 40.0012 24.3272 38.2121C21.3225 37.587 17.0753 38.066 14.1265 38.6176ZM25.0377 38.2396C25.0124 40.1183 25.1218 41.9715 25.2653 43.8525C25.9867 43.7442 26.4762 43.6719 27.1465 43.525C26.9288 41.7141 26.9556 39.6763 26.5123 38.0744C25.9999 38.0793 25.5487 38.0685 25.0377 38.2396ZM28.6973 37.9367C28.355 37.8582 27.9563 37.9337 27.6292 37.94C27.783 39.4715 28.1561 41.1614 28.2874 42.769C28.802 42.785 29.077 42.5422 29.5004 42.4606C29.523 41.0495 29.3771 39.1054 28.6973 37.9367ZM34.2386 42.9996C35.3114 42.739 35.986 41.425 35.6859 40.0756C35.4846 39.1687 35.1259 37.461 34.7421 36.8808C34.4585 36.4517 33.6895 35.8898 33.0755 36.2831C32.0766 36.9227 30.317 37.1083 29.5886 37.8825C29.9538 39.0986 30.0672 40.769 30.2178 42.3099C31.4657 42.3877 33.001 41.9665 34.0388 42.4134C33.3143 42.6481 32.3742 42.65 31.7483 42.992C32.2598 43.2391 33.4576 43.1892 34.2386 42.9996ZM24.2619 36.4752C23.5083 34.703 22.824 32.8665 21.6988 31.4385C20.6087 32.1696 19.4082 32.8572 19.1019 34.1848C20.6623 35.0676 22.4814 35.9384 24.2619 36.4752ZM26.1194 30.9873C26.0481 32.7596 25.8459 35.0845 25.3735 36.4735C26.5003 35.0387 27.4091 33.3679 28.3589 31.7412C27.9541 31.0914 27.1077 30.5248 26.1194 30.9873ZM24.0137 30.2391C23.5869 30.1931 23.2245 30.7298 22.6694 30.4978C22.5423 30.6383 22.4266 30.7906 22.297 30.9279C23.523 32.4054 24.0801 34.5016 25.027 36.2379C25.5351 34.57 25.4765 32.7427 25.5885 30.9224C24.8903 30.9667 24.503 30.291 24.0137 30.2391ZM22.6597 28.452C22.6142 28.9581 22.7319 29.1236 22.8337 29.7036C24.4971 30.2236 24.2066 27.4206 22.6597 28.452ZM20.8152 27.8465C20.0985 27.4549 19.0218 27.0284 18.096 26.8518C16.9485 26.6322 17.056 28.417 17.1047 29.4818C17.1429 30.3248 17.5813 31.2163 17.7718 31.7763C17.8611 32.0378 17.8813 32.3153 18.1048 32.3672C18.5 32.4593 19.8035 31.9381 20.175 31.7355C20.9605 31.3072 21.57 30.627 22.2372 30.1702C22.2459 29.948 22.2543 29.7261 22.2632 29.5039C21.8621 29.3039 21.3985 29.1621 20.8096 29.1364C21.2091 28.9354 21.7967 28.9383 22.1607 28.6992C22.1642 28.6101 22.1679 28.5213 22.171 28.4331C21.5065 28.382 21.2532 28.086 20.8152 27.8465ZM13.9693 26.603C13.3745 27.2069 15.6377 28.0301 16.3583 28.0744C16.3543 27.6923 16.5761 27.332 16.5314 27.0579C15.6756 26.9076 14.5508 27.0068 13.9693 26.603ZM21.2971 26.8866C21.2942 26.9455 21.2173 26.9241 21.2048 26.9721C21.9701 27.5703 22.5385 27.6939 23.5803 27.6424C24.05 27.3015 24.4666 26.9029 24.9557 26.5836C23.8297 26.6842 22.4122 27.3835 21.2971 26.8866ZM28.0231 28.9261C27.991 28.2552 27.8147 26.8755 27.4 26.6339C26.5296 26.1258 24.9823 27.6597 24.3268 27.8937C24.3981 28.099 24.5158 28.2616 24.5249 28.524C24.9126 28.4285 25.3846 28.4939 25.7206 28.659C25.332 28.7025 24.9013 28.6996 24.6442 28.8847C24.55 29.157 24.6673 29.528 24.6047 29.906C25.5268 30.1661 26.5801 30.3046 27.7459 30.3388C27.9726 30.0441 28.0499 29.4826 28.0231 28.9261ZM12.9679 27.1871C12.7811 27.054 11.5174 25.4098 11.3443 25.478C9.05768 26.3797 6.91961 27.939 5.00901 29.4138C6.83065 33.3226 7.56599 38.1115 7.69593 42.7273C9.7827 43.7033 11.6156 45.1103 14.4473 45.2572C14.1196 42.9388 13.8205 40.8704 13.6345 38.6876C12.923 38.3877 11.9022 38.7012 11.2364 38.5946C11.2308 37.7922 12.2533 38.2432 12.3385 37.7037C12.4027 37.2955 11.7759 37.2646 11.9799 36.6219C12.5005 36.8111 12.7738 37.2291 13.329 37.386C13.8362 36.2763 13.3219 34.3128 13.395 33.3853C13.4088 33.2111 13.4819 32.4204 13.872 32.5592C14.2173 32.682 13.8523 34.662 13.8902 35.5398C13.9246 36.3486 13.7925 37.1312 14.12 37.6389C16.8563 37.2665 19.6369 37.0257 22.5975 36.9445C21.9462 36.665 21.1724 36.4005 20.3241 35.9223C19.8642 35.6631 18.4145 35.1236 18.2818 34.6868C18.0701 33.9908 18.8374 33.62 18.9686 33.0233C17.5874 33.7766 17.3179 32.3013 16.9912 31.2561C16.6951 30.3094 16.5266 29.6022 16.454 29.0562C15.2641 28.4889 13.992 27.9145 12.9679 27.1871ZM26.8146 25.6769C28.7198 24.7531 29.0632 29.1296 28.3164 30.5394C28.4318 30.9599 28.8288 31.1208 28.9908 31.4989C27.9277 33.4034 26.7468 35.1811 25.662 37.0632C26.469 36.5609 27.6216 36.9734 28.5712 36.5974C28.9183 36.4601 29.1695 35.6655 29.4323 35.0298C30.1552 33.281 30.9141 31.0761 31.2517 29.4072C31.328 29.0269 31.5358 28.1983 31.4892 27.8599C31.4061 27.2539 30.5839 26.8046 30.1657 26.4298C29.3952 25.7377 28.91 25.1286 28.1064 24.4814C27.7805 24.9625 27.0812 25.2857 26.8146 25.6769ZM8.61082 8.78188C7.70302 9.78072 7.89304 11.6523 8.00294 12.9838C9.64382 11.9515 11.8217 13.0654 11.8012 14.8211C12.5846 14.8003 12.0939 13.8427 11.9522 13.2258C11.4891 11.2108 12.7324 9.0216 12.0085 7.17891C10.6031 7.28547 9.44856 7.85951 8.61082 8.78188ZM15.1063 2.98463C13.0512 3.56712 10.4173 5.06044 9.57281 6.90663C10.2267 6.81161 10.6807 6.48182 11.3258 6.44101C11.5696 6.42514 11.889 6.54325 12.1692 6.47358C12.7275 6.33507 13.1988 5.08311 13.62 4.61729C14.0306 4.16238 14.5242 3.96802 14.862 3.55331C15.079 3.4486 15.3998 3.45582 15.4121 3.12995C15.3181 3.02936 15.219 2.95269 15.1063 2.98463ZM25.8045 3.53249C23.6714 2.32898 20.0608 1.42371 17.7917 2.55488C15.9608 3.46777 13.486 4.9782 12.6422 6.8922C13.4304 8.73922 12.4087 10.4316 12.3435 12.3069C12.3088 13.3047 12.8133 14.1758 12.8519 15.262C12.5822 15.707 11.7581 15.7618 11.1877 15.7313C10.9957 14.7704 10.6595 13.6904 9.66999 13.5819C8.26984 13.4288 7.2461 14.5876 7.18249 15.7985C7.10722 17.2226 8.27627 19.5828 9.93327 19.419C10.5734 19.3557 10.7306 18.714 11.428 18.7206C11.806 19.4748 10.8449 19.7117 10.7461 20.2511C10.7203 20.3904 10.8258 20.935 10.8871 21.1903C11.1881 22.4338 11.859 24.0432 12.5194 24.9899C13.3576 26.1907 15.0042 26.3717 16.7758 26.4894C17.0922 25.8078 18.2578 25.8638 19.0173 26.0421C18.1071 25.6816 17.2609 24.8077 16.5596 24.0341C15.7541 23.1466 14.9381 22.1945 14.8968 21.0345C16.4191 23.1464 17.6768 24.9907 20.4448 25.9197C22.5394 26.6221 24.9856 25.5977 26.5949 24.4676C27.2627 23.9979 27.6614 23.2525 28.1361 22.5703C29.9122 20.0155 30.741 16.3688 30.5588 12.8344C30.4837 11.3767 30.487 9.92398 29.9979 8.94327C29.4867 7.91784 27.7578 7.00041 26.7458 7.92794C26.5582 6.93075 27.5874 6.31404 28.7963 6.67289C27.9343 5.56048 27.0296 4.22381 25.8045 3.53249ZM29.7786 36.422C31.4455 35.5934 34.5599 34.1916 35.6049 36.4251C35.9906 37.2483 36.443 38.64 36.6427 39.4899C36.9249 40.6888 36.3368 43.2088 35.1045 43.6112C34.016 43.9665 32.7459 43.9448 31.4348 43.6814C31.2804 43.553 31.1085 43.3292 30.9883 43.0959C30.0521 43.0595 29.1755 43.1461 28.436 43.531C28.506 44.2233 28.0377 44.3344 27.5987 44.477C27.2733 45.7675 28.2498 47.4527 28.0161 48.6295C27.8494 49.4678 26.8179 49.5974 26.0598 49.7542C26.0351 50.2201 26.093 50.609 26.1448 51.0031C25.9714 51.6418 25.1939 52.0054 24.4573 52.0945C22.0336 52.3859 18.3535 52.5169 16.0222 51.6785C15.3716 50.0828 14.8591 48.142 14.3173 46.3199C12.0436 46.5627 10.2046 45.3388 8.47097 44.537C7.87074 44.2587 7.04039 44.1054 6.81616 43.6277C6.59877 43.1651 6.68773 42.2786 6.63379 41.4411C6.49651 39.3023 6.37896 37.2392 5.81414 35.0492C5.56053 34.0665 5.1185 33.1993 4.81012 32.2524C4.52511 31.3748 4.02713 30.2902 3.89725 29.415C3.70468 28.1179 4.92607 28.0458 5.70706 27.4837C6.91437 26.6145 7.86204 26.1338 9.16958 25.3494C9.55686 25.1171 10.7247 24.529 10.8576 24.2582C11.1217 23.7212 10.4043 22.9642 10.2125 22.5433C9.90911 21.8777 9.7509 21.3124 9.70742 20.6557C8.61057 20.4823 7.7791 19.8296 7.27685 19.0935C6.44603 17.8754 5.86985 15.6217 6.58869 13.9074C6.64506 13.7724 6.9262 13.5069 6.96768 13.2996C7.04948 12.8912 6.81373 12.3483 6.79907 11.914C6.72355 9.68591 7.17606 7.76614 8.67604 7.09419C9.28497 4.6684 11.4644 3.86187 13.5178 2.65629C14.2853 2.20572 15.1314 1.91777 16.0053 1.59623C19.1399 0.442593 23.9494 0.65984 26.551 2.62743C27.6542 3.4618 29.4175 5.22348 30.0482 6.49893C31.7141 9.86626 31.5957 15.4939 30.4306 19.59C30.2739 20.14 30.0468 20.9484 29.7296 21.609C29.5084 22.0703 28.821 22.9932 28.9045 23.4005C28.9904 23.8216 30.4718 24.9464 30.7894 25.2527C31.3614 25.8045 32.448 26.5368 32.536 27.2331C32.6307 27.9741 32.2096 28.9877 31.9962 29.7028C31.2831 32.089 30.5872 34.2947 29.7786 36.422Z" fill="white"/>
<path fill-rule="evenodd" clip-rule="evenodd" d="M18.66 19.9041C18.7504 19.7837 19.2476 19.6009 19.9432 19.9358C19.9432 19.9358 19.1187 20.0733 19.1873 21.4479L18.8438 21.379C18.8438 21.379 18.4887 20.1326 18.66 19.9041Z" fill="black"/>
<path fill-rule="evenodd" clip-rule="evenodd" d="M24.6836 31.7189C24.6836 31.9275 24.5143 32.0967 24.3055 32.0967C24.097 32.0967 23.9277 31.9275 23.9277 31.7189C23.9277 31.5103 24.097 31.3409 24.3055 31.3409C24.5143 31.3409 24.6836 31.5103 24.6836 31.7189Z" fill="black"/>
<path fill-rule="evenodd" clip-rule="evenodd" d="M25.0605 33.4709C25.0605 33.6795 24.8913 33.8486 24.6825 33.8486C24.4739 33.8486 24.3047 33.6795 24.3047 33.4709C24.3047 33.2623 24.4739 33.0928 24.6825 33.0928C24.8913 33.0928 25.0605 33.2623 25.0605 33.4709Z" fill="black"/>
<path d="M64.664 15.4202C64.2775 15.4685 63.949 15.5168 63.6785 15.5651C63.408 15.6134 63.1036 15.681 62.7655 15.768C62.3693 15.8743 62.1133 16.0627 61.9974 16.3332C61.8911 16.6037 61.8379 16.9129 61.8379 17.2607V28.5939C61.8379 29.6374 61.6254 30.5939 61.2003 31.4635C60.7848 32.333 60.2099 33.0625 59.4756 33.6519C58.7317 34.2316 57.9008 34.6663 56.9829 34.9562C56.0651 35.2557 55.0844 35.4055 54.0409 35.4055C52.2342 35.4055 50.7753 34.9707 49.6642 34.1011C48.5627 33.2316 48.012 32.0383 48.012 30.5214C48.012 29.6229 48.2632 28.879 48.7656 28.2896C49.2777 27.7002 49.9782 27.4055 50.867 27.4055C51.7076 27.4055 52.3743 27.6519 52.867 28.1447C53.3694 28.6374 53.6206 29.2461 53.6206 29.9707C53.6206 30.5891 53.4032 31.164 52.9685 31.6953C52.5434 32.2171 52.0554 32.7002 51.5047 33.1446V33.333C51.5917 33.5262 51.7801 33.6905 52.0699 33.8258C52.3598 33.961 52.6545 34.0287 52.954 34.0287C54.1134 34.0287 55.0216 33.6132 55.6786 32.7823C56.3452 31.9514 56.6786 30.6954 56.6786 29.0142V17.4056C56.6786 17.0578 56.6254 16.768 56.5192 16.5361C56.4129 16.3042 56.1568 16.1013 55.7511 15.9274C55.4612 15.8018 55.1085 15.6955 54.6931 15.6086C54.2873 15.5216 53.9491 15.4588 53.6786 15.4202V14.2897H64.664V15.4202ZM81.8667 31.391C81.5286 31.9417 81.1179 32.4635 80.6349 32.9562C80.1614 33.4393 79.6204 33.8547 79.0117 34.2026C78.3643 34.5697 77.7073 34.8451 77.0407 35.0286C76.3837 35.2219 75.6252 35.3185 74.7653 35.3185C73.3354 35.3185 72.0987 35.1156 71.0552 34.7098C70.0214 34.304 69.1664 33.7581 68.4901 33.0721C67.8137 32.3862 67.3065 31.5794 66.9683 30.6519C66.6398 29.7147 66.4756 28.7002 66.4756 27.6084C66.4756 26.6229 66.6543 25.6809 67.0118 24.7824C67.379 23.8742 67.8959 23.0674 68.5625 22.3621C69.2195 21.6761 70.0456 21.1206 71.0407 20.6955C72.0456 20.2703 73.1663 20.0578 74.403 20.0578C75.7557 20.0578 76.8668 20.222 77.7363 20.5505C78.6059 20.879 79.3257 21.3331 79.8957 21.9128C80.4464 22.4636 80.8474 23.1157 81.0986 23.8693C81.3498 24.6133 81.4754 25.3959 81.4754 26.2171V27.1592H71.6784C71.6784 29.1398 72.0601 30.6471 72.8233 31.6809C73.5866 32.7147 74.7992 33.2316 76.461 33.2316C77.3692 33.2316 78.1856 32.9852 78.9102 32.4924C79.6349 31.99 80.2532 31.3572 80.7653 30.5939L81.8667 31.391ZM76.3306 25.8838C76.3306 25.3041 76.3016 24.7099 76.2436 24.1012C76.1856 23.4925 76.0842 22.995 75.9392 22.6085C75.775 22.1544 75.5479 21.8114 75.2581 21.5795C74.9779 21.3476 74.6204 21.2317 74.1856 21.2317C73.4417 21.2317 72.8475 21.6085 72.4031 22.3621C71.9586 23.1157 71.7171 24.309 71.6784 25.9418L76.3306 25.8838ZM102.403 34.8547H93.6782V33.7968C93.8618 33.7775 94.084 33.7533 94.3449 33.7243C94.6057 33.6953 94.8038 33.647 94.9391 33.5794C95.142 33.4731 95.2869 33.3185 95.3738 33.1156C95.4608 32.9127 95.5043 32.6132 95.5043 32.2171V25.4345C95.5043 24.449 95.3207 23.7099 94.9535 23.2172C94.5961 22.7148 94.0647 22.4636 93.3594 22.4636C92.9729 22.4636 92.6106 22.5215 92.2724 22.6375C91.9439 22.7534 91.6202 22.9225 91.3014 23.1447C91.0212 23.3379 90.7942 23.536 90.6203 23.7389C90.456 23.9418 90.3159 24.1205 90.2 24.2751V32.0577C90.2 32.3958 90.2483 32.6808 90.3449 32.9127C90.4415 33.1349 90.6009 33.304 90.8232 33.42C90.9777 33.5069 91.171 33.5842 91.4029 33.6519C91.6347 33.7195 91.8618 33.7678 92.084 33.7968V34.8547H83.2725V33.7968C83.5141 33.7775 83.7556 33.7533 83.9971 33.7243C84.2483 33.6857 84.4609 33.6374 84.6348 33.5794C84.944 33.4731 85.1565 33.3089 85.2725 33.0866C85.3884 32.8644 85.4464 32.5746 85.4464 32.2171V23.7824C85.4464 23.4829 85.3691 23.1882 85.2145 22.8983C85.0599 22.6085 84.857 22.3718 84.6058 22.1882C84.4319 22.0723 84.2097 21.9756 83.9392 21.8983C83.6783 21.8211 83.3885 21.7679 83.0696 21.7389V20.681L89.9826 20.3042L90.2 20.5216V22.623H90.2579C90.5285 22.3814 90.857 22.0916 91.2434 21.7534C91.6299 21.4153 91.9874 21.1399 92.3159 20.9273C92.6734 20.6955 93.142 20.4974 93.7217 20.3331C94.3014 20.1689 94.9197 20.0868 95.5767 20.0868C97.1516 20.0868 98.3303 20.536 99.1129 21.4346C99.9052 22.3235 100.301 23.507 100.301 24.9853V32.0866C100.301 32.4441 100.354 32.7292 100.461 32.9417C100.567 33.1543 100.765 33.3234 101.055 33.449C101.21 33.5166 101.398 33.5842 101.62 33.6519C101.852 33.7195 102.113 33.7678 102.403 33.7968V34.8547ZM122.359 34.8547H115.533C114.692 33.3765 113.924 32.1253 113.229 31.1012C112.533 30.0673 111.876 29.1108 111.258 28.2316L110.388 28.9707V32.1301C110.388 32.4779 110.436 32.763 110.533 32.9852C110.639 33.2074 110.837 33.3717 111.127 33.4779C111.301 33.5552 111.504 33.6229 111.736 33.6808C111.968 33.7388 112.2 33.7775 112.432 33.7968V34.8547H103.461V33.7968C103.702 33.7775 103.944 33.7533 104.185 33.7243C104.427 33.6857 104.639 33.6374 104.823 33.5794C105.132 33.4731 105.34 33.3089 105.446 33.0866C105.562 32.8644 105.62 32.5746 105.62 32.2171V16.0578C105.62 15.739 105.548 15.4105 105.403 15.0723C105.267 14.7245 105.065 14.4636 104.794 14.2897C104.61 14.1738 104.335 14.0772 103.968 13.9999C103.601 13.9226 103.267 13.8743 102.968 13.855V12.797L110.171 12.4202L110.388 12.6521V27.6084C111.103 26.9708 111.905 26.2316 112.794 25.3911C113.692 24.5505 114.412 23.8548 114.953 23.3041C115.272 22.9756 115.446 22.7293 115.475 22.565C115.514 22.3911 115.533 22.2848 115.533 22.2462C115.533 22.0723 115.378 21.9273 115.069 21.8114C114.77 21.6955 114.316 21.594 113.707 21.507V20.4781H121.069V21.4781C120.103 21.7486 119.364 22.0046 118.852 22.2462C118.349 22.4781 117.799 22.7921 117.2 23.1882C116.804 23.4491 116.417 23.7244 116.04 24.0143C115.673 24.2945 115.248 24.6471 114.765 25.0722C115.712 26.4442 116.586 27.7147 117.388 28.8838C118.19 30.0529 119.031 31.2896 119.91 32.5939C120.209 33.048 120.581 33.3523 121.026 33.5069C121.47 33.6615 121.915 33.7581 122.359 33.7968V34.8547ZM131.678 34.8547H122.518V33.7968C122.77 33.7775 123.016 33.7533 123.258 33.7243C123.499 33.6953 123.707 33.647 123.881 33.5794C124.19 33.4634 124.407 33.2992 124.533 33.0866C124.659 32.8644 124.721 32.5746 124.721 32.2171V23.7824C124.721 23.4442 124.644 23.1495 124.489 22.8983C124.335 22.6375 124.142 22.4297 123.91 22.2752C123.736 22.1592 123.47 22.0481 123.113 21.9418C122.765 21.8355 122.446 21.7679 122.156 21.7389V20.681L129.258 20.3042L129.475 20.5216V32.0287C129.475 32.3668 129.547 32.6567 129.692 32.8982C129.837 33.1301 130.045 33.304 130.316 33.42C130.509 33.5069 130.721 33.5842 130.953 33.6519C131.185 33.7195 131.427 33.7678 131.678 33.7968V34.8547ZM129.562 15.0868C129.562 15.8211 129.277 16.4491 128.707 16.9709C128.146 17.4829 127.48 17.739 126.707 17.739C125.924 17.739 125.248 17.4829 124.678 16.9709C124.117 16.4491 123.837 15.8211 123.837 15.0868C123.837 14.3525 124.117 13.7245 124.678 13.2028C125.248 12.6811 125.924 12.4202 126.707 12.4202C127.489 12.4202 128.161 12.6811 128.721 13.2028C129.282 13.7245 129.562 14.3525 129.562 15.0868ZM152.141 34.8547H143.417V33.7968C143.6 33.7775 143.823 33.7533 144.083 33.7243C144.344 33.6953 144.542 33.647 144.678 33.5794C144.881 33.4731 145.025 33.3185 145.112 33.1156C145.199 32.9127 145.243 32.6132 145.243 32.2171V25.4345C145.243 24.449 145.059 23.7099 144.692 23.2172C144.335 22.7148 143.803 22.4636 143.098 22.4636C142.712 22.4636 142.349 22.5215 142.011 22.6375C141.683 22.7534 141.359 22.9225 141.04 23.1447C140.76 23.3379 140.533 23.536 140.359 23.7389C140.195 23.9418 140.055 24.1205 139.939 24.2751V32.0577C139.939 32.3958 139.987 32.6808 140.084 32.9127C140.18 33.1349 140.34 33.304 140.562 33.42C140.716 33.5069 140.91 33.5842 141.141 33.6519C141.373 33.7195 141.6 33.7678 141.823 33.7968V34.8547H133.011V33.7968C133.253 33.7775 133.494 33.7533 133.736 33.7243C133.987 33.6857 134.2 33.6374 134.373 33.5794C134.683 33.4731 134.895 33.3089 135.011 33.0866C135.127 32.8644 135.185 32.5746 135.185 32.2171V23.7824C135.185 23.4829 135.108 23.1882 134.953 22.8983C134.799 22.6085 134.596 22.3718 134.344 22.1882C134.171 22.0723 133.948 21.9756 133.678 21.8983C133.417 21.8211 133.127 21.7679 132.808 21.7389V20.681L139.721 20.3042L139.939 20.5216V22.623H139.997C140.267 22.3814 140.596 22.0916 140.982 21.7534C141.369 21.4153 141.726 21.1399 142.055 20.9273C142.412 20.6955 142.881 20.4974 143.46 20.3331C144.04 20.1689 144.658 20.0868 145.315 20.0868C146.89 20.0868 148.069 20.536 148.852 21.4346C149.644 22.3235 150.04 23.507 150.04 24.9853V32.0866C150.04 32.4441 150.093 32.7292 150.199 32.9417C150.306 33.1543 150.504 33.3234 150.794 33.449C150.948 33.5166 151.137 33.5842 151.359 33.6519C151.591 33.7195 151.852 33.7678 152.141 33.7968V34.8547ZM160.214 35.3475C159.277 35.3475 158.359 35.2074 157.46 34.9272C156.571 34.6567 155.88 34.3668 155.388 34.0576L154.953 35.0431H153.823L153.634 29.6374H154.692C154.837 30.0722 155.079 30.5649 155.417 31.1156C155.755 31.6567 156.141 32.1446 156.576 32.5794C157.03 33.0142 157.547 33.3813 158.127 33.6808C158.716 33.9803 159.344 34.1301 160.011 34.1301C160.89 34.1301 161.542 33.961 161.967 33.6229C162.402 33.275 162.62 32.7436 162.62 32.0287C162.62 31.6422 162.523 31.3234 162.33 31.0722C162.136 30.821 161.871 30.6036 161.533 30.42C161.156 30.2268 160.74 30.0625 160.286 29.9273C159.842 29.792 159.291 29.6277 158.634 29.4345C157.977 29.2413 157.412 29.048 156.938 28.8548C156.475 28.6519 155.992 28.3379 155.489 27.9128C155.054 27.536 154.707 27.0819 154.446 26.5505C154.185 26.0191 154.054 25.3862 154.054 24.6519C154.054 23.2896 154.624 22.1882 155.765 21.3476C156.914 20.5071 158.417 20.0868 160.272 20.0868C161.151 20.0868 161.958 20.1786 162.692 20.3621C163.436 20.536 164.059 20.7293 164.562 20.9418L164.866 20.0868H165.967L166.199 25.0288H165.17C164.832 24.0239 164.252 23.1592 163.431 22.4346C162.61 21.7003 161.726 21.3331 160.779 21.3331C160.035 21.3331 159.45 21.4877 159.025 21.7969C158.6 22.1061 158.388 22.536 158.388 23.0867C158.388 23.821 158.697 24.3524 159.315 24.6809C159.943 25.0094 160.818 25.3186 161.938 25.6085C163.668 26.0529 164.934 26.6616 165.735 27.4345C166.537 28.1978 166.938 29.1736 166.938 30.362C166.938 31.9466 166.315 33.1736 165.069 34.0432C163.832 34.9127 162.214 35.3475 160.214 35.3475Z" fill="black"/>
<path d="M64.2304 17.1987C63.8439 17.247 63.5154 17.2953 63.2449 17.3436C62.9744 17.392 62.67 17.4596 62.3319 17.5465C61.9357 17.6528 61.6797 17.8412 61.5638 18.1118C61.4575 18.3823 61.4044 18.6915 61.4044 19.0393V30.3725C61.4044 31.416 61.1918 32.3725 60.7667 33.242C60.3512 34.1116 59.7763 34.841 59.0421 35.4304C58.2981 36.0101 57.4672 36.4449 56.5493 36.7347C55.6315 37.0343 54.6508 37.184 53.6073 37.184C51.8006 37.184 50.3417 36.7492 49.2306 35.8797C48.1291 35.0101 47.5784 33.8169 47.5784 32.3C47.5784 31.4015 47.8296 30.6575 48.332 30.0682C48.8441 29.4788 49.5446 29.1841 50.4334 29.1841C51.274 29.1841 51.9407 29.4305 52.4334 29.9232C52.9358 30.416 53.187 31.0247 53.187 31.7493C53.187 32.3676 52.9697 32.9425 52.5349 33.4739C52.1098 33.9956 51.6218 34.4787 51.0711 34.9232V35.1116C51.1581 35.3048 51.3465 35.4691 51.6363 35.6043C51.9262 35.7396 52.2209 35.8072 52.5204 35.8072C53.6798 35.8072 54.588 35.3918 55.245 34.5609C55.9117 33.7299 56.245 32.4739 56.245 30.7928V19.1842C56.245 18.8364 56.1918 18.5465 56.0856 18.3146C55.9793 18.0828 55.7232 17.8799 55.3175 17.706C55.0276 17.5804 54.675 17.4741 54.2595 17.3871C53.8537 17.3002 53.5155 17.2374 53.245 17.1987V16.0683H64.2304V17.1987ZM81.4331 33.1696C81.095 33.7203 80.6843 34.242 80.2013 34.7348C79.7278 35.2179 79.1868 35.6333 78.5781 35.9811C77.9308 36.3483 77.2738 36.6236 76.6071 36.8072C75.9501 37.0004 75.1916 37.0971 74.3318 37.0971C72.9018 37.0971 71.6651 36.8942 70.6216 36.4884C69.5878 36.0826 68.7328 35.5367 68.0565 34.8507C67.3801 34.1647 66.8729 33.358 66.5347 32.4304C66.2062 31.4933 66.042 30.4788 66.042 29.387C66.042 28.4015 66.2207 27.4595 66.5782 26.5609C66.9454 25.6527 67.4623 24.846 68.1289 24.1407C68.7859 23.4547 69.612 22.8991 70.6072 22.474C71.612 22.0489 72.7327 21.8364 73.9694 21.8364C75.3221 21.8364 76.4332 22.0006 77.3027 22.3291C78.1723 22.6576 78.8921 23.1117 79.4621 23.6914C80.0129 24.2421 80.4138 24.8943 80.665 25.6479C80.9162 26.3919 81.0418 27.1745 81.0418 27.9957V28.9377H71.2448C71.2448 30.9184 71.6265 32.4256 72.3897 33.4594C73.153 34.4932 74.3656 35.0101 76.0274 35.0101C76.9356 35.0101 77.752 34.7638 78.4766 34.271C79.2013 33.7686 79.8196 33.1358 80.3317 32.3725L81.4331 33.1696ZM75.897 27.6624C75.897 27.0827 75.868 26.4885 75.81 25.8798C75.752 25.2711 75.6506 24.7735 75.5057 24.387C75.3414 23.9329 75.1144 23.59 74.8245 23.3581C74.5443 23.1262 74.1868 23.0103 73.7521 23.0103C73.0081 23.0103 72.4139 23.3871 71.9695 24.1407C71.525 24.8943 71.2835 26.0875 71.2448 27.7203L75.897 27.6624ZM101.969 36.6333H93.2446V35.5753C93.4282 35.556 93.6504 35.5319 93.9113 35.5029C94.1721 35.4739 94.3702 35.4256 94.5055 35.358C94.7084 35.2517 94.8533 35.0971 94.9402 34.8942C95.0272 34.6913 95.0707 34.3918 95.0707 33.9956V27.2131C95.0707 26.2276 94.8871 25.4885 94.52 24.9957C94.1625 24.4933 93.6311 24.2421 92.9258 24.2421C92.5393 24.2421 92.177 24.3001 91.8388 24.416C91.5103 24.532 91.1867 24.7011 90.8678 24.9233C90.5876 25.1165 90.3606 25.3146 90.1867 25.5175C90.0224 25.7204 89.8823 25.8991 89.7664 26.0537V33.8362C89.7664 34.1744 89.8147 34.4594 89.9113 34.6913C90.0079 34.9135 90.1673 35.0826 90.3896 35.1985C90.5442 35.2855 90.7374 35.3628 90.9693 35.4304C91.2011 35.498 91.4282 35.5464 91.6504 35.5753V36.6333H82.8389V35.5753C83.0805 35.556 83.322 35.5319 83.5635 35.5029C83.8148 35.4642 84.0273 35.4159 84.2012 35.358C84.5104 35.2517 84.723 35.0874 84.8389 34.8652C84.9548 34.643 85.0128 34.3531 85.0128 33.9956V25.561C85.0128 25.2614 84.9355 24.9668 84.7809 24.6769C84.6263 24.387 84.4234 24.1503 84.1722 23.9668C83.9983 23.8508 83.7761 23.7542 83.5056 23.6769C83.2447 23.5996 82.9549 23.5465 82.636 23.5175V22.4595L89.549 22.0827L89.7664 22.3001V24.4015H89.8244C90.0949 24.16 90.4234 23.8701 90.8098 23.532C91.1963 23.1938 91.5538 22.9185 91.8823 22.7059C92.2398 22.474 92.7084 22.276 93.2881 22.1117C93.8678 21.9475 94.4861 21.8653 95.1431 21.8653C96.718 21.8653 97.8967 22.3146 98.6793 23.2131C99.4716 24.102 99.8677 25.2856 99.8677 26.7638V33.8652C99.8677 34.2227 99.9209 34.5077 100.027 34.7203C100.133 34.9328 100.331 35.1019 100.621 35.2275C100.776 35.2952 100.964 35.3628 101.187 35.4304C101.418 35.498 101.679 35.5464 101.969 35.5753V36.6333ZM121.925 36.6333H115.099C114.259 35.1551 113.491 33.9039 112.795 32.8797C112.099 31.8459 111.442 30.8894 110.824 30.0102L109.955 30.7493V33.9087C109.955 34.2565 110.003 34.5415 110.1 34.7638C110.206 34.986 110.404 35.1502 110.694 35.2565C110.868 35.3338 111.071 35.4014 111.302 35.4594C111.534 35.5174 111.766 35.556 111.998 35.5753V36.6333H103.027V35.5753C103.269 35.556 103.51 35.5319 103.752 35.5029C103.993 35.4642 104.206 35.4159 104.389 35.358C104.699 35.2517 104.906 35.0874 105.013 34.8652C105.129 34.643 105.187 34.3531 105.187 33.9956V17.8364C105.187 17.5176 105.114 17.1891 104.969 16.8509C104.834 16.5031 104.631 16.2422 104.36 16.0683C104.177 15.9524 103.902 15.8557 103.534 15.7784C103.167 15.7011 102.834 15.6528 102.534 15.6335V14.5756L109.737 14.1987L109.955 14.4306V29.387C110.67 28.7493 111.471 28.0102 112.36 27.1696C113.259 26.3291 113.979 25.6334 114.52 25.0827C114.839 24.7542 115.012 24.5078 115.041 24.3436C115.08 24.1697 115.099 24.0634 115.099 24.0247C115.099 23.8508 114.945 23.7059 114.636 23.59C114.336 23.474 113.882 23.3726 113.273 23.2856V22.2566H120.636V23.2566C119.669 23.5272 118.93 23.7832 118.418 24.0247C117.916 24.2566 117.365 24.5706 116.766 24.9668C116.37 25.2276 115.984 25.503 115.607 25.7928C115.24 26.073 114.814 26.4257 114.331 26.8508C115.278 28.2228 116.153 29.4933 116.955 30.6623C117.756 31.8314 118.597 33.0681 119.476 34.3725C119.776 34.8266 120.148 35.1309 120.592 35.2855C121.037 35.4401 121.481 35.5367 121.925 35.5753V36.6333ZM131.244 36.6333H122.085V35.5753C122.336 35.556 122.582 35.5319 122.824 35.5029C123.066 35.4739 123.273 35.4256 123.447 35.358C123.756 35.242 123.974 35.0778 124.099 34.8652C124.225 34.643 124.288 34.3531 124.288 33.9956V25.561C124.288 25.2228 124.21 24.9281 124.056 24.6769C123.901 24.416 123.708 24.2083 123.476 24.0537C123.302 23.9378 123.037 23.8267 122.679 23.7204C122.331 23.6141 122.012 23.5465 121.723 23.5175V22.4595L128.824 22.0827L129.041 22.3001V33.8072C129.041 34.1454 129.114 34.4353 129.259 34.6768C129.404 34.9087 129.611 35.0826 129.882 35.1985C130.075 35.2855 130.288 35.3628 130.52 35.4304C130.751 35.498 130.993 35.5464 131.244 35.5753V36.6333ZM129.128 16.8654C129.128 17.5997 128.843 18.2277 128.273 18.7494C127.713 19.2615 127.046 19.5175 126.273 19.5175C125.491 19.5175 124.814 19.2615 124.244 18.7494C123.684 18.2277 123.404 17.5997 123.404 16.8654C123.404 16.1311 123.684 15.5031 124.244 14.9813C124.814 14.4596 125.491 14.1987 126.273 14.1987C127.056 14.1987 127.727 14.4596 128.288 14.9813C128.848 15.5031 129.128 16.1311 129.128 16.8654ZM151.708 36.6333H142.983V35.5753C143.167 35.556 143.389 35.5319 143.65 35.5029C143.911 35.4739 144.109 35.4256 144.244 35.358C144.447 35.2517 144.592 35.0971 144.679 34.8942C144.766 34.6913 144.809 34.3918 144.809 33.9956V27.2131C144.809 26.2276 144.626 25.4885 144.259 24.9957C143.901 24.4933 143.37 24.2421 142.664 24.2421C142.278 24.2421 141.916 24.3001 141.577 24.416C141.249 24.532 140.925 24.7011 140.606 24.9233C140.326 25.1165 140.099 25.3146 139.925 25.5175C139.761 25.7204 139.621 25.8991 139.505 26.0537V33.8362C139.505 34.1744 139.553 34.4594 139.65 34.6913C139.747 34.9135 139.906 35.0826 140.128 35.1985C140.283 35.2855 140.476 35.3628 140.708 35.4304C140.94 35.498 141.167 35.5464 141.389 35.5753V36.6333H132.578V35.5753C132.819 35.556 133.061 35.5319 133.302 35.5029C133.553 35.4642 133.766 35.4159 133.94 35.358C134.249 35.2517 134.462 35.0874 134.578 34.8652C134.693 34.643 134.751 34.3531 134.751 33.9956V25.561C134.751 25.2614 134.674 24.9668 134.52 24.6769C134.365 24.387 134.162 24.1503 133.911 23.9668C133.737 23.8508 133.515 23.7542 133.244 23.6769C132.983 23.5996 132.693 23.5465 132.375 23.5175V22.4595L139.288 22.0827L139.505 22.3001V24.4015H139.563C139.833 24.16 140.162 23.8701 140.548 23.532C140.935 23.1938 141.292 22.9185 141.621 22.7059C141.978 22.474 142.447 22.276 143.027 22.1117C143.606 21.9475 144.225 21.8653 144.882 21.8653C146.457 21.8653 147.635 22.3146 148.418 23.2131C149.21 24.102 149.606 25.2856 149.606 26.7638V33.8652C149.606 34.2227 149.659 34.5077 149.766 34.7203C149.872 34.9328 150.07 35.1019 150.36 35.2275C150.515 35.2952 150.703 35.3628 150.925 35.4304C151.157 35.498 151.418 35.5464 151.708 35.5753V36.6333ZM159.78 37.126C158.843 37.126 157.925 36.986 157.027 36.7058C156.138 36.4352 155.447 36.1454 154.954 35.8362L154.519 36.8217H153.389L153.201 31.416H154.258C154.403 31.8507 154.645 32.3435 154.983 32.8942C155.321 33.4353 155.708 33.9232 156.143 34.358C156.597 34.7927 157.114 35.1599 157.693 35.4594C158.283 35.7589 158.911 35.9087 159.577 35.9087C160.456 35.9087 161.109 35.7396 161.534 35.4014C161.969 35.0536 162.186 34.5222 162.186 33.8072C162.186 33.4208 162.089 33.1019 161.896 32.8507C161.703 32.5995 161.437 32.3821 161.099 32.1986C160.722 32.0053 160.307 31.8411 159.853 31.7058C159.408 31.5706 158.857 31.4063 158.2 31.2131C157.543 31.0198 156.978 30.8266 156.505 30.6334C156.041 30.4305 155.558 30.1165 155.056 29.6913C154.621 29.3145 154.273 28.8604 154.012 28.329C153.751 27.7976 153.621 27.1648 153.621 26.4305C153.621 25.0682 154.191 23.9668 155.331 23.1262C156.481 22.2856 157.983 21.8653 159.838 21.8653C160.717 21.8653 161.524 21.9571 162.258 22.1407C163.002 22.3146 163.626 22.5078 164.128 22.7204L164.432 21.8653H165.534L165.766 26.8073H164.737C164.398 25.8025 163.819 24.9378 162.998 24.2131C162.176 23.4788 161.292 23.1117 160.345 23.1117C159.601 23.1117 159.017 23.2663 158.592 23.5755C158.167 23.8846 157.954 24.3146 157.954 24.8653C157.954 25.5996 158.263 26.131 158.882 26.4595C159.51 26.788 160.384 27.0972 161.505 27.387C163.234 27.8315 164.5 28.4401 165.302 29.2131C166.104 29.9764 166.505 30.9522 166.505 32.1406C166.505 33.7251 165.882 34.9522 164.635 35.8217C163.398 36.6913 161.78 37.126 159.78 37.126Z" fill="white"/>
</g>
</svg>
