<svg width="54" height="54" viewBox="0 0 54 54" fill="none" xmlns="http://www.w3.org/2000/svg">
<g opacity="0.3">
<rect x="0.890625" y="0.859497" width="52.2932" height="52.2932" fill="white"/>
<path d="M18.8673 47.3524C17.0827 47.3524 15.6094 46.8959 14.4473 45.9828C13.2956 45.0698 12.4759 43.8351 11.9883 42.2787L16.1593 41.2827C16.2527 41.8533 16.5536 42.3513 17.062 42.7767C17.5704 43.1918 18.1099 43.3993 18.6806 43.3993C19.0748 43.3993 19.4951 43.2903 19.9412 43.0725C20.3977 42.8546 20.7246 42.507 20.9217 42.0297C21.0462 41.7288 21.1188 41.3605 21.1396 40.9247C21.1603 40.4889 21.1707 39.9857 21.1707 39.415V24.4741H25.4662V39.415C25.4662 40.131 25.461 40.7535 25.4507 41.2827C25.4507 41.8118 25.3988 42.3098 25.295 42.7767C25.2017 43.2333 25.0097 43.7106 24.7192 44.2086C24.0863 45.3084 23.2614 46.1073 22.2446 46.6054C21.2278 47.1034 20.102 47.3524 18.8673 47.3524ZM38.5923 47.3524C36.9322 47.3524 35.4329 47.0619 34.0945 46.4808C32.7664 45.8894 31.6718 45.049 30.8106 43.9596C29.9598 42.8598 29.4202 41.5524 29.192 40.0376L33.612 39.3839C33.9233 40.6705 34.5666 41.6614 35.5419 42.3565C36.5172 43.0517 37.6274 43.3993 38.8724 43.3993C39.5676 43.3993 40.242 43.2903 40.8957 43.0725C41.5494 42.8546 42.0837 42.5329 42.4987 42.1075C42.9241 41.6821 43.1368 41.1581 43.1368 40.5356C43.1368 40.3073 43.1005 40.0895 43.0279 39.8819C42.9656 39.6641 42.8567 39.4617 42.7011 39.275C42.5454 39.0882 42.3223 38.9118 42.0318 38.7458C41.7517 38.5798 41.3937 38.4294 40.9579 38.2945L35.1372 36.5825C34.7014 36.458 34.193 36.2816 33.612 36.0533C33.0413 35.8251 32.4862 35.4982 31.9467 35.0728C31.4072 34.6474 30.9558 34.0872 30.5927 33.392C30.2399 32.6864 30.0635 31.7993 30.0635 30.7306C30.0635 29.2262 30.4422 27.9759 31.1997 26.9798C31.9571 25.9838 32.9687 25.2419 34.2345 24.7543C35.5004 24.2666 36.9011 24.028 38.4367 24.0383C39.9826 24.0591 41.3626 24.3237 42.5765 24.8321C43.7905 25.3405 44.8073 26.0823 45.627 27.0577C46.4467 28.0226 47.0381 29.2054 47.4012 30.6061L42.8256 31.3843C42.6596 30.658 42.3535 30.0458 41.9073 29.5478C41.4612 29.0498 40.9268 28.6711 40.3043 28.4117C39.6921 28.1523 39.0488 28.0122 38.3744 27.9915C37.7104 27.9707 37.0826 28.0641 36.4912 28.2716C35.9102 28.4687 35.4329 28.7593 35.0594 29.1432C34.6963 29.5271 34.5147 29.9836 34.5147 30.5127C34.5147 31.0004 34.6651 31.3999 34.966 31.7111C35.2669 32.012 35.6456 32.2559 36.1022 32.4426C36.5587 32.6294 37.0256 32.785 37.5029 32.9095L41.3937 33.9678C41.9748 34.1235 42.6181 34.331 43.3236 34.5904C44.0291 34.8394 44.7036 35.1922 45.3468 35.6487C46.0005 36.0948 46.5349 36.6862 46.9499 37.4229C47.3753 38.1596 47.588 39.0934 47.588 40.2243C47.588 41.4279 47.3338 42.481 46.8254 43.3837C46.3273 44.276 45.6529 45.0179 44.8021 45.6093C43.9513 46.1903 42.9864 46.6261 41.9073 46.9166C40.8386 47.2071 39.7336 47.3524 38.5923 47.3524Z" fill="black"/>
</g>
</svg>
