<svg width="206" height="55" viewBox="0 0 206 55" fill="none" xmlns="http://www.w3.org/2000/svg">
<path d="M0.404297 36.848V18.1341C0.404297 3.01904 2.57718 0.860107 17.7888 0.860107H36.6779C51.889 0.860107 54.061 3.01904 54.061 18.134V36.8478C54.061 51.9628 51.8881 54.1217 36.6766 54.1217H17.7886C2.57771 54.1218 0.404297 51.9629 0.404297 36.848Z" fill="white" fill-opacity="0.3"/>
<path d="M11.987 10.9032C9.35037 27.4956 10.7298 43.0293 10.7298 43.0293H18.9737C18.1894 38.8871 15.3754 19.963 17.7163 19.9007C18.9708 20.0985 24.7031 35.9553 24.7031 35.9553C24.7031 35.9553 25.9654 35.7992 27.2356 35.7992C28.5057 35.7992 29.7686 35.9553 29.7686 35.9553C29.7686 35.9553 35.5014 20.0982 36.7554 19.9007C39.0976 19.963 36.283 38.8871 35.4993 43.0293H43.7435C43.7435 43.0293 45.1235 27.4945 42.4854 10.9022H34.8528C33.3999 10.9191 27.8723 20.5422 27.2369 20.5422C26.6016 20.5422 21.0738 10.9202 19.6211 10.9033L11.987 10.9032Z" fill="black"/>
<path d="M25.6104 41.0936C25.6104 42.1632 24.7368 43.0293 23.6591 43.0293C22.5814 43.0293 21.709 42.1621 21.709 41.0936C21.709 40.0251 22.5826 39.1566 23.6591 39.1566C24.7355 39.1566 25.6104 40.0237 25.6104 41.0936Z" fill="black"/>
<path d="M32.7654 41.0936C32.7654 42.1632 31.8919 43.0293 30.8153 43.0293C29.7388 43.0293 28.8652 42.1621 28.8652 41.0936C28.8652 40.0251 29.7377 39.1566 30.8157 39.1566C31.8937 39.1566 32.7663 40.0237 32.7663 41.0936H32.7654Z" fill="black"/>
<path opacity="0.1" d="M42.0959 11.4518C43.2857 19.4456 43.5637 27.1176 43.543 32.8323C43.5205 38.6777 43.1832 42.4755 43.1832 42.4755H36.2425L35.4967 43.0301H43.7417C43.7417 43.0301 45.1214 27.4956 42.4844 10.9032L42.0959 11.4518ZM20.2493 11.2499C22.4154 13.6414 26.1625 19.9882 26.6762 19.9882C25.3028 18.245 21.93 12.6832 20.2493 11.2499ZM17.1585 19.3467C14.8174 19.4092 17.6318 38.3333 18.4162 42.4755H11.219L10.7305 43.0301H18.9747C18.1943 38.9092 15.4048 20.153 17.682 19.9016C17.4702 19.5852 17.2868 19.367 17.1582 19.3467H17.1585ZM36.1982 19.3467C34.9438 19.5444 29.2114 35.4016 29.2114 35.4016C29.2114 35.4016 27.9491 35.2455 26.679 35.2455C25.9272 35.2455 25.2804 35.2915 24.8427 35.3319L24.7064 35.9563C24.7064 35.9563 25.9688 35.8004 27.2388 35.8004C28.5089 35.8004 29.7717 35.9565 29.7717 35.9565C29.7717 35.9565 35.4605 20.2032 36.7412 19.9016C36.6034 19.5546 36.433 19.353 36.1998 19.3467H36.1982Z" fill="black"/>
<path opacity="0.3" d="M11.9884 10.9031C9.34992 27.4954 10.7298 43.0293 10.7298 43.0293L11.2152 42.4876C10.9667 38.8224 10.3031 25.5687 12.5463 11.457H20.1789C20.3404 11.4588 20.5563 11.5902 20.808 11.8036C20.3082 11.2518 19.8927 10.9054 19.6201 10.9021L11.9884 10.9031ZM34.8524 10.9031C33.3996 10.9202 27.8719 20.5429 27.2369 20.5429C27.4958 20.8718 27.7063 21.0987 27.7957 21.0987C28.431 21.0987 33.9584 11.4759 35.4113 11.4587H42.1473L42.4853 10.904L34.8524 10.9031ZM18.2415 20.4563C20.0957 23.2204 24.7043 35.9564 24.7043 35.9564L24.8391 35.3351C23.7012 32.2383 19.3657 20.628 18.2764 20.4563C18.2646 20.4566 18.2531 20.455 18.2415 20.4563ZM37.3152 20.4563C38.5588 23.6048 36.2047 39.3033 35.4987 43.029L36.2472 42.4497C37.2022 36.8903 39.5005 20.5138 37.3161 20.4555L37.3152 20.4563Z" fill="white" fill-opacity="0.3"/>
<path d="M65.3249 33.8381H63.4707V21.2064H75.6284V33.8381H73.7742V23.0488H65.3268L65.3249 33.8381Z" fill="white" fill-opacity="0.3"/>
<path d="M68.6191 22.1266H70.4771V33.838H68.6191V22.1266ZM91.588 23.0487H82.0951V32.0087H91.588V33.853H80.2409V21.1914H91.588V23.0487Z" fill="white" fill-opacity="0.3"/>
<path d="M81.166 26.6141H86.3789V28.4584H81.166V26.6141ZM97.427 33.8381H95.5709V21.2064H107.61V33.8381H105.752V23.0488H97.427V33.8381Z" fill="white" fill-opacity="0.3"/>
<path d="M100.662 22.1266H102.52V33.838H100.662V22.1266ZM123.751 23.0487H114.375V32.0087H123.749V33.853H112.523V21.1914H123.749L123.751 23.0487ZM130.427 33.838H128.573V21.2063H140.492V33.838H138.634V23.0487H130.427V33.838Z" fill="white" fill-opacity="0.3"/>
<path d="M130.104 26.6141H139.563V28.4583H130.104V26.6141ZM156.455 23.0674H146.363V32.0274H156.455V33.8716H144.508V21.2101H156.455V23.0674ZM160.737 21.1746H162.595V33.838H160.737V21.1746ZM171.359 21.1149H173.217V33.838H171.359V21.1149Z" fill="white" fill-opacity="0.3"/>
<path d="M161.666 26.6141H171.55V28.4583H161.666V26.6141ZM188.379 23.0674H178.525V32.0274H188.379V33.8716H176.669V21.2101H188.379V23.0674Z" fill="white" fill-opacity="0.3"/>
<path d="M177.598 26.6141H182.987V28.4584H177.598V26.6141ZM202.364 33.868H192.905V21.2064H202.413L202.682 21.4622C204.785 23.4688 205.798 25.6117 205.7 27.8368C205.55 31.2827 202.737 33.5712 202.616 33.6645L202.364 33.868ZM194.758 32.0237H201.678C202.242 31.4731 203.756 29.8509 203.841 27.7397C203.906 26.1624 203.167 24.5664 201.648 23.0469H194.756L194.758 32.0237Z" fill="white" fill-opacity="0.3"/>
</svg>
