<svg width="53" height="52" viewBox="0 0 53 52" fill="none" xmlns="http://www.w3.org/2000/svg">
<g clip-path="url(#clip0_139_874)">
<path d="M3.90754 38.9339C4.14191 39.3505 4.48044 39.663 4.8971 39.8974L24.9486 51.4596C25.7819 51.9543 26.7975 51.9543 27.6048 51.4596L47.6563 39.8974C48.4897 39.4286 48.9844 38.5433 48.9844 37.5797V14.4554C48.9844 13.4919 48.4897 12.6065 47.6563 12.1377L27.6048 0.575551C26.7715 0.0807732 25.7559 0.0807732 24.9486 0.575551L4.8971 12.1377C4.03775 12.6065 3.54297 13.4919 3.54297 14.4554V37.6058C3.54297 38.0745 3.64713 38.5172 3.90754 38.9339Z" fill="white" fill-opacity="0.2"/>
<path d="M19.8456 34.8455C19.8456 36.2777 18.6998 37.4235 17.2675 37.4235C15.8353 37.4235 14.6895 36.2777 14.6895 34.8455V17.1637C14.6895 15.7835 15.9134 14.6637 17.606 14.6637C18.83 14.6637 20.2622 15.1585 21.1216 16.2262L21.9028 17.1637L32.6838 30.0539V17.2157C32.6838 15.7835 33.8296 14.6377 35.2618 14.6377C36.6941 14.6377 37.8399 15.7835 37.8399 17.2157V34.8976C37.8399 36.2777 36.6159 37.3975 34.9233 37.3975C33.6993 37.3975 32.2671 36.9027 31.4077 35.835L19.8456 22.0333V34.8455Z" fill="black"/>
</g>
<defs>
<clipPath id="clip0_139_874">
<rect width="51.6542" height="51.6542" fill="white" transform="translate(0.435547 0.204834)"/>
</clipPath>
</defs>
</svg>
