<svg width="168" height="52" viewBox="0 0 168 52" fill="none" xmlns="http://www.w3.org/2000/svg">
<g opacity="0.3">
<path d="M68.8394 33.7967H73.1661L77.5768 19.0985H73.3746L70.7631 29.5261L67.9617 19.0985H64.3105L61.4997 29.5261L58.9131 19.0985H54.7109L59.0967 33.7967H63.4234L66.1516 24.3808L68.8394 33.7967ZM77.804 26.4896C77.804 30.9003 80.8077 34.1624 85.5359 34.1624C89.1933 34.1624 91.159 31.968 91.7208 30.9314L89.1606 28.9907C88.7404 29.6101 87.5887 30.7898 85.5888 30.7898C83.4224 30.7898 81.8489 29.3844 81.7649 27.4172H92.1146C92.141 27.134 92.141 26.8569 92.141 26.5721C92.141 21.7677 89.5544 18.7281 85.0021 18.7281C80.8108 18.7281 77.8055 22.0431 77.8055 26.4865L77.804 26.4896ZM81.8816 24.8866C82.0497 23.2026 83.2294 21.9077 85.0597 21.9077C86.8339 21.9077 88.1226 23.0875 88.2066 24.8866H81.8816ZM93.6056 33.7982H97.263V32.2823C97.6567 32.7601 99.1197 34.15 101.621 34.15C105.823 34.15 108.817 30.975 108.817 26.4492C108.817 21.8968 106.063 18.7235 101.845 18.7235C99.3174 18.7235 97.8528 20.1288 97.4871 20.6331V13.463H93.6118V33.7967L93.6056 33.7982ZM97.3719 26.4912C97.3719 23.7364 99.003 22.1645 101.138 22.1645C103.389 22.1645 104.905 23.9388 104.905 26.4912C104.905 29.1027 103.333 30.7353 101.138 30.7353C98.7773 30.7353 97.3719 28.821 97.3719 26.4912ZM110.328 39.054H114.204V32.2777C114.571 32.7555 116.029 34.1453 118.562 34.1453C122.764 34.1453 125.534 30.9703 125.534 26.4196C125.534 21.9249 122.555 18.7188 118.337 18.7188C115.835 18.7188 114.372 20.1242 113.98 20.6284V19.0814H110.322V39.04L110.328 39.054ZM114.095 26.4071C114.095 24.0726 115.5 22.163 117.861 22.163C120.056 22.163 121.628 23.794 121.628 26.4071C121.628 28.9673 120.112 30.7338 117.861 30.7338C115.726 30.7338 114.095 29.1619 114.095 26.4071ZM126.237 29.2444C126.237 32.3337 128.765 34.1624 131.747 34.1624C133.436 34.1624 134.558 33.6581 135.319 32.8395L135.571 33.7936H139.001V24.4866C139.001 21.1981 137.596 18.7281 132.874 18.7281C130.818 18.7547 128.812 19.3582 127.083 20.4697L128.546 23.1155C129.641 22.5552 130.989 22.0774 132.452 22.0774C134.167 22.0774 135.121 22.9489 135.121 24.2438V25.1979C134.586 24.8306 133.432 24.3854 131.943 24.3854C128.513 24.3808 126.236 26.3464 126.236 29.2412L126.237 29.2444ZM130.113 29.1292C130.113 27.923 131.151 27.0779 132.64 27.0779C134.13 27.0779 135.2 27.8405 135.2 29.1292C135.2 30.3665 134.13 31.1524 132.673 31.1524C131.216 31.1524 130.113 30.34 130.113 29.1292ZM148.415 30.7322C145.972 30.7322 144.213 28.958 144.213 26.4632C144.213 24.1022 145.76 22.1614 148.263 22.1614C149.92 22.1614 151.064 22.9738 151.693 23.5668L152.789 20.3047C151.835 19.5763 150.314 18.7328 148.151 18.7328C143.681 18.7328 140.335 22.0214 140.335 26.4912C140.335 30.961 143.597 34.164 148.179 34.164C150.314 34.164 151.919 33.2675 152.758 32.5921L151.719 29.4171C151.069 29.9463 149.889 30.7338 148.4 30.7338L148.415 30.7322ZM154.233 33.7951H158.108V26.2048L163.026 33.7951H167.579L162.013 25.7535L167.185 19.0923H162.827L158.107 25.2772V13.4755H154.231L154.233 33.7951Z" fill="white"/>
<path d="M44.8635 40.0187L24.273 51.668V42.5976L37.1035 35.538L44.8635 40.0187ZM46.2735 38.7425V14.3857L38.7408 18.7388V34.3956L46.2735 38.7425ZM1.87099 40.0187L22.4614 51.668V42.5976L9.62781 35.5364L1.87099 40.0187ZM0.460938 38.7425V14.3857L7.99365 18.7388V34.3956L0.460938 38.7425ZM1.34494 12.806L22.4645 0.859497V9.62639L8.82474 17.1311L1.34494 12.806ZM45.3895 12.806L24.2699 0.859497V9.62639L37.9097 17.1249L45.3895 12.806Z" fill="white"/>
<path d="M22.4675 40.9303L9.80664 33.9656V20.1764L22.4675 27.485V40.9303ZM24.276 40.9303L36.9369 33.9734V20.1779L24.276 27.4865V40.9303ZM10.6642 18.5842L23.3733 11.5994L36.0824 18.5842L23.3733 25.9209L10.6642 18.5842Z" fill="white"/>
</g>
</svg>
