<svg width="56" height="45" viewBox="0 0 56 45" fill="none" xmlns="http://www.w3.org/2000/svg">
<g opacity="0.3">
<path d="M8.97756 31.105L6.11095 32.1522L5.95703 40.6802L15.8803 37.0551C12.4767 35.9118 9.99124 33.9003 8.97756 31.105Z" fill="#DFDFDF"/>
<path d="M10.4775 22.085L0.53125 25.7185L6.11067 32.152L8.97729 31.1047C7.96657 28.3176 8.58987 25.167 10.4775 22.085Z" fill="#CCCCCC"/>
<path d="M27.2163 9.77962C14.5507 14.4065 6.38529 23.9541 8.97837 31.1048L54.8445 14.3493C52.2514 7.19861 39.8819 5.15271 27.2163 9.77962Z" fill="white"/>
<path d="M36.6067 35.6745C49.2723 31.0476 57.4531 21.5424 54.8446 14.3494L8.97852 31.1048C11.5869 38.2979 23.9412 40.3014 36.6067 35.6745Z" fill="white"/>
<path d="M54.8446 14.3494L8.97852 31.1048C9.87664 33.5815 13.3015 34.8017 18.1071 34.8017C22.7921 34.8017 28.7893 33.6428 35.0417 31.3587C47.7073 26.7318 56.6184 19.2406 54.8446 14.3494Z" fill="#CCCCCC"/>
<path d="M45.7145 10.6526C41.0295 10.6526 35.0323 11.8115 28.7798 14.0956C16.1143 18.7225 7.20318 26.2137 8.97692 31.1049L54.843 14.3495C53.9449 11.8728 50.52 10.6526 45.7145 10.6526Z" fill="#DFDFDF"/>
<path d="M43.1822 41.1318H43.1819C41.8324 41.1318 39.8416 39.9128 37.2645 37.5088C34.2158 34.6647 30.7234 30.499 27.4306 25.7791C24.138 21.0594 21.4324 16.3408 19.8122 12.4924C18.047 8.29869 17.7953 5.7201 19.0641 4.82825C19.3423 4.6329 19.6777 4.53394 20.0608 4.53394C21.0929 4.53394 23.1039 5.30234 26.8225 8.96321L26.9039 9.04321L26.8929 9.157C26.8674 9.41999 26.844 9.68534 26.8231 9.94578L26.7817 10.4629L26.4168 10.0954C22.4101 6.0588 20.6464 5.62301 20.074 5.62301C19.9107 5.62301 19.7807 5.65621 19.6876 5.72172C19.1372 6.10843 19.1018 8.00247 20.8131 12.0678C22.4044 15.8476 25.0706 20.4948 28.3208 25.1534C31.571 29.8125 35.01 33.9166 38.0042 36.7099C41.2331 39.7219 42.6881 40.0471 43.1638 40.0471C43.3281 40.0471 43.4616 40.0118 43.5606 39.9422C44.1411 39.5343 44.1418 37.5053 42.2333 33.1296L42.1457 32.9287L42.3375 32.8237C42.5293 32.7187 42.7148 32.6153 42.8888 32.5164L43.1186 32.3858L43.2245 32.6285C44.5777 35.729 45.8427 39.6697 44.184 40.8357C43.9043 41.0321 43.5673 41.1318 43.1822 41.1318ZM43.1819 40.6535H43.1822L43.182 40.8926L43.1819 40.6535Z" fill="white"/>
<path d="M36.9132 35.5439L36.894 35.7822C36.5738 39.7443 35.7307 44.5076 33.5324 44.7004C33.4882 44.7044 33.4423 44.7064 33.3964 44.7064C31.9031 44.7064 30.4903 42.5668 29.1973 38.3469C27.9739 34.3546 27.0246 28.9943 26.5242 23.2535C26.0238 17.5139 26.0313 12.0696 26.5453 7.9237C27.1056 3.40592 28.1723 1.04659 29.7155 0.911159C29.7612 0.906953 29.8084 0.904785 29.8551 0.904785C30.9385 0.904785 32.5712 2.13146 34.2426 7.84509L33.1512 8.05573C32.5932 6.14639 31.985 4.59348 31.3812 3.5264C30.8227 2.53939 30.2797 1.99584 29.852 1.99584C29.838 1.99584 29.8238 1.99642 29.8099 1.99762C29.141 2.05637 28.1668 3.67894 27.6237 8.05842C27.1188 12.13 27.1128 17.4926 27.6066 23.1586C28.1007 28.8254 29.0345 34.1055 30.2359 38.0263C30.7739 39.7823 31.3641 41.2295 31.9426 42.2115C32.476 43.1171 32.9922 43.6158 33.3961 43.6158C33.41 43.6158 33.4238 43.6152 33.4376 43.614C34.0777 43.5579 35.2838 41.8694 35.7915 35.9288L36.9132 35.5439Z" fill="white"/>
</g>
</svg>
