<svg width="56" height="55" viewBox="0 0 56 55" fill="none" xmlns="http://www.w3.org/2000/svg">
<g opacity="0.3" clip-path="url(#clip0_139_1064)">
<path d="M8.41653 17.6931C7.48243 17.6931 6.68874 18.0188 6.03716 18.6709C5.38559 19.3229 5.05957 20.1049 5.05957 21.0173V35.0319C5.05957 35.9655 5.38547 36.7586 6.03716 37.4105C6.68874 38.0625 7.48198 38.3878 8.41619 38.3878C9.35063 38.3878 10.1382 38.0624 10.779 37.4105C11.4203 36.7586 11.7407 35.9655 11.7407 35.0319V21.0173C11.7407 20.1046 11.4146 19.3225 10.763 18.6709C10.1113 18.0191 9.32883 17.6931 8.41653 17.6931Z" fill="white"/>
<path d="M13.0449 40.0181C13.0449 41.0174 13.3926 41.8648 14.0878 42.5602C14.7831 43.2548 15.6302 43.6024 16.63 43.6024H19.0417L19.0746 51.0005C19.0746 51.935 19.4005 52.7275 20.0522 53.3796C20.7038 54.0315 21.4862 54.3573 22.3986 54.3573C23.3333 54.3573 24.126 54.0315 24.778 53.3796C25.4299 52.7275 25.7556 51.935 25.7556 51.0005V43.6024H30.2528V51.0005C30.2528 51.935 30.5786 52.7275 31.2301 53.3796C31.8825 54.0315 32.6755 54.3573 33.61 54.3573C34.5436 54.3573 35.3366 54.0315 35.9882 53.3796C36.6398 52.7275 36.9652 51.935 36.9652 51.0005V43.6024H39.4099C40.387 43.6024 41.2237 43.2555 41.9189 42.5602C42.6143 41.8648 42.962 41.0174 42.962 40.0181V18.3124H13.0449V40.0181Z" fill="white"/>
<path d="M35.4016 5.11338L37.7149 0.843781C37.8673 0.561371 37.8125 0.344141 37.5524 0.192205C37.2695 0.0617304 37.0524 0.126911 36.9008 0.387861L34.5538 4.68965C32.4898 3.77713 30.3068 3.32087 28.0034 3.32087C25.7005 3.32087 23.5168 3.77713 21.4526 4.68965L19.1061 0.387975C18.9545 0.127025 18.7369 0.0618446 18.4545 0.19232C18.1937 0.344255 18.1397 0.561485 18.2917 0.843895L20.6057 5.11338C18.2589 6.30821 16.3909 7.97584 15 10.116C13.6095 12.2562 12.9141 14.5974 12.9141 17.1391H43.0609C43.0609 14.5974 42.3656 12.2561 40.975 10.116C39.5838 7.97584 37.7271 6.30809 35.4016 5.11338ZM22.023 11.3216C21.7733 11.5716 21.4747 11.6965 21.127 11.6965C20.7793 11.6965 20.4862 11.5717 20.2469 11.3216C20.0082 11.072 19.8885 10.7731 19.8885 10.4255C19.8885 10.0778 20.0082 9.77898 20.2469 9.52899C20.4858 9.279 20.7794 9.15434 21.127 9.15434C21.4743 9.15434 21.773 9.27888 22.023 9.52899C22.273 9.77898 22.3979 10.0778 22.3979 10.4255C22.3979 10.7732 22.273 11.0716 22.023 11.3216ZM35.7605 11.3216C35.5211 11.5716 35.2277 11.6965 34.8801 11.6965C34.5324 11.6965 34.2343 11.5717 33.9842 11.3216C33.7342 11.072 33.6097 10.7731 33.6097 10.4255C33.6097 10.0778 33.7342 9.77898 33.9842 9.52899C34.2342 9.279 34.5324 9.15434 34.8801 9.15434C35.2277 9.15434 35.5211 9.27888 35.7605 9.52899C35.9989 9.77898 36.1189 10.0778 36.1189 10.4255C36.1189 10.7732 35.9992 11.0716 35.7605 11.3216Z" fill="white"/>
<path d="M49.9686 18.6545C49.317 18.0137 48.524 17.6931 47.5896 17.6931C46.6774 17.6931 45.8952 18.0137 45.2437 18.6545C44.5918 19.2956 44.2656 20.0833 44.2656 21.0173V35.0319C44.2656 35.9655 44.5918 36.7586 45.2437 37.4105C45.8952 38.0625 46.6774 38.3878 47.5896 38.3878C48.524 38.3878 49.317 38.0624 49.9686 37.4105C50.621 36.7586 50.9467 35.9655 50.9467 35.0319V21.0173C50.9467 20.0832 50.621 19.2955 49.9686 18.6545Z" fill="white"/>
</g>
<defs>
<clipPath id="clip0_139_1064">
<rect width="54.23" height="54.23" fill="white" transform="translate(0.890625 0.126831)"/>
</clipPath>
</defs>
</svg>
