<svg width="175" height="55" viewBox="0 0 175 55" fill="none" xmlns="http://www.w3.org/2000/svg">
<g opacity="0.3">
<path d="M54.5925 15.1468C54.5904 14.6014 54.5824 14.0561 54.5684 13.5109C54.5356 12.3232 54.4667 11.1245 54.2555 9.94985C54.0542 8.77164 53.6785 7.63012 53.1406 6.56302C52.0512 4.41915 50.3115 2.67611 48.1713 1.58412C47.106 1.0461 45.9666 0.670154 44.7906 0.468692C43.6155 0.25722 42.4186 0.187095 41.2326 0.155319C40.6867 0.13998 40.1429 0.133405 39.598 0.130118C38.9514 0.126831 38.3048 0.126831 37.6571 0.126831H17.3859C16.7382 0.126831 16.0927 0.126831 15.4461 0.130118C14.9012 0.134501 14.3564 0.141075 13.8115 0.155319C13.515 0.162989 13.2174 0.173946 12.9198 0.188191C12.0282 0.230923 11.1343 0.309814 10.2536 0.468692C9.37538 0.621715 8.51627 0.869321 7.69121 1.2072C6.30889 1.78026 5.05271 2.62019 3.99429 3.67912C3.15011 4.52403 2.44416 5.4969 1.9024 6.56192C1.35098 7.64667 1.00197 8.75553 0.788621 9.94876C0.577462 11.1245 0.50744 12.3232 0.475712 13.5098C0.460395 14.0577 0.45383 14.6022 0.450548 15.1468C0.447266 15.7955 0.447266 16.443 0.447266 17.0906V37.3919C0.447266 38.0405 0.447266 38.6881 0.450548 39.3356C0.454924 39.8813 0.461489 40.427 0.475712 40.9715C0.508534 42.1604 0.577462 43.3591 0.788621 44.5326C0.989469 45.7115 1.36486 46.8537 1.9024 47.9216C2.99203 50.0661 4.73263 51.8093 6.87393 52.9005C7.95598 53.4516 9.06319 53.8012 10.2547 54.0159C11.4275 54.2274 12.6255 54.2975 13.8115 54.3293C14.3564 54.3436 14.9012 54.3501 15.4461 54.3534C16.0916 54.3578 16.7382 54.3567 17.3859 54.3567H37.6571C38.3026 54.3567 38.9503 54.3578 39.597 54.3534C40.1418 54.3501 40.6856 54.3436 41.2304 54.3293C42.4175 54.2964 43.6155 54.2274 44.7884 54.0159C45.9644 53.8145 47.1038 53.4385 48.1691 52.9005C50.3099 51.8089 52.05 50.0658 53.1395 47.9216C53.691 46.8369 54.04 45.7269 54.2544 44.5348C54.4656 43.3602 54.5356 42.1615 54.5673 40.9726C54.5816 40.4281 54.5881 39.8824 54.5914 39.3367C54.5958 38.6892 54.5947 38.0416 54.5947 37.393V17.0906C54.5947 16.443 54.5958 15.7955 54.5925 15.1468Z" fill="white"/>
<path d="M43.3542 33.6008L43.3509 33.5975C43.41 33.3926 43.4712 33.1899 43.5248 32.9806C45.7721 24.0133 40.2864 13.4112 31.0052 7.82971C35.073 13.3521 36.8706 20.0403 35.2722 25.8892C35.1299 26.4118 34.9592 26.9126 34.77 27.3991C34.5055 27.2285 34.2347 27.068 33.9582 26.918C33.9582 26.918 24.7241 21.2094 14.7176 11.1103C14.455 10.8451 20.0534 19.1243 26.4079 25.8475C23.4144 24.1656 15.0709 18.0855 9.78979 13.2447C10.4386 14.3295 11.211 15.3726 12.0589 16.3773C16.4692 21.9786 22.2219 28.8903 29.1124 34.1979C24.2711 37.1651 17.4298 37.3952 10.618 34.2012C8.95034 33.4168 7.36422 32.4692 5.88281 31.3721C8.92871 36.2169 13.3655 40.0267 18.6114 42.3018C25.0578 45.0761 31.4669 44.8876 36.2404 42.3478L36.2371 42.3533C36.259 42.339 36.2864 42.3248 36.3093 42.3094C36.5052 42.2054 36.6999 42.0969 36.8892 41.984C39.1835 40.7919 43.7141 39.5822 46.1452 44.3201C46.7415 45.4804 48.0073 39.3346 43.3553 33.6019L43.3542 33.6008Z" fill="black"/>
<path d="M75.1457 35.32C75.5691 39.0815 79.1522 41.548 84.1281 41.548C88.8556 41.548 92.2648 39.0826 92.2648 35.6684C92.2648 32.7286 90.1992 30.9338 85.4465 29.7384L80.8437 28.566C74.2255 26.9224 71.2398 23.9312 71.2398 18.9983C71.2398 12.9182 76.5395 8.7074 84.0789 8.7074C91.3928 8.7074 96.593 12.9434 96.7681 19.0487H91.9158C91.5427 15.3101 88.5066 13.0179 83.9541 13.0179C79.4498 13.0179 76.3152 15.3353 76.3152 18.7233C76.3152 21.3639 78.2561 22.9352 83.0329 24.1558L86.8655 25.1529C94.2801 26.9718 97.3151 29.8622 97.3151 35.0701C97.3151 41.6992 92.0646 45.8596 83.7047 45.8596C75.9421 45.8596 70.6424 41.7233 70.2441 35.3189L75.1457 35.32ZM128.134 45.2613H123.258L117.56 25.3775H117.462L111.788 45.2613H106.912L99.6969 19.2218H104.423L109.45 40.1279H109.549L115.222 19.2218H119.801L125.523 40.1279H125.622L130.649 19.2218H135.326L128.134 45.2613ZM138.474 12.2202C138.474 10.6512 139.769 9.38016 141.336 9.38016C142.929 9.38016 144.222 10.6512 144.222 12.2202C144.222 13.7904 142.929 15.0855 141.336 15.0855C140.578 15.0812 139.853 14.7779 139.317 14.2415C138.782 13.7051 138.478 12.9788 138.474 12.2202ZM138.972 19.2218H143.724V45.2613H138.972V19.2218ZM174.758 23.0601V19.2218H169.733V12.9927H165.004V19.2218H155.921V16.9296C155.945 14.6122 156.84 13.6403 158.981 13.6403C159.677 13.6403 160.374 13.7159 160.946 13.8156V10.0759C160.115 9.94577 159.275 9.8791 158.434 9.87652C153.357 9.87652 151.217 11.9956 151.217 16.854V19.2207H147.585V23.059H151.217V45.2602H155.945V23.0601H165.005V38.4329C165.005 43.4665 166.92 45.4092 171.897 45.4092C172.967 45.4092 174.186 45.3347 174.734 45.2109V41.3233C174.139 41.3969 173.541 41.4386 172.942 41.4482C170.727 41.4482 169.733 40.4018 169.733 38.0592V23.0601H174.758Z" fill="white"/>
</g>
</svg>
