<svg width="53" height="54" viewBox="0 0 53 54" fill="none" xmlns="http://www.w3.org/2000/svg">
<g opacity="0.3">
<rect x="0.183594" y="0.859497" width="52.2932" height="52.2932" fill="white"/>
<path d="M15.0314 47.0259V28.5676H7.96557V24.6145H26.3304V28.5676H19.2646V47.0259H15.0314ZM37.2981 47.4928C35.638 47.4928 34.1387 47.2023 32.8002 46.6212C31.4721 46.0298 30.3775 45.1894 29.5163 44.0999C28.6655 43.0001 28.126 41.6928 27.8977 40.178L32.3178 39.5243C32.629 40.8109 33.2723 41.8017 34.2476 42.4969C35.2229 43.1921 36.3331 43.5397 37.5782 43.5397C38.2734 43.5397 38.9478 43.4307 39.6014 43.2128C40.2551 42.9949 40.7895 42.6733 41.2045 42.2479C41.6299 41.8225 41.8426 41.2985 41.8426 40.676C41.8426 40.4477 41.8063 40.2298 41.7336 40.0223C41.6714 39.8044 41.5624 39.6021 41.4068 39.4153C41.2512 39.2286 41.0281 39.0522 40.7376 38.8862C40.4574 38.7202 40.0995 38.5697 39.6637 38.4349L33.843 36.7229C33.4072 36.5984 32.8988 36.422 32.3178 36.1937C31.7471 35.9654 31.192 35.6386 30.6525 35.2132C30.1129 34.7878 29.6616 34.2275 29.2984 33.5324C28.9457 32.8268 28.7693 31.9397 28.7693 30.871C28.7693 29.3665 29.148 28.1163 29.9054 27.1202C30.6628 26.1242 31.6745 25.3823 32.9403 24.8946C34.2061 24.407 35.6068 24.1684 37.1424 24.1787C38.6884 24.1995 40.0684 24.4641 41.2823 24.9725C42.4963 25.4809 43.5131 26.2227 44.3327 27.198C45.1524 28.163 45.7438 29.3458 46.107 30.7465L41.5313 31.5247C41.3653 30.7984 41.0592 30.1862 40.6131 29.6882C40.1669 29.1902 39.6326 28.8114 39.01 28.5521C38.3979 28.2927 37.7546 28.1526 37.0802 28.1318C36.4161 28.1111 35.7884 28.2045 35.197 28.412C34.616 28.6091 34.1387 28.8996 33.7652 29.2835C33.402 29.6674 33.2204 30.124 33.2204 30.6531C33.2204 31.1408 33.3709 31.5402 33.6718 31.8515C33.9727 32.1524 34.3514 32.3962 34.8079 32.583C35.2644 32.7698 35.7313 32.9254 36.2086 33.0499L40.0995 34.1082C40.6805 34.2638 41.3238 34.4714 42.0293 34.7307C42.7349 34.9798 43.4093 35.3325 44.0526 35.7891C44.7063 36.2352 45.2406 36.8266 45.6556 37.5633C46.081 38.3 46.2937 39.2338 46.2937 40.3647C46.2937 41.5683 46.0395 42.6214 45.5311 43.5241C45.0331 44.4164 44.3587 45.1583 43.5079 45.7497C42.6571 46.3307 41.6921 46.7665 40.6131 47.057C39.5444 47.3475 38.4394 47.4928 37.2981 47.4928Z" fill="black"/>
</g>
</svg>
