<svg width="20" height="20" viewBox="0 0 20 20" fill="none" xmlns="http://www.w3.org/2000/svg">
<g clip-path="url(#clip0_397_137)">
<path d="M3.39045 15H16.4371C16.8386 15 17.2343 14.9033 17.5905 14.7181C17.9468 14.5328 18.2531 14.2645 18.4838 13.9358C18.7144 13.6071 18.8624 13.2277 18.9154 12.8297C18.9683 12.4316 18.9246 12.0267 18.7879 11.6492L16.4113 5.07833C16.0054 3.61809 15.1323 2.33099 13.9257 1.41389C12.7191 0.496791 11.2452 0.000176732 9.72961 8.47759e-10C8.15189 -2.46602e-05 6.62132 0.53799 5.39062 1.52521C4.15993 2.51244 3.30269 3.88984 2.96045 5.43L1.00211 11.7633C0.886813 12.1372 0.860893 12.533 0.926437 12.9188C0.991982 13.3045 1.14716 13.6695 1.37949 13.9844C1.61182 14.2992 1.91481 14.5551 2.26408 14.7315C2.61335 14.9079 2.99916 14.9999 3.39045 15Z" fill="white"/>
<path d="M5.9165 16.6665C6.10777 17.6084 6.61878 18.4552 7.36296 19.0635C8.10713 19.6717 9.03871 20.004 9.99984 20.004C10.961 20.004 11.8925 19.6717 12.6367 19.0635C13.3809 18.4552 13.8919 17.6084 14.0832 16.6665H5.9165Z" fill="white"/>
</g>
<defs>
<clipPath id="clip0_397_137">
<rect width="20" height="20" fill="white"/>
</clipPath>
</defs>
</svg>
