<svg width="21" height="22" viewBox="0 0 21 22" fill="none" xmlns="http://www.w3.org/2000/svg">
<path d="M15.9658 14.3641C15.2798 13.6867 14.4233 13.6867 13.7416 14.3641C13.2215 14.8797 12.7015 15.3954 12.1903 15.9198C12.0504 16.064 11.9324 16.0946 11.762 15.9984C11.4255 15.8149 11.0672 15.6663 10.7438 15.4653C9.2362 14.517 7.9733 13.2978 6.8546 11.9257C6.29963 11.244 5.80583 10.5142 5.4606 9.69266C5.39069 9.5266 5.4038 9.41735 5.53926 9.28189C6.05928 8.77935 6.56619 8.2637 7.07747 7.74805C7.78976 7.03139 7.78976 6.19237 7.0731 5.47133C6.6667 5.06056 6.2603 4.65853 5.8539 4.24776C5.43438 3.82825 5.01924 3.40437 4.59536 2.98923C3.90929 2.32063 3.05279 2.32063 2.37108 2.9936C1.8467 3.50925 1.34416 4.038 0.811029 4.54491C0.31723 5.01249 0.0681458 5.58495 0.015707 6.25355C-0.0673211 7.34165 0.199243 8.36858 0.575054 9.36929C1.34416 11.4406 2.51529 13.2803 3.93551 14.9671C5.8539 17.2482 8.14372 19.053 10.8225 20.3552C12.0286 20.9408 13.2784 21.3909 14.6374 21.4652C15.5726 21.5176 16.3854 21.2816 17.0365 20.5519C17.4822 20.0537 17.9847 19.5992 18.4567 19.1229C19.1559 18.415 19.1602 17.5585 18.4654 16.8593C17.6351 16.0246 16.8005 15.1944 15.9658 14.3641Z" fill="#39AE41"/>
<path d="M15.131 10.8813L16.7435 10.606C16.4901 9.12457 15.7909 7.78301 14.729 6.71676C13.6059 5.59369 12.1857 4.88577 10.6213 4.66727L10.394 6.28851C11.6045 6.45893 12.7057 7.00517 13.5753 7.87478C14.3969 8.69632 14.9344 9.73636 15.131 10.8813Z" fill="#39AE41"/>
<path d="M17.6527 3.87195C15.7911 2.01037 13.4357 0.83487 10.8356 0.472168L10.6084 2.0934C12.8545 2.40803 14.8909 3.42622 16.499 5.02998C18.0241 6.55507 19.0248 8.4822 19.3875 10.6016L21 10.3263C20.5761 7.87041 19.4181 5.64176 17.6527 3.87195Z" fill="#39AE41"/>
</svg>
