<svg width="20" height="24" viewBox="0 0 20 24" fill="none" xmlns="http://www.w3.org/2000/svg">
<path d="M12.2222 0.472168H7.77778C3.47009 0.472168 0 4.06371 0 8.52217V11.9722C0 15.086 1.7265 17.9168 4.44444 19.2437V23.1006C4.44444 23.2952 4.61538 23.4722 4.83761 23.4722C4.92308 23.4722 5.02564 23.4368 5.09402 23.366L8.30769 20.0222H12.2222C16.5299 20.0222 20 16.4306 20 11.9722V8.52217C20 4.06371 16.5299 0.472168 12.2222 0.472168ZM15.1453 15.5637L14.0342 16.7137C12.8376 17.9168 9.76068 16.5368 7.04274 13.6706C4.32479 10.8045 3.11111 7.56678 4.25641 6.36371L5.36752 5.21371C5.81197 4.78909 6.51282 4.80678 6.95727 5.24909L8.5641 6.98294C8.97436 7.44294 8.97436 8.13294 8.52991 8.59294C8.41026 8.71678 8.2735 8.78755 8.11966 8.85832C7.55556 9.03524 7.26496 9.6014 7.40171 10.1852C7.67521 11.4591 9.23077 13.0514 10.4103 13.3699C10.9573 13.5114 11.5214 13.1929 11.7094 12.6445C11.8974 12.0783 12.5128 11.7599 13.094 11.9545C13.265 12.0076 13.4017 12.1314 13.5385 12.2376L15.1453 13.9714C15.5556 14.396 15.5556 15.1037 15.1453 15.5637ZM10.9915 5.93909C10.8718 5.93909 10.7692 5.93909 10.6667 5.97448C10.4786 6.00986 10.2735 5.85063 10.2564 5.62063C10.2393 5.39063 10.3761 5.21371 10.5812 5.19601C10.7179 5.16063 10.8547 5.16063 10.9915 5.16063C13.0427 5.16063 14.6838 6.89448 14.7179 8.98217C14.7179 9.12371 14.7179 9.26525 14.6838 9.40678C14.6496 9.6014 14.4957 9.77832 14.2735 9.74294C14.0513 9.70755 13.9145 9.54832 13.9487 9.31832C13.9487 9.19448 13.9829 9.08832 13.9829 8.98217C13.9658 7.31909 12.6325 5.93909 10.9915 5.93909ZM13.2137 9.01755C13.1795 9.21217 13.0256 9.38909 12.8034 9.35371C12.6325 9.31832 12.4786 9.17678 12.4786 9.01755C12.4786 8.18601 11.812 7.49601 11.0085 7.49601C10.8205 7.5314 10.6154 7.35448 10.5983 7.14217C10.5641 6.94755 10.735 6.73524 10.9231 6.71755H10.9744C12.2564 6.71755 13.2137 7.74371 13.2137 9.01755ZM16.0513 10.2383C16.0171 10.4329 15.8291 10.5745 15.641 10.5568C15.453 10.5391 15.3162 10.3268 15.3333 10.1322C15.3333 10.0968 15.3333 10.0968 15.3333 10.0791C15.4188 9.74294 15.453 9.38909 15.453 9.01755C15.453 6.48755 13.453 4.41755 11.0085 4.41755C10.8889 4.41755 10.7863 4.41755 10.6838 4.41755C10.4957 4.45294 10.2906 4.27601 10.2906 4.06371C10.2564 3.86909 10.4274 3.65678 10.6154 3.65678C10.7521 3.65678 10.8889 3.6214 11.0085 3.6214C13.8632 3.6214 16.2051 6.02755 16.2051 8.99986C16.188 9.40678 16.1368 9.84909 16.0513 10.2383Z" fill="url(#paint0_linear_87_16292)"/>
<defs>
<linearGradient id="paint0_linear_87_16292" x1="1.74735" y1="3.37141" x2="17.1555" y2="18.2585" gradientUnits="userSpaceOnUse">
<stop stop-color="#7E57C2"/>
<stop offset="1" stop-color="#4527A0"/>
</linearGradient>
</defs>
</svg>
