<svg width="23" height="24" viewBox="0 0 23 24" fill="none" xmlns="http://www.w3.org/2000/svg">
<g clip-path="url(#clip0_87_16263)">
<path fill-rule="evenodd" clip-rule="evenodd" d="M14.2457 13.3166C13.8105 13.4945 13.5324 14.1759 13.2503 14.5241C13.1056 14.7024 12.9331 14.7303 12.7108 14.6409C11.077 13.99 9.82454 12.8997 8.92295 11.3962C8.77022 11.163 8.79762 10.9789 8.9818 10.7623C9.25403 10.4416 9.59633 10.0773 9.67 9.64512C9.83352 8.68919 8.58379 5.72389 6.93336 7.06751C2.18422 10.9375 14.8558 21.2017 17.1428 15.6503C17.7896 14.0767 14.9672 13.021 14.2457 13.3166ZM11.5001 21.4632C9.82049 21.4632 8.16782 21.0166 6.72088 20.1712C6.48864 20.0351 6.20787 19.9992 5.94823 20.0697L2.80414 20.9326L3.89934 18.5199C4.04848 18.1915 4.0103 17.8092 3.79961 17.5172C2.62805 15.8933 2.00858 13.976 2.00858 11.9721C2.00858 6.73823 6.26627 2.48053 11.5001 2.48053C16.734 2.48053 20.9912 6.73823 20.9912 11.9721C20.9912 17.2055 16.7335 21.4632 11.5001 21.4632ZM11.5001 0.472076C5.15895 0.472076 0.000120226 5.6309 0.000120226 11.9721C0.000120226 14.2029 0.633519 16.3452 1.83698 18.2045L0.089964 22.0521C-0.0713056 22.4074 -0.0124579 22.8234 0.240003 23.1194C0.434066 23.3463 0.714827 23.4721 1.00457 23.4721C1.65235 23.4721 5.18455 22.3621 6.08344 22.1154C7.7451 23.0044 9.60891 23.4721 11.5001 23.4721C17.8408 23.4721 23.0001 18.3128 23.0001 11.9721C23.0001 5.6309 17.8408 0.472076 11.5001 0.472076Z" fill="#39AE41"/>
</g>
<defs>
<clipPath id="clip0_87_16263">
<rect width="23" height="23" fill="white" transform="translate(0 0.472168)"/>
</clipPath>
</defs>
</svg>
