<svg width="27" height="18" viewBox="0 0 27 18" fill="none" xmlns="http://www.w3.org/2000/svg">
<path d="M10.977 8.19904C11.5307 7.92053 11.9493 7.61033 12.2361 7.27511C12.7465 6.67139 12.9983 5.87088 12.9983 4.87858C12.9983 3.91297 12.7465 3.08744 12.2428 2.39533C11.4023 1.26794 9.97971 0.690908 7.96842 0.660889H0V16.9263H7.42974C8.26695 16.9263 9.04244 16.8546 9.75957 16.7078C10.4767 16.5594 11.0971 16.2875 11.6224 15.8906C12.0894 15.5454 12.4796 15.1168 12.7898 14.6115C13.2801 13.8476 13.5253 12.9821 13.5253 12.0181C13.5253 11.0842 13.3102 10.2887 12.8832 9.63495C12.4513 8.9812 11.8175 8.50256 10.977 8.19904ZM3.2871 3.48603H6.87606C7.6649 3.48603 8.31531 3.57108 8.82564 3.73952C9.41601 3.98468 9.7112 4.48333 9.7112 5.24382C9.7112 5.92592 9.48606 6.40289 9.04077 6.67139C8.59215 6.9399 8.01011 7.07499 7.29633 7.07499H3.2871V3.48603ZM8.96239 13.8176C8.56547 14.0094 8.00678 14.1045 7.29132 14.1045H3.2871V9.7667H7.34636C8.05348 9.77171 8.60383 9.8651 8.99741 10.0402C9.69786 10.3571 10.0464 10.9375 10.0464 11.7863C10.0464 12.787 9.68619 13.4607 8.96239 13.8176Z" fill="white"/>
<path d="M24.1174 1.41989H17.0513V3.44542H24.1174V1.41989Z" fill="white"/>
<path d="M26.5724 9.41039C26.4257 8.46812 26.1021 7.63926 25.5985 6.9238C25.0464 6.11328 24.346 5.51957 23.4938 5.14433C22.6449 4.76742 21.6893 4.57897 20.6253 4.58064C18.8391 4.58064 17.3882 5.13933 16.2658 6.24837C15.1468 7.36075 14.5864 8.9601 14.5864 11.0448C14.5864 13.2679 15.2052 14.8739 16.4493 15.8595C17.6884 16.8468 19.1193 17.3388 20.7437 17.3388C22.7099 17.3388 24.2393 16.7534 25.3316 15.586C26.0304 14.8489 26.4257 14.1234 26.5124 13.4113H23.257C23.0685 13.7632 22.85 14.0383 22.5999 14.2385C22.1463 14.6054 21.5559 14.7888 20.8321 14.7888C20.1433 14.7888 19.5596 14.6371 19.0726 14.3352C18.2688 13.8516 17.8485 13.0043 17.7951 11.7986H26.6791C26.6925 10.7596 26.6591 9.96074 26.5724 9.41039ZM17.8752 9.72225C17.9919 8.94009 18.2754 8.31969 18.7257 7.86107C19.176 7.40411 19.8131 7.17396 20.6286 7.17229C21.3808 7.17229 22.0095 7.38743 22.5215 7.81937C23.0268 8.25465 23.312 8.88672 23.3704 9.72225H17.8752Z" fill="white"/>
</svg>
