<svg width="20" height="20" viewBox="0 0 20 20" fill="none" xmlns="http://www.w3.org/2000/svg">
<g clip-path="url(#clip0_70_325)">
<path d="M5.04731 6.81152H0.952637V19.1079H5.04731V6.81152Z" fill="white"/>
<path d="M18.4857 7.93459C17.6255 6.99567 16.4879 6.52612 15.0735 6.52612C14.5524 6.52612 14.0786 6.59023 13.6526 6.71852C13.2266 6.84673 12.8668 7.02661 12.5731 7.25826C12.2795 7.4899 12.0457 7.70495 11.8721 7.90339C11.707 8.09188 11.5456 8.31144 11.3881 8.55981V6.81131H7.30566L7.31818 7.40698C7.32657 7.80417 7.3307 9.02836 7.3307 11.0797C7.3307 13.1313 7.32244 15.8072 7.30584 19.1079H11.3881V12.246C11.3881 11.8242 11.4334 11.4893 11.5246 11.2409C11.6984 10.8188 11.9608 10.4654 12.3125 10.1802C12.6643 9.89453 13.1005 9.75185 13.6218 9.75185C14.333 9.75185 14.8564 9.99792 15.1914 10.4901C15.5264 10.9823 15.6939 11.6627 15.6939 12.5313V19.1075H19.7762V12.0601C19.7759 10.2483 19.3461 8.87321 18.4857 7.93459Z" fill="white"/>
<path d="M3.02468 0.892303C2.33818 0.892303 1.78193 1.09305 1.3558 1.49414C0.92971 1.89533 0.716797 2.40182 0.716797 3.01409C0.716797 3.6178 0.923582 4.12255 1.3372 4.52778C1.75068 4.93304 2.29672 5.13579 2.97501 5.13579H2.99982C3.69475 5.13579 4.25527 4.93322 4.68122 4.52778C5.10718 4.12255 5.31601 3.61797 5.30779 3.01409C5.29953 2.40186 5.08845 1.89533 4.67496 1.49414C4.26152 1.09287 3.71123 0.892303 3.02468 0.892303Z" fill="white"/>
</g>
<defs>
<clipPath id="clip0_70_325">
<rect width="19.059" height="19.059" fill="white" transform="translate(0.716797 0.47052)"/>
</clipPath>
</defs>
</svg>
