<svg width="20" height="20" viewBox="0 0 20 20" fill="none" xmlns="http://www.w3.org/2000/svg">
<g clip-path="url(#clip0_70_308)">
<path d="M14.582 0.47052H5.84121C2.99644 0.47052 0.682129 2.78483 0.682129 5.6296V14.3705C0.682129 17.2151 2.99644 19.5294 5.84121 19.5294H14.5821C17.4267 19.5294 19.7411 17.2151 19.7411 14.3705V5.6296C19.7411 2.78483 17.4267 0.47052 14.582 0.47052ZM10.2116 15.2113C7.33804 15.2113 5.00031 12.8735 5.00031 9.99998C5.00031 7.12643 7.33804 4.7887 10.2116 4.7887C13.0851 4.7887 15.4229 7.12643 15.4229 9.99998C15.4229 12.8735 13.0851 15.2113 10.2116 15.2113ZM15.5475 6.01769C14.6983 6.01769 14.0076 5.327 14.0076 4.47782C14.0076 3.62864 14.6983 2.9378 15.5475 2.9378C16.3967 2.9378 17.0875 3.62864 17.0875 4.47782C17.0875 5.327 16.3967 6.01769 15.5475 6.01769Z" fill="white"/>
<path d="M10.2116 5.90631C7.95433 5.90631 6.11768 7.74281 6.11768 10.0003C6.11768 12.2576 7.95433 14.0942 10.2116 14.0942C12.4691 14.0942 14.3056 12.2576 14.3056 10.0003C14.3056 7.74281 12.4691 5.90631 10.2116 5.90631Z" fill="white"/>
<path d="M15.5477 4.05548C15.3147 4.05548 15.125 4.24518 15.125 4.47823C15.125 4.71127 15.3147 4.90097 15.5477 4.90097C15.7809 4.90097 15.9706 4.71142 15.9706 4.47823C15.9706 4.24503 15.7809 4.05548 15.5477 4.05548Z" fill="white"/>
</g>
<defs>
<clipPath id="clip0_70_308">
<rect width="19.059" height="19.059" fill="white" transform="translate(0.682129 0.47052)"/>
</clipPath>
</defs>
</svg>
