<svg width="20" height="20" viewBox="0 0 20 20" fill="none" xmlns="http://www.w3.org/2000/svg">
<path fill-rule="evenodd" clip-rule="evenodd" d="M12.1465 11.1141C11.7858 11.2615 11.5554 11.8262 11.3216 12.1147C11.2018 12.2625 11.0588 12.2856 10.8746 12.2115C9.52072 11.6721 8.4829 10.7687 7.73581 9.52278C7.60924 9.32959 7.63195 9.17697 7.78457 8.99754C8.01015 8.73176 8.2938 8.42987 8.35485 8.07177C8.49035 7.27963 7.45476 4.82244 6.08713 5.93583C2.15175 9.14272 12.652 17.6482 14.5471 13.0479C15.0832 11.744 12.7444 10.8692 12.1465 11.1141ZM9.87138 17.8648C8.47955 17.8648 7.11006 17.4948 5.91106 16.7942C5.71861 16.6814 5.48595 16.6517 5.2708 16.7101L2.66545 17.4252L3.57299 15.4258C3.69657 15.1537 3.66493 14.837 3.49035 14.595C2.51953 13.2493 2.00621 11.6606 2.00621 10C2.00621 5.66297 5.53435 2.13483 9.87138 2.13483C14.2084 2.13483 17.7362 5.66297 17.7362 10C17.7362 14.3367 14.208 17.8648 9.87138 17.8648ZM9.87138 0.47052C4.61676 0.47052 0.341897 4.74539 0.341897 10C0.341897 11.8486 0.866762 13.6238 1.86401 15.1645L0.416346 18.3528C0.282709 18.6473 0.331474 18.992 0.540676 19.2373C0.701485 19.4253 0.934139 19.5295 1.17424 19.5295C1.71101 19.5295 4.63798 18.6097 5.38284 18.4053C6.75978 19.142 8.30422 19.5295 9.87138 19.5295C15.1256 19.5295 19.4009 15.2542 19.4009 10C19.4009 4.74539 15.1256 0.47052 9.87138 0.47052Z" fill="white"/>
</svg>
