<svg width="28" height="28" viewBox="0 0 28 28" fill="none" xmlns="http://www.w3.org/2000/svg">
<path d="M16.2094 3.09698H11.8483C7.63979 3.09698 4.21631 6.52046 4.21631 10.7289V13.9998C4.21631 16.9572 5.91987 19.6365 8.57743 20.8985V24.5428C8.57743 24.859 8.97266 25.0225 9.19616 24.799L12.3634 21.6345H16.2094C20.4179 21.6345 23.8414 18.211 23.8414 13.9998V10.7289C23.8414 6.52046 20.4179 3.09698 16.2094 3.09698ZM19.0659 17.4017L17.962 18.4811C16.8009 19.6177 13.7699 18.3203 11.0987 15.5919C8.42752 12.8607 7.25546 9.80248 8.35937 8.66586L9.46328 7.58649C9.86941 7.18853 10.559 7.19671 11.0142 7.60284L12.606 9.23008C13.173 9.81066 12.9331 10.7837 12.1835 11.0072C11.6656 11.1735 11.314 11.7432 11.4803 12.2611C11.7556 13.4713 13.2902 14.984 14.435 15.2839C14.9501 15.4038 15.528 15.123 15.7079 14.6079C15.945 13.8638 16.9235 13.643 17.4932 14.2263L19.0823 15.8508C19.4802 16.2567 19.4748 16.9465 19.0659 17.4017ZM15.021 8.27581C14.912 8.27581 14.8029 8.28127 14.6966 8.29489C14.4977 8.3167 14.3178 8.17224 14.2959 7.97326C14.2741 7.77429 14.4186 7.59439 14.6176 7.57258C14.7511 7.55623 14.8874 7.55078 15.021 7.55078C17.0244 7.55078 18.6543 9.18075 18.6543 11.1841C18.6543 11.3177 18.6489 11.454 18.6325 11.5875C18.6107 11.7838 18.4281 11.931 18.2319 11.9092C18.0356 11.8874 17.8884 11.7047 17.9102 11.5085C17.9211 11.4022 17.9293 11.2932 17.9293 11.1841C17.9293 9.58142 16.6237 8.27581 15.021 8.27581ZM17.2015 11.1841C17.2015 11.3831 17.0353 11.5467 16.8363 11.5467C16.64 11.5467 16.4738 11.3831 16.4738 11.1841C16.4738 10.3828 15.8223 9.73134 15.021 9.73134C14.8193 9.73134 14.6557 9.5678 14.6557 9.36609C14.6557 9.16712 14.8193 9.00358 15.021 9.00358C16.223 9.00358 17.2015 9.9821 17.2015 11.1841ZM19.9736 12.3589C19.9272 12.5552 19.7174 12.6778 19.5238 12.626C19.3358 12.5742 19.2213 12.378 19.2649 12.1899C19.3439 11.8628 19.3821 11.5248 19.3821 11.1841C19.3821 8.78007 17.4251 6.82302 15.021 6.82302C14.9092 6.82302 14.7948 6.82574 14.683 6.83664C14.484 6.85027 14.3096 6.70036 14.2932 6.50138C14.2796 6.29968 14.4295 6.12524 14.6285 6.11161C14.7593 6.10071 14.8902 6.09525 15.021 6.09525C17.8257 6.09525 20.1099 8.37939 20.1099 11.1841C20.1099 11.5794 20.0635 11.9746 19.9736 12.3589Z" fill="white"/>
</svg>
