<svg width="20" height="20" viewBox="0 0 20 20" fill="none" xmlns="http://www.w3.org/2000/svg">
<g clip-path="url(#clip0_70_333)">
<path fill-rule="evenodd" clip-rule="evenodd" d="M12.3807 9.49784C12.1875 9.05115 11.9861 8.6052 11.7714 8.16409C13.6054 7.36971 15.0795 6.29095 16.1776 4.92295C17.249 6.18895 17.9216 7.79668 18.0206 9.55628C15.9759 9.22163 14.0953 9.20302 12.3807 9.49784ZM14.5405 16.5433C14.1928 14.6754 13.6825 12.8488 13.0162 11.0669C14.5055 10.8562 16.1452 10.9109 17.9384 11.2228C17.5914 13.4351 16.3288 15.3462 14.5405 16.5433ZM5.34008 16.2024C6.90351 13.7496 8.89986 12.1531 11.3734 11.416C12.1094 13.3383 12.6514 15.3149 12.9961 17.3399C10.4194 18.3357 7.52404 17.908 5.34008 16.2024ZM2.30963 9.79713C5.36539 9.79266 8.00164 9.44163 10.2105 8.74665C10.3955 9.12373 10.5727 9.50268 10.7421 9.88423C8.05933 10.7225 5.84745 12.4419 4.12247 15.0302C2.88066 13.5397 2.26236 11.7321 2.30963 9.79713ZM6.61949 2.98392C7.67704 4.36756 8.61323 5.794 9.42808 7.25767C7.49799 7.82572 5.19491 8.11756 2.53149 8.1358C3.08167 5.88446 4.59745 4.01206 6.61949 2.98392ZM14.9701 3.77382C14.0134 5.00745 12.6927 5.9831 11.0098 6.69558C10.2035 5.21814 9.28179 3.7768 8.24062 2.37791C10.5977 1.77673 13.0359 2.28 14.9701 3.77382ZM10.1707 0.47052C4.90791 0.47052 0.641602 4.7372 0.641602 10C0.641602 15.2628 4.90791 19.5295 10.1707 19.5295C15.4343 19.5295 19.7006 15.2628 19.7006 10C19.7006 4.7372 15.4339 0.47052 10.1707 0.47052Z" fill="white"/>
</g>
<defs>
<clipPath id="clip0_70_333">
<rect width="19.059" height="19.059" fill="white" transform="translate(0.641602 0.47052)"/>
</clipPath>
</defs>
</svg>
