<svg width="27" height="20" viewBox="0 0 27 20" fill="none" xmlns="http://www.w3.org/2000/svg">
<path d="M20.806 2.14425C18.0197 2.14425 15.9168 4.03395 15.0756 7.00348C13.7613 4.89781 12.7099 2.52219 12.1316 0.47052H9.1875V8.40725C9.1875 9.973 7.92576 11.2688 6.40115 11.2688C4.87654 11.2688 3.6148 9.973 3.6148 8.40725V0.524511H0.775879V8.46124C0.775879 11.7547 3.35194 14.4003 6.50629 14.4003C9.66065 14.4003 12.2367 11.7547 12.2367 8.46124V7.11146C12.815 8.29927 13.551 9.59506 14.3396 10.7289L12.4996 19.5295H15.4962L16.758 13.1045C17.9146 13.8604 19.2289 14.2923 20.806 14.2923C24.013 14.2923 26.6416 11.5927 26.6416 8.1373C26.6416 4.84382 24.013 2.14425 20.806 2.14425ZM20.806 11.2688C19.6495 11.2688 18.4403 10.7289 17.494 9.91901L17.8094 8.7312V8.67721C18.0197 7.38142 18.7031 5.22176 20.8586 5.22176C22.4884 5.22176 23.8027 6.57155 23.8027 8.24528C23.7501 9.91901 22.3307 11.2688 20.806 11.2688Z" fill="white"/>
</svg>
