<svg width="18" height="20" viewBox="0 0 18 20" fill="none" xmlns="http://www.w3.org/2000/svg">
<path d="M13.8743 13.9781C12.9113 14.8438 11.6399 15.3236 10.2445 15.3236C7.16866 15.3236 4.90984 13.0648 4.90984 9.96351C4.90984 6.8622 7.0968 4.69847 10.2445 4.69847C11.6155 4.69847 12.9113 5.1551 13.8987 6.02081L14.5698 6.59796L17.5517 3.61716L16.8054 2.94383C15.0507 1.35945 12.7212 0.47052 10.2434 0.47052C4.71526 0.47052 0.700684 4.45966 0.700684 9.94029C0.700684 15.3977 4.81145 19.5295 10.2434 19.5295C12.7676 19.5295 15.1215 18.6405 16.854 17.0307L17.5749 16.3574L14.5466 13.3788L13.8743 13.9781Z" fill="white"/>
<path d="M10.0984 6.81506C10.9464 6.81506 11.7597 7.15194 12.3594 7.75159C12.959 8.35124 13.2959 9.16453 13.2959 10.0126C13.2959 10.8606 12.959 11.6739 12.3594 12.2735C11.7597 12.8732 10.9464 13.2101 10.0984 13.2101C9.25035 13.2101 8.43705 12.8732 7.8374 12.2735C7.23776 11.6739 6.90088 10.8606 6.90088 10.0126C6.90088 9.16453 7.23776 8.35124 7.8374 7.75159C8.43705 7.15194 9.25035 6.81506 10.0984 6.81506Z" fill="white"/>
</svg>
