<svg width="28" height="28" viewBox="0 0 28 28" fill="none" xmlns="http://www.w3.org/2000/svg">
<g clip-path="url(#clip0_130_464)">
<path d="M14 28C21.732 28 28 21.732 28 14C28 6.26801 21.732 0 14 0C6.26801 0 0 6.26801 0 14C0 21.732 6.26801 28 14 28Z" fill="#3A559F"/>
<path d="M18.4357 12.3423L18.1541 14.7811C18.1424 14.8924 18.0902 14.9955 18.0075 15.0709C17.9248 15.1463 17.8173 15.1887 17.7054 15.19H15.16L15.1473 22.4207C15.1481 22.5064 15.1152 22.5889 15.0557 22.6506C14.9961 22.7122 14.9147 22.7479 14.8291 22.75H12.2502C12.2073 22.75 12.1649 22.7414 12.1254 22.7246C12.086 22.7078 12.0503 22.6833 12.0206 22.6524C11.9909 22.6214 11.9677 22.5849 11.9525 22.5448C11.9373 22.5047 11.9303 22.4619 11.932 22.4191V15.19H10.0229C9.96297 15.1894 9.90372 15.1769 9.84856 15.1534C9.7934 15.1299 9.74342 15.0957 9.70146 15.0529C9.65951 15.0101 9.6264 14.9594 9.60404 14.9037C9.58167 14.8481 9.57048 14.7886 9.57111 14.7286L9.56157 12.2898C9.56073 12.2296 9.57175 12.1699 9.594 12.1139C9.61625 12.058 9.6493 12.0071 9.69125 11.9639C9.73321 11.9208 9.78325 11.8863 9.83853 11.8625C9.8938 11.8387 9.95322 11.8261 10.0134 11.8252H11.932V9.47068C11.932 6.7375 13.5548 5.25 15.9348 5.25H17.8852C17.9455 5.25062 18.0051 5.26314 18.0606 5.28685C18.116 5.31055 18.1662 5.34497 18.2084 5.38813C18.2505 5.43129 18.2837 5.48234 18.306 5.53835C18.3284 5.59437 18.3395 5.65424 18.3386 5.71455V7.76682C18.3395 7.82712 18.3284 7.887 18.306 7.94301C18.2837 7.99903 18.2505 8.05008 18.2084 8.09324C18.1662 8.13639 18.116 8.17081 18.0606 8.19452C18.0051 8.21822 17.9455 8.23074 17.8852 8.23136H16.6888C15.3954 8.23136 15.1441 8.86773 15.1441 9.78727V11.8252H17.987C18.0517 11.826 18.1154 11.8405 18.1741 11.8677C18.2327 11.8949 18.285 11.9343 18.3273 11.9831C18.3697 12.0319 18.4013 12.0892 18.4199 12.1511C18.4386 12.213 18.444 12.2782 18.4357 12.3423Z" fill="white"/>
</g>
<defs>
<clipPath id="clip0_130_464">
<rect width="28" height="28" fill="white"/>
</clipPath>
</defs>
</svg>
