<svg width="28" height="28" viewBox="0 0 28 28" fill="none" xmlns="http://www.w3.org/2000/svg">
<path d="M14 28C21.732 28 28 21.732 28 14C28 6.26801 21.732 0 14 0C6.26801 0 0 6.26801 0 14C0 21.732 6.26801 28 14 28Z" fill="url(#paint0_linear_37_111)"/>
<path d="M16.9728 6.22247H11.0306C8.37994 6.22247 6.22705 8.37536 6.22705 11.026V16.9683C6.22705 19.6189 8.37994 21.7718 11.0306 21.7718H16.9728C19.6235 21.7718 21.7764 19.6189 21.7764 16.9683V11.026C21.7764 8.37536 19.6235 6.22247 16.9728 6.22247ZM20.0404 16.9745C20.0404 18.6669 18.6653 20.0483 16.9666 20.0483H11.0244C9.33194 20.0483 7.95061 18.6731 7.95061 16.9745V11.0323C7.95061 9.33981 9.32572 7.95847 11.0244 7.95847H16.9666C18.659 7.95847 20.0404 9.33358 20.0404 11.0323V16.9745Z" fill="white"/>
<path d="M13.9994 10.0242C11.8092 10.0242 10.0234 11.8099 10.0234 14.0002C10.0234 16.1904 11.8092 17.9762 13.9994 17.9762C16.1897 17.9762 17.9754 16.1904 17.9754 14.0002C17.9754 11.8099 16.1897 10.0242 13.9994 10.0242ZM13.9994 16.4144C12.6679 16.4144 11.5852 15.3317 11.5852 14.0002C11.5852 12.6686 12.6679 11.5859 13.9994 11.5859C15.331 11.5859 16.4137 12.6686 16.4137 14.0002C16.4137 15.3317 15.331 16.4144 13.9994 16.4144Z" fill="white"/>
<path d="M18.2777 10.4599C18.644 10.4005 18.8928 10.0554 18.8335 9.68913C18.7741 9.32282 18.429 9.074 18.0627 9.13339C17.6964 9.19277 17.4476 9.53786 17.5069 9.90417C17.5663 10.2705 17.9114 10.5193 18.2777 10.4599Z" fill="white"/>
<defs>
<linearGradient id="paint0_linear_37_111" x1="3.34003" y1="24.66" x2="23.2356" y2="4.76442" gradientUnits="userSpaceOnUse">
<stop stop-color="#FEE411"/>
<stop offset="0.0518459" stop-color="#FEDB16"/>
<stop offset="0.1381" stop-color="#FEC125"/>
<stop offset="0.2481" stop-color="#FE983D"/>
<stop offset="0.3762" stop-color="#FE5F5E"/>
<stop offset="0.5" stop-color="#FE2181"/>
<stop offset="1" stop-color="#9000DC"/>
</linearGradient>
</defs>
</svg>
