<svg width="28" height="28" viewBox="0 0 28 28" fill="none" xmlns="http://www.w3.org/2000/svg">
<g clip-path="url(#clip0_37_107)">
<path d="M14 28C21.732 28 28 21.732 28 14C28 6.26801 21.732 0 14 0C6.26801 0 0 6.26801 0 14C0 21.732 6.26801 28 14 28Z" fill="url(#paint0_linear_37_107)"/>
<path fill-rule="evenodd" clip-rule="evenodd" d="M6.3372 13.8523C10.4185 12.0741 13.14 10.9018 14.5017 10.3355C18.3896 8.71836 19.1975 8.43743 19.724 8.42814C19.8399 8.42611 20.0988 8.45482 20.2665 8.59094C20.5154 8.79285 20.5168 9.23111 20.4892 9.52118C20.2785 11.7349 19.3668 17.107 18.903 19.5865C18.7067 20.6356 18.3203 20.9874 17.9463 21.0218C17.1333 21.0966 16.5159 20.4845 15.7285 19.9683C14.4963 19.1606 13.8002 18.6578 12.6041 17.8697C11.2219 16.9588 12.1179 16.4582 12.9057 15.64C13.1118 15.4259 16.6939 12.1677 16.7633 11.8721C16.772 11.8351 16.78 11.6973 16.6981 11.6246C16.6163 11.5518 16.4955 11.5767 16.4083 11.5965C16.2847 11.6245 14.3163 12.9256 10.503 15.4996C9.94428 15.8833 9.4382 16.0702 8.98479 16.0604C8.48489 16.0497 7.52337 15.7778 6.80855 15.5454C5.9318 15.2605 5.23498 15.1097 5.29568 14.6258C5.32729 14.3736 5.67444 14.1158 6.3372 13.8523Z" fill="white"/>
</g>
<defs>
<linearGradient id="paint0_linear_37_107" x1="14" y1="0" x2="14" y2="27.7813" gradientUnits="userSpaceOnUse">
<stop stop-color="#2AABEE"/>
<stop offset="1" stop-color="#229ED9"/>
</linearGradient>
<clipPath id="clip0_37_107">
<rect width="28" height="28" fill="white"/>
</clipPath>
</defs>
</svg>
