<svg width="28" height="28" viewBox="0 0 28 28" fill="none" xmlns="http://www.w3.org/2000/svg">
<g clip-path="url(#clip0_37_118)">
<path d="M14 27.6719C21.5508 27.6719 27.6719 21.5508 27.6719 14C27.6719 6.44923 21.5508 0.328125 14 0.328125C6.44923 0.328125 0.328125 6.44923 0.328125 14C0.328125 21.5508 6.44923 27.6719 14 27.6719Z" fill="#9948C9"/>
<path fill-rule="evenodd" clip-rule="evenodd" d="M15.6327 14.7573C15.3986 15.0531 15.1944 15.4352 14.7622 15.4076C12.3084 14.7673 11.6517 12.2466 11.6517 12.2466C11.6233 11.8091 11.9905 11.6033 12.2881 11.3613C12.5123 11.1863 12.6495 10.7711 12.4255 10.366C11.8248 9.29554 11.4175 8.92541 11.2139 8.6453C10.9952 8.38018 10.6692 8.32019 10.3335 8.50027C10.3335 8.50027 8.77346 9.34793 9.10147 10.446C9.52405 11.2663 10.2978 13.8923 12.7617 15.8731C13.9224 16.8082 15.445 17.6067 16.539 18.0039C17.25 18.262 18.0703 17.4964 18.4531 16.7385C18.6281 16.3917 18.5702 16.0681 18.3106 15.8531C17.8524 15.4129 17.0886 14.8663 16.6153 14.6176C16.2654 14.4335 15.8279 14.4882 15.6327 14.7573Z" fill="white"/>
<path d="M22.4557 9.78843C22.1216 8.25898 21.5862 7.11771 20.865 6.39638C19.3426 4.87399 16.1443 4.33154 13.6583 4.33154C12.1498 4.33154 8.47009 4.54324 6.88579 6.50379C5.37571 8.37262 5.21782 11.885 5.20524 12.9174C5.18884 14.2933 5.32862 17.6718 6.98259 19.3257C7.5976 19.9407 8.44406 20.3577 9.3423 20.6407L9.28761 22.8759C9.26989 23.6025 10.1747 23.9487 10.6465 23.3958L12.5299 21.1888C12.9612 21.2157 13.3392 21.2236 13.6305 21.2236C15.9984 21.2236 19.114 20.7504 20.7576 19.4223C22.3284 18.153 22.6955 15.4595 22.7745 13.9668C22.8492 12.5552 22.736 11.0713 22.4557 9.78843ZM19.8983 18.3589C18.5808 19.4235 15.595 19.9596 12.871 19.8396L10.1523 22.9414C10.1282 22.9688 10.0962 22.9883 10.0607 22.9971C10.0252 23.0059 9.98784 23.0037 9.95363 22.9907C9.91943 22.9778 9.88999 22.9547 9.86926 22.9245C9.84852 22.8944 9.83748 22.8586 9.8376 22.822L9.84351 19.3697C9.0454 19.1277 8.38335 18.793 7.94919 18.3591C6.00538 16.4152 6.22145 9.50137 7.94919 7.3632C9.82672 5.03969 17.7859 5.25089 19.8984 7.3632C21.8421 9.3069 22.0364 16.6312 19.8983 18.3589Z" fill="white"/>
<path d="M18.007 12.7062C17.8947 10.0966 16.3014 8.35602 13.8826 8.19863C13.8261 8.19503 13.7733 8.16973 13.7351 8.12803C13.697 8.08633 13.6764 8.03147 13.6778 7.97496C13.6786 7.9455 13.6853 7.91651 13.6976 7.88972C13.7098 7.86293 13.7274 7.83888 13.7491 7.81901C13.7709 7.79915 13.7964 7.78388 13.8242 7.77411C13.852 7.76434 13.8815 7.76028 13.9109 7.76217C16.5308 7.93547 18.3198 9.87786 18.4439 12.6863C18.4452 12.7157 18.4406 12.745 18.4303 12.7725C18.4201 12.8 18.4044 12.8252 18.3842 12.8466C18.3641 12.8679 18.3398 12.885 18.3129 12.8968C18.286 12.9086 18.2571 12.9149 18.2277 12.9153C18.1709 12.916 18.1162 12.8945 18.075 12.8555C18.0338 12.8164 18.0094 12.7629 18.007 12.7062Z" fill="white"/>
<path d="M16.6002 12.2144C16.5062 10.7726 15.6237 9.80598 14.2912 9.68419C14.2362 9.67891 14.1852 9.65291 14.1487 9.61146C14.1121 9.57001 14.0927 9.5162 14.0943 9.46096C14.0952 9.43086 14.1023 9.40127 14.1152 9.37403C14.128 9.34679 14.1463 9.32248 14.1689 9.3026C14.1915 9.28272 14.218 9.26771 14.2466 9.25848C14.2753 9.24926 14.3055 9.24603 14.3355 9.24899C15.8754 9.39309 16.9294 10.5396 17.0367 12.1906C17.0384 12.2201 17.0341 12.2495 17.024 12.2773C17.0139 12.305 16.9983 12.3304 16.9782 12.3519C16.958 12.3734 16.9336 12.3906 16.9066 12.4024C16.8796 12.4142 16.8505 12.4204 16.821 12.4206H16.8206C16.7644 12.4211 16.7102 12.3999 16.6692 12.3616C16.6282 12.3232 16.6035 12.2705 16.6002 12.2144Z" fill="white"/>
<path d="M15.4087 12.0201C15.338 11.4278 14.9742 11.0237 14.4332 10.9345C14.3805 10.9266 14.3324 10.8998 14.298 10.8592C14.2636 10.8185 14.2452 10.7667 14.2461 10.7134V10.7106C14.2471 10.6795 14.2547 10.6489 14.2684 10.6209C14.2822 10.593 14.3018 10.5683 14.3258 10.5485C14.3499 10.5287 14.378 10.5143 14.4081 10.5063C14.4382 10.4983 14.4696 10.4968 14.5004 10.5019C15.2401 10.6204 15.7507 11.178 15.8436 11.9715C15.8468 12.0016 15.8437 12.032 15.8344 12.0608C15.8251 12.0896 15.81 12.1161 15.7898 12.1387C15.7697 12.1612 15.745 12.1793 15.7175 12.1918C15.6899 12.2043 15.6601 12.2108 15.6298 12.2111H15.6267C15.5732 12.2117 15.5214 12.1926 15.4811 12.1573C15.4409 12.1221 15.4151 12.0732 15.4087 12.0201Z" fill="white"/>
</g>
<defs>
<clipPath id="clip0_37_118">
<rect width="28" height="28" fill="white"/>
</clipPath>
</defs>
</svg>
