<svg width="28" height="28" viewBox="0 0 28 28" fill="none" xmlns="http://www.w3.org/2000/svg">
<g clip-path="url(#clip0_37_126)">
<path d="M14 28C21.732 28 28 21.732 28 14C28 6.26801 21.732 0 14 0C6.26801 0 0 6.26801 0 14C0 21.732 6.26801 28 14 28Z" fill="#29A71A"/>
<path d="M20.1721 7.82725C18.7155 6.35613 16.7812 5.45395 14.718 5.28342C12.6548 5.1129 10.5986 5.68526 8.92026 6.89727C7.24191 8.10928 6.05192 9.88115 5.56492 11.8933C5.07793 13.9054 5.326 16.0253 6.26438 17.8707L5.34324 22.3427C5.33368 22.3872 5.33341 22.4332 5.34244 22.4778C5.35148 22.5225 5.36962 22.5647 5.39574 22.602C5.434 22.6586 5.48862 22.7022 5.55229 22.7269C5.61597 22.7516 5.68568 22.7564 5.7521 22.7404L10.1351 21.7016C11.9752 22.6162 14.0802 22.8483 16.0754 22.3566C18.0706 21.8649 19.8267 20.6813 21.0311 19.0164C22.2356 17.3515 22.8103 15.3132 22.653 13.2643C22.4957 11.2154 21.6166 9.28881 20.1721 7.82725ZM18.8055 18.7345C17.7977 19.7395 16.5 20.4029 15.0951 20.6312C13.6903 20.8596 12.2493 20.6413 10.9751 20.0072L10.3641 19.705L7.6771 20.3413L7.68506 20.3079L8.24188 17.6034L7.94278 17.0132C7.29172 15.7345 7.06205 14.2826 7.28667 12.8654C7.51129 11.4482 8.17869 10.1385 9.19324 9.12384C10.468 7.84943 12.1968 7.13351 13.9994 7.13351C15.8019 7.13351 17.5307 7.84943 18.8055 9.12384C18.8164 9.13629 18.8281 9.14798 18.8405 9.15884C20.0995 10.4365 20.8023 12.1601 20.7958 13.9539C20.7892 15.7476 20.0738 17.4661 18.8055 18.7345Z" fill="white"/>
<path d="M18.5674 16.7507C18.238 17.2693 17.7178 17.9041 17.0639 18.0616C15.9185 18.3384 14.1605 18.0711 11.973 16.0316L11.946 16.0077C10.0226 14.2243 9.52303 12.74 9.64394 11.5627C9.71076 10.8945 10.2676 10.29 10.7369 9.89545C10.8111 9.83212 10.8991 9.78703 10.9938 9.76379C11.0886 9.74055 11.1874 9.7398 11.2825 9.7616C11.3776 9.7834 11.4662 9.82714 11.5414 9.88934C11.6166 9.95153 11.6761 10.0304 11.7153 10.1198L12.4233 11.7107C12.4693 11.8138 12.4863 11.9276 12.4726 12.0397C12.4588 12.1518 12.4149 12.258 12.3453 12.347L11.9874 12.8116C11.9105 12.9075 11.8642 13.0242 11.8543 13.1467C11.8444 13.2692 11.8713 13.3918 11.9317 13.4989C12.1321 13.8504 12.6126 14.3675 13.1455 14.8464C13.7437 15.3873 14.4071 15.882 14.8271 16.0507C14.9395 16.0966 15.0631 16.1078 15.1819 16.0828C15.3007 16.0579 15.4093 15.9979 15.4937 15.9107L15.9089 15.4923C15.9891 15.4133 16.0887 15.3569 16.1977 15.329C16.3067 15.301 16.4211 15.3025 16.5294 15.3332L18.211 15.8104C18.3038 15.8389 18.3888 15.8882 18.4596 15.9545C18.5304 16.0209 18.585 16.1026 18.6194 16.1933C18.6538 16.284 18.667 16.3814 18.658 16.478C18.6489 16.5746 18.6179 16.6679 18.5674 16.7507Z" fill="white"/>
</g>
<defs>
<clipPath id="clip0_37_126">
<rect width="28" height="28" fill="white"/>
</clipPath>
</defs>
</svg>
