<svg width="77" height="53" viewBox="0 0 77 53" fill="none" xmlns="http://www.w3.org/2000/svg">
<mask id="path-1-outside-1_23_264" maskUnits="userSpaceOnUse" x="0" y="0" width="77" height="53" fill="black">
<rect fill="white" width="77" height="53"/>
<path d="M19.53 1.72C22.19 1.72 24.64 2.28 26.74 3.33C28.84 4.31 30.59 5.64 31.85 7.32C33.18 8.93 34.3 10.89 35.14 13.13C35.98 15.37 36.61 17.61 36.89 19.85C37.24 22.09 37.38 24.4 37.38 26.92C37.38 34.69 35.84 40.78 32.62 45.19C29.47 49.67 25.13 51.84 19.53 51.84C13.86 51.84 9.45 49.67 6.23 45.26C3.01 40.85 1.4 34.69 1.4 26.85C1.4 23.77 1.75 20.83 2.31 18.03C2.94 15.23 3.92 12.57 5.25 10.05C6.51 7.53 8.4 5.5 10.85 3.96C13.3 2.49 16.17 1.72 19.53 1.72ZM19.39 9.98C18.13 9.98 16.94 10.26 15.96 10.82C14.98 11.38 14.21 12.15 13.65 13.27C13.09 14.39 12.6 15.44 12.25 16.42C11.9 17.4 11.62 18.73 11.48 20.34C11.34 21.95 11.27 23.21 11.27 24.05C11.27 24.89 11.2 26.01 11.2 27.41C11.2 38.33 14 43.86 19.46 43.86C24.92 43.86 27.58 38.19 27.58 26.92C27.58 21.04 26.95 16.77 25.62 14.04C24.36 11.31 22.26 9.98 19.39 9.98ZM75.8565 42.39V51.07H39.9465C39.9465 48.83 40.2265 46.8 40.7865 44.98C41.3465 43.16 41.9765 41.62 42.6765 40.36C43.3765 39.1 44.4965 37.77 46.0365 36.37C47.5065 34.97 48.8365 33.85 49.9565 33.01C51.0765 32.17 52.7565 30.98 54.9965 29.51C55.2765 29.3 55.9765 28.81 57.2365 28.04C58.4265 27.2 59.2665 26.64 59.7565 26.36C60.1765 26.01 60.8765 25.45 61.8565 24.61C62.7665 23.77 63.3965 23.07 63.8165 22.44C64.2365 21.88 64.5865 21.11 65.0065 20.2C65.3565 19.29 65.5665 18.31 65.5665 17.33C65.5665 15.23 64.8665 13.48 63.6065 12.22C62.3465 10.96 60.6665 10.26 58.5665 10.26C53.5265 10.26 50.8665 13.83 50.5865 20.9H41.0665V19.85C41.0665 14.32 42.6765 9.91 45.8965 6.62C49.1165 3.33 53.4565 1.65 58.9165 1.65C63.8165 1.65 67.8765 3.05 70.9565 5.85C74.0365 8.65 75.5765 12.22 75.5765 16.63C75.5765 20.27 74.7365 23.14 73.1265 25.24C71.4465 27.41 68.9265 29.65 65.4265 32.03C64.9365 32.38 64.0965 32.94 62.8365 33.78C61.5765 34.62 60.5265 35.25 59.8265 35.81C59.1265 36.3 58.2165 36.93 57.2365 37.7C56.1865 38.54 55.2765 39.31 54.5765 40.08C53.8065 40.85 53.1765 41.62 52.6865 42.39H75.8565Z"/>
</mask>
<path d="M26.74 3.33L26.2928 4.22442L26.3049 4.23047L26.3171 4.23618L26.74 3.33ZM31.85 7.32L31.05 7.92L31.0641 7.93878L31.079 7.95688L31.85 7.32ZM35.14 13.13L36.0763 12.7789V12.7789L35.14 13.13ZM36.89 19.85L35.8977 19.974L35.8996 19.9892L35.902 20.0044L36.89 19.85ZM32.62 45.19L31.8124 44.6003L31.8071 44.6075L31.802 44.6148L32.62 45.19ZM6.23 45.26L5.42237 45.8497L6.23 45.26ZM2.31 18.03L1.33439 17.8105L1.33176 17.8222L1.32942 17.8339L2.31 18.03ZM5.25 10.05L6.13439 10.5168L6.13951 10.507L6.14443 10.4972L5.25 10.05ZM10.85 3.96L10.3355 3.1025L10.3266 3.10784L10.3178 3.11336L10.85 3.96ZM15.96 10.82L16.4561 11.6882L16.4561 11.6882L15.96 10.82ZM13.65 13.27L12.7556 12.8228V12.8228L13.65 13.27ZM12.25 16.42L13.1917 16.7563V16.7563L12.25 16.42ZM25.62 14.04L24.712 14.4591L24.7164 14.4686L24.721 14.478L25.62 14.04ZM19.53 2.72C22.05 2.72 24.3446 3.25035 26.2928 4.22442L27.1872 2.43557C24.9354 1.30965 22.33 0.719996 19.53 0.719996V2.72ZM26.3171 4.23618C28.2972 5.16022 29.9062 6.39496 31.05 7.92L32.65 6.72C31.2738 4.88504 29.3828 3.45977 27.1629 2.42381L26.3171 4.23618ZM31.079 7.95688C32.3314 9.47293 33.3985 11.334 34.2037 13.4811L36.0763 12.7789C35.2015 10.446 34.0286 8.38706 32.621 6.68312L31.079 7.95688ZM34.2037 13.4811C35.0254 15.6723 35.6302 17.8339 35.8977 19.974L37.8823 19.726C37.5898 17.3861 36.9346 15.0677 36.0763 12.7789L34.2037 13.4811ZM35.902 20.0044C36.242 22.1804 36.38 24.4368 36.38 26.92H38.38C38.38 24.3632 38.238 21.9996 37.878 19.6956L35.902 20.0044ZM36.38 26.92C36.38 34.5736 34.8608 40.4253 31.8124 44.6003L33.4276 45.7797C36.8192 41.1347 38.38 34.8064 38.38 26.92H36.38ZM31.802 44.6148C28.8482 48.8157 24.8204 50.84 19.53 50.84V52.84C25.4396 52.84 30.0918 50.5243 33.438 45.7652L31.802 44.6148ZM19.53 50.84C14.1624 50.84 10.0596 48.8091 7.03763 44.6703L5.42237 45.8497C8.84039 50.5309 13.5576 52.84 19.53 52.84V50.84ZM7.03763 44.6703C3.98699 40.4923 2.4 34.5682 2.4 26.85H0.4C0.4 34.8118 2.03301 41.2077 5.42237 45.8497L7.03763 44.6703ZM2.4 26.85C2.4 23.8462 2.7413 20.9725 3.29058 18.2261L1.32942 17.8339C0.758703 20.6875 0.4 23.6938 0.4 26.85H2.4ZM3.28561 18.2495C3.89638 15.535 4.84587 12.9582 6.13439 10.5168L4.36562 9.58324C2.99413 12.1818 1.98362 14.925 1.33439 17.8105L3.28561 18.2495ZM6.14443 10.4972C7.31739 8.15128 9.0772 6.25547 11.3822 4.80663L10.3178 3.11336C7.7228 4.74452 5.70261 6.90871 4.35557 9.60278L6.14443 10.4972ZM11.3645 4.81749C13.6415 3.45131 16.3295 2.72 19.53 2.72V0.719996C16.0105 0.719996 12.9585 1.52868 10.3355 3.1025L11.3645 4.81749ZM19.39 8.98C17.9872 8.98 16.6199 9.29115 15.4639 9.95176L16.4561 11.6882C17.2601 11.2289 18.2728 10.98 19.39 10.98V8.98ZM15.4639 9.95176C14.3192 10.6058 13.4073 11.5194 12.7556 12.8228L14.5444 13.7172C15.0127 12.7806 15.6408 12.1541 16.4561 11.6882L15.4639 9.95176ZM12.7556 12.8228C12.1911 13.9517 11.6791 15.0452 11.3083 16.0837L13.1917 16.7563C13.5209 15.8348 13.9889 14.8283 14.5444 13.7172L12.7556 12.8228ZM11.3083 16.0837C10.9221 17.1649 10.629 18.5832 10.4838 20.2534L12.4762 20.4266C12.611 18.8768 12.8779 17.6351 13.1917 16.7563L11.3083 16.0837ZM10.4838 20.2534C10.343 21.8725 10.27 23.1664 10.27 24.05H12.27C12.27 23.2536 12.337 22.0275 12.4762 20.4266L10.4838 20.2534ZM10.27 24.05C10.27 24.45 10.2533 24.919 10.2355 25.4888C10.2179 26.0511 10.2 26.6938 10.2 27.41H12.2C12.2 26.7262 12.2171 26.1089 12.2345 25.5512C12.2517 25.001 12.27 24.49 12.27 24.05H10.27ZM10.2 27.41C10.2 32.9243 10.9019 37.2236 12.3892 40.1795C13.1396 41.6708 14.1056 42.851 15.31 43.6565C16.5211 44.4665 17.9175 44.86 19.46 44.86V42.86C18.2725 42.86 17.2714 42.5623 16.4219 41.9941C15.5657 41.4215 14.8079 40.5367 14.1758 39.2805C12.8981 36.7414 12.2 32.8157 12.2 27.41H10.2ZM19.46 44.86C21.008 44.86 22.4019 44.4547 23.6033 43.6189C24.7963 42.7888 25.7413 41.5753 26.4702 40.0466C27.9147 37.0168 28.58 32.6013 28.58 26.92H26.58C26.58 32.5087 25.9153 36.5632 24.6648 39.1859C24.0462 40.4835 23.3024 41.3918 22.4611 41.9771C21.6281 42.5566 20.642 42.86 19.46 42.86V44.86ZM28.58 26.92C28.58 21.0107 27.9538 16.5471 26.519 13.602L24.721 14.478C25.9462 16.9929 26.58 21.0693 26.58 26.92H28.58ZM26.528 13.6209C25.8341 12.1176 24.8805 10.9416 23.652 10.1467C22.4225 9.35111 20.9837 8.98 19.39 8.98V10.98C20.6663 10.98 21.7125 11.2739 22.5655 11.8258C23.4195 12.3784 24.1459 13.2324 24.712 14.4591L26.528 13.6209ZM75.8565 42.39H76.8565V41.39H75.8565V42.39ZM75.8565 51.07V52.07H76.8565V51.07H75.8565ZM39.9465 51.07H38.9465V52.07H39.9465V51.07ZM42.6765 40.36L41.8023 39.8744L42.6765 40.36ZM46.0365 36.37L46.7092 37.1099L46.7177 37.1021L46.7261 37.0941L46.0365 36.37ZM49.9565 33.01L50.5565 33.81L49.9565 33.01ZM54.9965 29.51L55.5451 30.346L55.5714 30.3288L55.5965 30.31L54.9965 29.51ZM57.2365 28.04L57.7579 28.8933L57.7862 28.876L57.8132 28.857L57.2365 28.04ZM59.7565 26.36L60.2526 27.2282L60.329 27.1846L60.3967 27.1282L59.7565 26.36ZM61.8565 24.61L62.5073 25.3693L62.5212 25.3573L62.5348 25.3448L61.8565 24.61ZM63.8165 22.44L63.0165 21.84L62.9998 21.8622L62.9844 21.8853L63.8165 22.44ZM65.0065 20.2L65.9144 20.6191L65.9281 20.5894L65.9398 20.559L65.0065 20.2ZM50.5865 20.9V21.9H51.5477L51.5857 20.9396L50.5865 20.9ZM41.0665 20.9H40.0665V21.9H41.0665V20.9ZM45.8965 6.62L46.6112 7.31946V7.31946L45.8965 6.62ZM73.1265 25.24L73.9172 25.8522L73.9201 25.8484L73.1265 25.24ZM65.4265 32.03L64.8642 31.2031L64.8546 31.2096L64.8452 31.2163L65.4265 32.03ZM62.8365 33.78L63.3912 34.612L62.8365 33.78ZM59.8265 35.81L60.3999 36.6292L60.4262 36.6109L60.4512 36.5909L59.8265 35.81ZM57.2365 37.7L56.6186 36.9137L56.6118 36.9191L57.2365 37.7ZM54.5765 40.08L55.2836 40.7871L55.3004 40.7703L55.3164 40.7527L54.5765 40.08ZM52.6865 42.39L51.8428 41.8531L50.8648 43.39H52.6865V42.39ZM74.8565 42.39V51.07H76.8565V42.39H74.8565ZM75.8565 50.07H39.9465V52.07H75.8565V50.07ZM40.9465 51.07C40.9465 48.9126 41.2162 46.9837 41.7423 45.2741L39.8307 44.6859C39.2368 46.6163 38.9465 48.7474 38.9465 51.07H40.9465ZM41.7423 45.2741C42.2879 43.5008 42.8932 42.029 43.5506 40.8456L41.8023 39.8744C41.0598 41.211 40.4051 42.8192 39.8307 44.6859L41.7423 45.2741ZM43.5506 40.8456C44.18 39.7129 45.2172 38.4663 46.7092 37.1099L45.3638 35.6301C43.7758 37.0737 42.573 38.4871 41.8023 39.8744L43.5506 40.8456ZM46.7261 37.0941C48.1719 35.7172 49.4721 34.6233 50.5565 33.81L49.3565 32.21C48.2008 33.0767 46.841 34.2228 45.3468 35.6459L46.7261 37.0941ZM50.5565 33.81C51.6569 32.9847 53.3194 31.8067 55.5451 30.346L54.4478 28.674C52.1936 30.1533 50.4961 31.3553 49.3565 32.21L50.5565 33.81ZM55.5965 30.31C55.8433 30.1249 56.515 29.6528 57.7579 28.8933L56.715 27.1867C55.4379 27.9672 54.7097 28.4751 54.3965 28.71L55.5965 30.31ZM57.8132 28.857C59.0052 28.0155 59.8093 27.4816 60.2526 27.2282L59.2603 25.4918C58.7236 25.7984 57.8477 26.3845 56.6598 27.223L57.8132 28.857ZM60.3967 27.1282C60.7976 26.7941 61.522 26.2138 62.5073 25.3693L61.2057 23.8507C60.2309 24.6862 59.5553 25.2259 59.1163 25.5918L60.3967 27.1282ZM62.5348 25.3448C63.4728 24.479 64.1665 23.7178 64.6485 22.9947L62.9844 21.8853C62.6265 22.4222 62.0602 23.061 61.1782 23.8752L62.5348 25.3448ZM64.6165 23.04C65.115 22.3753 65.5127 21.4896 65.9144 20.6191L64.0985 19.7809C63.6603 20.7304 63.358 21.3847 63.0165 21.84L64.6165 23.04ZM65.9398 20.559C66.3269 19.5525 66.5665 18.4508 66.5665 17.33H64.5665C64.5665 18.1692 64.3861 19.0274 64.0731 19.841L65.9398 20.559ZM66.5665 17.33C66.5665 14.9986 65.7837 12.983 64.3136 11.5129L62.8994 12.9271C63.9492 13.977 64.5665 15.4614 64.5665 17.33H66.5665ZM64.3136 11.5129C62.8503 10.0495 60.9085 9.26 58.5665 9.26V11.26C60.4245 11.26 61.8427 11.8704 62.8994 12.9271L64.3136 11.5129ZM58.5665 9.26C55.7788 9.26 53.5365 10.2653 51.991 12.3294C50.4868 14.3383 49.7309 17.2339 49.5873 20.8604L51.5857 20.9396C51.7221 17.4961 52.4362 15.0717 53.592 13.5281C54.7064 12.0397 56.3141 11.26 58.5665 11.26V9.26ZM50.5865 19.9H41.0665V21.9H50.5865V19.9ZM42.0665 20.9V19.85H40.0665V20.9H42.0665ZM42.0665 19.85C42.0665 14.5254 43.6099 10.386 46.6112 7.31946L45.1818 5.92054C41.7431 9.43402 40.0665 14.1146 40.0665 19.85H42.0665ZM46.6112 7.31946C49.6117 4.25372 53.677 2.65 58.9165 2.65V0.649997C53.236 0.649997 48.6213 2.40627 45.1818 5.92054L46.6112 7.31946ZM58.9165 2.65C63.6187 2.65 67.4224 3.98867 70.2838 6.58994L71.6292 5.11006C68.3306 2.11132 64.0143 0.649997 58.9165 0.649997V2.65ZM70.2838 6.58994C73.1436 9.18975 74.5765 12.4855 74.5765 16.63H76.5765C76.5765 11.9545 74.9294 8.11024 71.6292 5.11006L70.2838 6.58994ZM74.5765 16.63C74.5765 20.1222 73.7709 22.7559 72.3329 24.6316L73.9201 25.8484C75.7021 23.5241 76.5765 20.4178 76.5765 16.63H74.5765ZM72.3358 24.6278C70.7432 26.6849 68.3151 28.8564 64.8642 31.2031L65.9888 32.8569C69.5379 30.4436 72.1498 28.1351 73.9172 25.8522L72.3358 24.6278ZM64.8452 31.2163C64.372 31.5543 63.55 32.1025 62.2818 32.9479L63.3912 34.612C64.643 33.7775 65.501 33.2057 66.0077 32.8437L64.8452 31.2163ZM62.2818 32.9479C61.0885 33.7435 59.9462 34.4336 59.2018 35.0291L60.4512 36.5909C61.1068 36.0664 62.0645 35.4965 63.3912 34.612L62.2818 32.9479ZM59.253 34.9908C58.5576 35.4775 57.6243 36.1236 56.6187 36.9137L57.8543 38.4863C58.8087 37.7364 59.6953 37.1225 60.3999 36.6292L59.253 34.9908ZM56.6118 36.9191C55.5591 37.7613 54.5944 38.5737 53.8365 39.4073L55.3164 40.7527C55.9586 40.0463 56.8139 39.3187 57.8612 38.4809L56.6118 36.9191ZM53.8694 39.3729C53.0574 40.1849 52.3787 41.0111 51.8428 41.8531L53.5301 42.9269C53.9743 42.2289 54.5556 41.5151 55.2836 40.7871L53.8694 39.3729ZM52.6865 43.39H75.8565V41.39H52.6865V43.39Z" fill="url(#paint0_linear_23_264)" mask="url(#path-1-outside-1_23_264)"/>
<defs>
<linearGradient id="paint0_linear_23_264" x1="42.7185" y1="0" x2="42.7185" y2="78.7286" gradientUnits="userSpaceOnUse">
<stop stop-color="#C400B9"/>
<stop offset="1" stop-color="#5D0058"/>
</linearGradient>
</defs>
</svg>
