<svg width="35" height="35" viewBox="0 0 35 35" fill="none" xmlns="http://www.w3.org/2000/svg">
<path d="M34.2301 14.4523C34.0459 13.993 33.8719 13.5592 33.7608 13.1433C33.643 12.7027 33.5732 12.2253 33.4992 11.7198C33.3532 10.7216 33.2021 9.6896 32.6573 8.74788C32.1055 7.79413 31.2838 7.14772 30.4891 6.52251C30.0915 6.20977 29.716 5.91438 29.4008 5.59918C29.0857 5.28397 28.7903 4.90848 28.4776 4.51103C27.8523 3.71629 27.2059 2.89454 26.2521 2.34268C25.3105 1.79785 24.2784 1.64678 23.2803 1.50076C22.7747 1.4268 22.2973 1.35693 21.8567 1.23922C21.4409 1.12807 21.007 0.954092 20.5477 0.769932C19.6476 0.408994 18.6275 0 17.5 0C16.3725 0 15.3524 0.408994 14.4523 0.769932C13.993 0.954092 13.5592 1.12807 13.1433 1.23922C12.7027 1.357 12.2253 1.4268 11.7198 1.50076C10.7216 1.64685 9.6896 1.79792 8.74788 2.34268C7.79413 2.89447 7.14772 3.71622 6.52251 4.5109C6.20977 4.90848 5.91438 5.28404 5.59918 5.59918C5.28397 5.91432 4.90855 6.2097 4.51103 6.52244C3.71629 7.14766 2.89454 7.79406 2.34268 8.74788C1.79785 9.68946 1.64678 10.7216 1.50076 11.7197C1.4268 12.2253 1.35693 12.7027 1.23922 13.1433C1.12807 13.5591 0.954092 13.993 0.769932 14.4523C0.408994 15.3524 0 16.3725 0 17.5C0 18.6275 0.408994 19.6476 0.769932 20.5477C0.954092 21.007 1.12807 21.4408 1.23922 21.8567C1.357 22.2973 1.4268 22.7747 1.50076 23.2802C1.64685 24.2784 1.79792 25.3104 2.34268 26.2521C2.89447 27.2059 3.71622 27.8523 4.5109 28.4775C4.90848 28.7902 5.28404 29.0856 5.59918 29.4008C5.91432 29.716 6.2097 30.0915 6.52244 30.489C7.14766 31.2837 7.79406 32.1055 8.74788 32.6573C9.68946 33.2021 10.7216 33.3532 11.7197 33.4992C12.2253 33.5732 12.7027 33.6431 13.1433 33.7608C13.5591 33.8719 13.993 34.0459 14.4523 34.2301C15.3524 34.591 16.3725 35 17.5 35C18.6275 35 19.6476 34.591 20.5477 34.2301C21.007 34.0459 21.4408 33.8719 21.8567 33.7608C22.2973 33.643 22.7747 33.5732 23.2802 33.4992C24.2784 33.3532 25.3104 33.2021 26.2521 32.6573C27.2059 32.1055 27.8523 31.2838 28.4775 30.4891C28.7902 30.0915 29.0856 29.716 29.4008 29.4008C29.716 29.0857 30.0915 28.7903 30.489 28.4776C31.2837 27.8523 32.1055 27.2059 32.6573 26.2521C33.2021 25.3105 33.3532 24.2784 33.4992 23.2803C33.5732 22.7747 33.6431 22.2973 33.7608 21.8567C33.8719 21.4409 34.0459 21.007 34.2301 20.5477C34.591 19.6476 35 18.6275 35 17.5C35 16.3725 34.591 15.3524 34.2301 14.4523ZM23.8701 22.8666C23.4697 22.4662 23.4697 21.8169 23.8701 21.4164L25.8196 19.467C26.22 19.0666 26.8693 19.0666 27.2697 19.467C27.6702 19.8674 27.6702 20.5166 27.2697 20.9171L25.3202 22.8666C25.12 23.0668 24.8576 23.1669 24.5952 23.1669C24.3329 23.1669 24.0703 23.0668 23.8701 22.8666ZM27.2696 14.7967C27.0694 14.9969 26.807 15.097 26.5446 15.097C26.2823 15.097 26.0198 14.9969 25.8196 14.7967L23.8701 12.8472C23.4697 12.4468 23.4697 11.7975 23.8701 11.3971C24.2705 10.9967 24.9198 10.9967 25.3202 11.3971L27.2697 13.3466C27.6701 13.747 27.6701 14.3963 27.2696 14.7967ZM19.1998 8.81227L17.2503 10.7617C17.0501 10.962 16.7876 11.0621 16.5253 11.0621C16.2629 11.0621 16.0004 10.962 15.8002 10.7617C15.3998 10.3614 15.3998 9.71209 15.8002 9.31164L17.7497 7.36217C18.1501 6.96179 18.7994 6.96179 19.1998 7.36217C19.6003 7.76262 19.6003 8.41189 19.1998 8.81227ZM19.1998 18.8316C18.9995 19.0318 18.7371 19.1319 18.4747 19.1319C18.2124 19.1319 17.9499 19.0318 17.7497 18.8316L15.8002 16.8821C15.3998 16.4817 15.3998 15.8324 15.8002 15.432C16.2006 15.0316 16.8499 15.0316 17.2504 15.432L19.1998 17.3815C19.6003 17.7819 19.6003 18.4312 19.1998 18.8316ZM15.8002 23.502C16.2006 23.1016 16.8499 23.1016 17.2504 23.502L19.1998 25.4514C19.6003 25.8518 19.6003 26.5011 19.1998 26.9015C18.9996 27.1018 18.7372 27.2019 18.4748 27.2019C18.2124 27.2019 17.9499 27.1018 17.7498 26.9015L15.8003 24.9521C15.3997 24.5516 15.3997 23.9023 15.8002 23.502ZM7.73035 21.4164L9.67982 19.467C10.0802 19.0666 10.7295 19.0666 11.1299 19.467C11.5304 19.8674 11.5304 20.5166 11.1299 20.9171L9.18046 22.8666C8.98023 23.0668 8.7178 23.1669 8.45544 23.1669C8.19308 23.1669 7.93058 23.0668 7.73042 22.8666C7.3299 22.4661 7.3299 21.8168 7.73035 21.4164ZM11.1299 14.7967C10.9296 14.9969 10.6672 15.097 10.4048 15.097C10.1425 15.097 9.87998 14.9969 9.67982 14.7967L7.73035 12.8472C7.3299 12.4468 7.3299 11.7975 7.73035 11.3971C8.13073 10.9967 8.78001 10.9967 9.18046 11.3971L11.1299 13.3466C11.5304 13.747 11.5304 14.3963 11.1299 14.7967Z" fill="white"/>
</svg>
