<svg width="28" height="28" viewBox="0 0 28 28" fill="none" xmlns="http://www.w3.org/2000/svg">
<path d="M0 5.85601C0 5.62394 0.0921872 5.40138 0.256282 5.23729C0.420376 5.07319 0.642936 4.98101 0.875 4.98101H27.125C27.3571 4.98101 27.5796 5.07319 27.7437 5.23729C27.9078 5.40138 28 5.62394 28 5.85601C28 6.08807 27.9078 6.31063 27.7437 6.47473C27.5796 6.63882 27.3571 6.73101 27.125 6.73101H0.875C0.642936 6.73101 0.420376 6.63882 0.256282 6.47473C0.0921872 6.31063 0 6.08807 0 5.85601ZM27.125 13.125H0.875C0.642936 13.125 0.420376 13.2172 0.256282 13.3813C0.0921872 13.5454 0 13.768 0 14C0 14.2321 0.0921872 14.4546 0.256282 14.6187C0.420376 14.7828 0.642936 14.875 0.875 14.875H27.125C27.3571 14.875 27.5796 14.7828 27.7437 14.6187C27.9078 14.4546 28 14.2321 28 14C28 13.768 27.9078 13.5454 27.7437 13.3813C27.5796 13.2172 27.3571 13.125 27.125 13.125ZM14 21.269H0.875C0.642936 21.269 0.420376 21.3612 0.256282 21.5253C0.0921872 21.6894 0 21.912 0 22.144C0 22.3761 0.0921872 22.5986 0.256282 22.7627C0.420376 22.9268 0.642936 23.019 0.875 23.019H14C14.2321 23.019 14.4546 22.9268 14.6187 22.7627C14.7828 22.5986 14.875 22.3761 14.875 22.144C14.875 21.912 14.7828 21.6894 14.6187 21.5253C14.4546 21.3612 14.2321 21.269 14 21.269Z" fill="white"/>
</svg>
