<svg width="20" height="13" viewBox="0 0 20 13" fill="none" xmlns="http://www.w3.org/2000/svg">
<path d="M8.01211 6.05196C8.41625 5.84867 8.72179 5.62226 8.93116 5.37758C9.30364 4.93693 9.48745 4.35264 9.48745 3.62836C9.48745 2.92355 9.30364 2.321 8.93603 1.81583C8.32252 0.992955 7.28418 0.571777 5.81615 0.549866H0V12.422H5.42297C6.03404 12.422 6.60007 12.3696 7.1235 12.2625C7.64693 12.1542 8.09976 11.9557 8.4832 11.666C8.82404 11.4141 9.10888 11.1012 9.33529 10.7324C9.69317 10.1749 9.87211 9.5431 9.87211 8.83952C9.87211 8.15784 9.71508 7.5772 9.40346 7.10003C9.08819 6.62286 8.62562 6.2735 8.01211 6.05196ZM2.39925 2.61193H5.01883C5.5946 2.61193 6.06934 2.67401 6.44183 2.79696C6.87274 2.9759 7.0882 3.33986 7.0882 3.89494C7.0882 4.39281 6.92387 4.74095 6.59886 4.93693C6.27141 5.13291 5.84658 5.23151 5.32558 5.23151H2.39925V2.61193ZM6.54164 10.153C6.25193 10.2929 5.84414 10.3623 5.32193 10.3623H2.39925V7.1962H5.3621C5.87823 7.19985 6.27993 7.26801 6.56721 7.39583C7.07846 7.62711 7.33287 8.05072 7.33287 8.67032C7.33287 9.40068 7.06994 9.89246 6.54164 10.153Z" fill="white"/>
<path d="M17.6035 1.10382H12.4459V2.58225H17.6035V1.10382Z" fill="white"/>
<path d="M19.3954 6.93607C19.2882 6.24831 19.0521 5.64332 18.6845 5.12111C18.2815 4.52951 17.7703 4.09616 17.1483 3.82227C16.5287 3.54717 15.8312 3.40962 15.0545 3.41084C13.7508 3.41084 12.6918 3.81862 11.8726 4.62811C11.0558 5.44004 10.6468 6.6074 10.6468 8.129C10.6468 9.75163 11.0984 10.9239 12.0065 11.6433C12.9109 12.3639 13.9553 12.723 15.141 12.723C16.5761 12.723 17.6924 12.2957 18.4897 11.4436C18.9997 10.9056 19.2882 10.3761 19.3515 9.85631H16.9754C16.8379 10.1132 16.6784 10.314 16.4958 10.4601C16.1647 10.7279 15.7338 10.8618 15.2055 10.8618C14.7028 10.8618 14.2767 10.751 13.9213 10.5307C13.3345 10.1777 13.0278 9.5593 12.9888 8.67921H19.4733C19.483 7.92084 19.4587 7.33777 19.3954 6.93607ZM13.0473 7.1637C13.1325 6.5928 13.3394 6.13997 13.6681 5.80522C13.9967 5.47168 14.4617 5.3037 15.057 5.30248C15.606 5.30248 16.0649 5.45951 16.4386 5.77479C16.8074 6.0925 17.0156 6.55384 17.0582 7.1637H13.0473Z" fill="white"/>
</svg>
