<svg width="15" height="15" viewBox="0 0 15 15" fill="none" xmlns="http://www.w3.org/2000/svg">
<g clip-path="url(#clip0_786_279)">
<path d="M3.34857 5.30927H0.359863V14.2844H3.34857V5.30927Z" fill="white"/>
<path d="M13.1572 6.12899C12.5294 5.44367 11.6991 5.10095 10.6667 5.10095C10.2863 5.10095 9.94054 5.14774 9.62954 5.24138C9.31863 5.33496 9.05604 5.46626 8.84163 5.63534C8.62735 5.80442 8.45669 5.96137 8.32999 6.10622C8.20951 6.24379 8.0917 6.40405 7.97674 6.58534V5.30911H4.99695L5.00608 5.74389C5.01221 6.0338 5.01522 6.92734 5.01522 8.42464C5.01522 9.92206 5.00919 11.8752 4.99708 14.2844H7.97674V9.27589C7.97674 8.96803 8.00976 8.72355 8.07631 8.54226C8.2032 8.23418 8.3947 7.97625 8.65146 7.76803C8.90818 7.55955 9.22658 7.45541 9.60708 7.45541C10.1262 7.45541 10.5082 7.63502 10.7528 7.99427C10.9973 8.35348 11.1195 8.85012 11.1195 9.48411V14.2841H14.0992V9.14019C14.099 7.81777 13.7852 6.81409 13.1572 6.12899Z" fill="white"/>
<path d="M1.87239 0.988831C1.37131 0.988831 0.965304 1.13535 0.654272 1.42811C0.343271 1.72094 0.187866 2.09062 0.187866 2.53752C0.187866 2.97817 0.338799 3.34659 0.640695 3.64236C0.942496 3.93817 1.34105 4.08615 1.83613 4.08615H1.85424C2.36148 4.08615 2.77059 3.93829 3.0815 3.64236C3.3924 3.34659 3.54483 2.9783 3.53883 2.53752C3.5328 2.09066 3.37873 1.72094 3.07693 1.42811C2.77516 1.13523 2.3735 0.988831 1.87239 0.988831Z" fill="white"/>
</g>
<defs>
<clipPath id="clip0_786_279">
<rect width="13.9112" height="13.9111" fill="white" transform="translate(0.187866 0.680969)"/>
</clipPath>
</defs>
</svg>
