<svg width="14" height="15" viewBox="0 0 14 15" fill="none" xmlns="http://www.w3.org/2000/svg">
<g clip-path="url(#clip0_786_262)">
<path d="M10.2189 0.680969H3.83897C1.76258 0.680969 0.0733643 2.37019 0.0733643 4.44658V10.8266C0.0733643 12.9029 1.76258 14.5921 3.83897 14.5921H10.219C12.2952 14.5921 13.9845 12.9029 13.9845 10.8266V4.44658C13.9845 2.37019 12.2952 0.680969 10.2189 0.680969ZM7.02891 11.4402C4.93151 11.4402 3.2252 9.73392 3.2252 7.63652C3.2252 5.53911 4.93151 3.83281 7.02891 3.83281C9.12632 3.83281 10.8326 5.53911 10.8326 7.63652C10.8326 9.73392 9.12632 11.4402 7.02891 11.4402ZM10.9236 4.72985C10.3038 4.72985 9.79963 4.22571 9.79963 3.6059C9.79963 2.98608 10.3038 2.48184 10.9236 2.48184C11.5434 2.48184 12.0476 2.98608 12.0476 3.6059C12.0476 4.22571 11.5434 4.72985 10.9236 4.72985Z" fill="white"/>
<path d="M7.02889 4.64856C5.38128 4.64856 4.04071 5.98902 4.04071 7.63674C4.04071 9.28435 5.38128 10.6249 7.02889 10.6249C8.67661 10.6249 10.0171 9.28435 10.0171 7.63674C10.0171 5.98902 8.67661 4.64856 7.02889 4.64856Z" fill="white"/>
<path d="M10.9236 3.29761C10.7535 3.29761 10.6151 3.43607 10.6151 3.60617C10.6151 3.77627 10.7535 3.91473 10.9236 3.91473C11.0938 3.91473 11.2323 3.77638 11.2323 3.60617C11.2323 3.43596 11.0938 3.29761 10.9236 3.29761Z" fill="white"/>
</g>
<defs>
<clipPath id="clip0_786_262">
<rect width="13.9111" height="13.9111" fill="white" transform="translate(0.0733643 0.680969)"/>
</clipPath>
</defs>
</svg>
