<svg width="15" height="15" viewBox="0 0 15 15" fill="none" xmlns="http://www.w3.org/2000/svg">
<path fill-rule="evenodd" clip-rule="evenodd" d="M9.29303 8.44973C9.02975 8.55733 8.86157 8.9695 8.69094 9.18007C8.60345 9.28793 8.49912 9.30478 8.36463 9.25071C7.37645 8.85702 6.61895 8.1976 6.07364 7.28821C5.98126 7.1472 5.99784 7.0358 6.10923 6.90484C6.27388 6.71084 6.48092 6.49049 6.52548 6.22912C6.62438 5.65094 5.86851 3.85743 4.87027 4.67009C1.99784 7.0108 9.662 13.2189 11.0452 9.86123C11.4365 8.90945 9.72939 8.27096 9.29303 8.44973ZM7.63239 13.377C6.6165 13.377 5.61691 13.107 4.74176 12.5956C4.60129 12.5133 4.43148 12.4916 4.27443 12.5342L2.37279 13.0562L3.0352 11.5969C3.12541 11.3982 3.10231 11.167 2.97488 10.9904C2.26629 10.0082 1.89161 8.84859 1.89161 7.63653C1.89161 4.47094 4.4668 1.89575 7.63239 1.89575C10.798 1.89575 13.3729 4.47094 13.3729 7.63653C13.3729 10.8019 10.7977 13.377 7.63239 13.377ZM7.63239 0.680969C3.79705 0.680969 0.676831 3.80119 0.676831 7.63653C0.676831 8.9858 1.05993 10.2815 1.78782 11.4061L0.731171 13.7332C0.63363 13.9482 0.669223 14.1998 0.821919 14.3788C0.939294 14.516 1.10911 14.5921 1.28436 14.5921C1.67615 14.5921 3.81254 13.9207 4.35621 13.7716C5.36124 14.3093 6.48853 14.5921 7.63239 14.5921C11.4675 14.5921 14.588 11.4716 14.588 7.63653C14.588 3.80119 11.4675 0.680969 7.63239 0.680969Z" fill="white"/>
</svg>
