<svg width="21" height="21" viewBox="0 0 21 21" fill="none" xmlns="http://www.w3.org/2000/svg">
<path d="M11.7246 2.67847H8.54139C5.46962 2.67847 2.97083 5.17726 2.97083 8.24903V10.6364C2.97083 12.795 4.21425 14.7507 6.154 15.6718V18.3317C6.154 18.5625 6.44248 18.6819 6.60562 18.5188L8.9174 16.209H11.7246C14.7963 16.209 17.2951 13.7102 17.2951 10.6364V8.24903C17.2951 5.17726 14.7963 2.67847 11.7246 2.67847ZM13.8096 13.1195L13.0038 13.9073C12.1563 14.7369 9.94398 13.79 7.99428 11.7985C6.04458 9.80501 5.1891 7.5728 5.99485 6.74319L6.80059 5.95535C7.09702 5.66489 7.60036 5.67085 7.93261 5.96729L9.09447 7.15501C9.50828 7.57877 9.3332 8.28902 8.7861 8.45216C8.40809 8.57352 8.15145 8.98932 8.27281 9.36732C8.47375 10.2507 9.59383 11.3548 10.4294 11.5737C10.8054 11.6612 11.2272 11.4563 11.3585 11.0803C11.5316 10.5371 12.2458 10.376 12.6616 10.8017L13.8215 11.9875C14.112 12.2837 14.108 12.7872 13.8096 13.1195ZM10.8572 6.45849C10.7776 6.45849 10.698 6.46247 10.6204 6.47242C10.4752 6.48833 10.3439 6.38289 10.3279 6.23766C10.312 6.09243 10.4175 5.96112 10.5627 5.9452C10.6602 5.93327 10.7597 5.92929 10.8572 5.92929C12.3194 5.92929 13.5091 7.119 13.5091 8.58127C13.5091 8.67876 13.5052 8.77823 13.4932 8.87572C13.4773 9.01896 13.344 9.12639 13.2008 9.11048C13.0575 9.09456 12.9501 8.96127 12.966 8.81802C12.974 8.74043 12.9799 8.66085 12.9799 8.58127C12.9799 7.41146 12.027 6.45849 10.8572 6.45849ZM12.4487 8.58127C12.4487 8.72651 12.3274 8.84588 12.1821 8.84588C12.0389 8.84588 11.9175 8.72651 11.9175 8.58127C11.9175 7.99637 11.4421 7.52088 10.8572 7.52088C10.7099 7.52088 10.5906 7.40151 10.5906 7.25429C10.5906 7.10905 10.7099 6.98969 10.8572 6.98969C11.7345 6.98969 12.4487 7.70391 12.4487 8.58127ZM14.472 9.43874C14.4382 9.58199 14.285 9.67151 14.1438 9.63371C14.0065 9.59591 13.923 9.45267 13.9548 9.3154C14.0125 9.07666 14.0403 8.82996 14.0403 8.58127C14.0403 6.82655 12.6119 5.3981 10.8572 5.3981C10.7756 5.3981 10.692 5.40008 10.6105 5.40804C10.4652 5.41799 10.3379 5.30857 10.326 5.16334C10.316 5.01611 10.4254 4.88879 10.5707 4.87884C10.6662 4.87088 10.7617 4.8669 10.8572 4.8669C12.9043 4.8669 14.5715 6.53409 14.5715 8.58127C14.5715 8.86975 14.5377 9.15823 14.472 9.43874Z" fill="white"/>
</svg>
