<svg width="15" height="15" viewBox="0 0 15 15" fill="none" xmlns="http://www.w3.org/2000/svg">
<g clip-path="url(#clip0_786_287)">
<path fill-rule="evenodd" clip-rule="evenodd" d="M8.7427 7.27001C8.60169 6.94396 8.4547 6.61847 8.29792 6.2965C9.6366 5.71669 10.7125 4.9293 11.5141 3.93079C12.296 4.85485 12.787 6.02833 12.8593 7.31266C11.3668 7.0684 9.99416 7.05482 8.7427 7.27001ZM10.3191 12.4125C10.0653 11.0491 9.69284 9.71587 9.20649 8.41523C10.2936 8.26145 11.4904 8.30139 12.7992 8.52907C12.546 10.1438 11.6244 11.5387 10.3191 12.4125ZM3.60373 12.1636C4.74488 10.3734 6.20202 9.20805 8.00747 8.67008C8.54463 10.0732 8.94023 11.5159 9.19182 12.9939C7.3111 13.7207 5.19781 13.4086 3.60373 12.1636ZM1.39181 7.48845C3.62221 7.48519 5.5464 7.22898 7.15868 6.72171C7.29372 6.99695 7.42305 7.27354 7.54667 7.55203C5.58852 8.1639 3.97406 9.41889 2.715 11.308C1.8086 10.2201 1.35731 8.90076 1.39181 7.48845ZM4.53757 2.5155C5.30948 3.52541 5.99281 4.56657 6.58756 5.63491C5.17879 6.04952 3.49777 6.26254 1.55375 6.27585C1.95532 4.6326 3.06169 3.26594 4.53757 2.5155ZM10.6327 3.09205C9.93438 3.99247 8.97039 4.7046 7.74202 5.22464C7.15352 4.14625 6.48078 3.09422 5.72083 2.07317C7.44125 1.63437 9.2209 2.00171 10.6327 3.09205ZM7.12961 0.680969C3.28829 0.680969 0.174316 3.79521 0.174316 7.63653C0.174316 11.4778 3.28829 14.5921 7.12961 14.5921C10.9715 14.5921 14.0854 11.4778 14.0854 7.63653C14.0854 3.79521 10.9712 0.680969 7.12961 0.680969Z" fill="white"/>
</g>
<defs>
<clipPath id="clip0_786_287">
<rect width="13.9111" height="13.9111" fill="white" transform="translate(0.174316 0.680969)"/>
</clipPath>
</defs>
</svg>
