<svg width="20" height="15" viewBox="0 0 20 15" fill="none" xmlns="http://www.w3.org/2000/svg">
<path d="M15.317 1.90263C13.2833 1.90263 11.7484 3.28192 11.1344 5.44937C10.1751 3.91245 9.40763 2.17848 8.98553 0.680969H6.83666V6.47399C6.83666 7.61683 5.91571 8.56263 4.8029 8.56263C3.69009 8.56263 2.76915 7.61683 2.76915 6.47399V0.720377H0.697021V6.51339C0.697021 8.9173 2.57729 10.8483 4.87965 10.8483C7.18201 10.8483 9.06228 8.9173 9.06228 6.51339V5.52819C9.48438 6.39517 10.0216 7.34097 10.5972 8.16854L9.25414 14.5921H11.4414L12.3623 9.90251C13.2065 10.4542 14.1658 10.7695 15.317 10.7695C17.6578 10.7695 19.5764 8.79908 19.5764 6.27695C19.5764 3.87304 17.6578 1.90263 15.317 1.90263ZM15.317 8.56263C14.4728 8.56263 13.5903 8.16854 12.8995 7.57742L13.1298 6.71044V6.67103C13.2833 5.72523 13.7821 4.1489 15.3554 4.1489C16.545 4.1489 17.5043 5.13411 17.5043 6.35576C17.4659 7.57742 16.4298 8.56263 15.317 8.56263Z" fill="white"/>
</svg>
