<svg width="13" height="15" viewBox="0 0 13 15" fill="none" xmlns="http://www.w3.org/2000/svg">
<path d="M10.2988 10.5401C9.5959 11.172 8.66785 11.5223 7.64941 11.5223C5.40432 11.5223 3.75561 9.87354 3.75561 7.6099C3.75561 5.34626 5.35187 3.76695 7.64941 3.76695C8.65009 3.76695 9.5959 4.10024 10.3166 4.73213L10.8064 5.15338L12.9829 2.9777L12.4382 2.48624C11.1575 1.3298 9.4571 0.680969 7.6486 0.680969C3.61358 0.680969 0.68335 3.59264 0.68335 7.59295C0.68335 11.5763 3.68379 14.5921 7.6486 14.5921C9.49099 14.5921 11.2091 13.9433 12.4737 12.7683L12.9998 12.2768L10.7895 10.1027L10.2988 10.5401Z" fill="white"/>
<path d="M7.54284 5.31189C8.16181 5.31189 8.75544 5.55778 9.19312 5.99546C9.6308 6.43314 9.87669 7.02677 9.87669 7.64574C9.87669 8.26472 9.6308 8.85834 9.19312 9.29603C8.75544 9.73371 8.16181 9.9796 7.54284 9.9796C6.92386 9.9796 6.33024 9.73371 5.89255 9.29603C5.45487 8.85834 5.20898 8.26472 5.20898 7.64574C5.20898 7.02677 5.45487 6.43314 5.89255 5.99546C6.33024 5.55778 6.92386 5.31189 7.54284 5.31189Z" fill="white"/>
</svg>
